; NON-PLATED HOLES START AT T1
; THROUGH (PLATED) HOLES START AT T100
M48
INCH
T1C0.125984
T2C0.086614
T100C0.015748
T101C0.035433
T102C0.035000
T103C0.038000
T104C0.039370
T105C0.098425
%
T1
X001065Y001127
X038065Y023127
X038065Y001127
T2
X001065Y023127
T100
X021054Y013136
T101
X029506Y021127
X032065Y021127
T102
X009065Y014127
X009065Y006127
X006065Y007127
X033065Y006127
X002065Y018127
X009065Y007127
X033065Y004127
X029065Y006127
X006065Y009127
X006065Y018127
X006065Y006127
X006065Y015127
X002065Y009127
X009065Y015127
X029065Y004127
X006065Y014127
T103
X035065Y001127
X003065Y015127
X003065Y013127
X003065Y012127
X003065Y007127
X003065Y014127
X019065Y004127
X037065Y005127
X032065Y001127
X035065Y002127
X003065Y005127
X017065Y021127
X037065Y006127
X003065Y004127
X003065Y006127
X020065Y004127
X017065Y019127
X017065Y020127
X021065Y004127
X031065Y001127
X022065Y004127
T104
X032386Y008627
X021386Y016627
X025386Y016627
X030386Y016627
X035386Y016627
X030386Y008627
X034386Y016627
X023386Y008627
X022386Y016627
X026386Y016627
X029386Y016627
X022386Y008627
X029386Y008627
X027386Y016627
X028386Y016627
X033386Y016627
X031386Y008627
X036386Y016627
X032386Y016627
X027386Y008627
X026386Y008627
X021386Y008627
X025386Y008627
X024386Y016627
X031386Y016627
X024386Y008627
X023386Y016627
X028386Y008627
T105
X037886Y016127
X037886Y009127
T00
M30
