G04 MADE WITH FRITZING*
G04 WWW.FRITZING.ORG*
G04 DOUBLE SIDED*
G04 HOLES PLATED*
G04 CONTOUR ON CENTER OF CONTOUR VECTOR*
%ASAXBY*%
%FSLAX23Y23*%
%MOIN*%
%OFA0B0*%
%SFA1.0B1.0*%
%ADD10C,0.049370*%
%ADD11C,0.135984*%
%ADD12C,0.096614*%
%ADD13C,0.088000*%
%ADD14C,0.085000*%
%ADD15C,0.076000*%
%ADD16C,0.148425*%
%ADD17C,0.065433*%
%ADD18R,0.088000X0.088000*%
%ADD19R,0.085000X0.085000*%
%LNMASK1*%
G90*
G70*
G54D10*
X2105Y1314D03*
G54D11*
X3807Y2313D03*
X3807Y113D03*
G54D12*
X107Y2313D03*
G54D11*
X107Y113D03*
G54D13*
X1707Y2113D03*
X1707Y2013D03*
X1707Y1913D03*
G54D14*
X607Y713D03*
X907Y713D03*
X607Y613D03*
X907Y613D03*
X607Y1513D03*
X907Y1513D03*
X607Y1413D03*
X907Y1413D03*
X207Y913D03*
X607Y913D03*
X207Y1813D03*
X607Y1813D03*
G54D15*
X2139Y863D03*
G54D16*
X3789Y913D03*
X3789Y1613D03*
G54D15*
X2339Y863D03*
X2539Y863D03*
X2239Y863D03*
X2739Y863D03*
X2439Y863D03*
X2939Y863D03*
X2639Y863D03*
X3139Y863D03*
X2839Y863D03*
X3639Y1663D03*
X3039Y863D03*
X3439Y1663D03*
X3239Y863D03*
X3239Y1663D03*
X3539Y1663D03*
X3039Y1663D03*
X3339Y1663D03*
X2839Y1663D03*
X3139Y1663D03*
X2639Y1663D03*
X2939Y1663D03*
X2439Y1663D03*
X2739Y1663D03*
X2239Y1663D03*
X2539Y1663D03*
X2339Y1663D03*
X2139Y1663D03*
G54D13*
X307Y413D03*
X307Y513D03*
X307Y613D03*
X307Y713D03*
X2207Y413D03*
X2107Y413D03*
X2007Y413D03*
X1907Y413D03*
X307Y1213D03*
X307Y1313D03*
X307Y1413D03*
X307Y1513D03*
X3107Y113D03*
X3107Y113D03*
X3207Y113D03*
X3707Y613D03*
X3707Y513D03*
X3507Y213D03*
X3507Y113D03*
G54D17*
X3207Y2113D03*
X2951Y2113D03*
X3207Y2113D03*
X2951Y2113D03*
G54D14*
X2907Y613D03*
X3307Y613D03*
X2907Y413D03*
X3307Y413D03*
G54D18*
X1707Y2113D03*
G54D19*
X607Y713D03*
X607Y1513D03*
G04 End of Mask1*
M02*