G04 MADE WITH FRITZING*
G04 WWW.FRITZING.ORG*
G04 DOUBLE SIDED*
G04 HOLES PLATED*
G04 CONTOUR ON CENTER OF CONTOUR VECTOR*
%ASAXBY*%
%FSLAX23Y23*%
%MOIN*%
%OFA0B0*%
%SFA1.0B1.0*%
%ADD10C,0.075000*%
%ADD11C,0.039370*%
%ADD12C,0.078000*%
%ADD13C,0.066000*%
%ADD14C,0.138425*%
%ADD15C,0.055433*%
%ADD16R,0.078000X0.078000*%
%ADD17R,0.075000X0.075000*%
%ADD18C,0.024000*%
%LNCOPPER0*%
G90*
G70*
G54D10*
X234Y2322D03*
X2150Y1537D03*
X502Y620D03*
G54D11*
X2105Y1314D03*
G54D12*
X1707Y2113D03*
X1707Y2013D03*
X1707Y1913D03*
G54D10*
X607Y713D03*
X907Y713D03*
X607Y613D03*
X907Y613D03*
X607Y1513D03*
X907Y1513D03*
X607Y1413D03*
X907Y1413D03*
X207Y913D03*
X607Y913D03*
X207Y1813D03*
X607Y1813D03*
G54D13*
X2139Y863D03*
G54D14*
X3789Y913D03*
X3789Y1613D03*
G54D13*
X2339Y863D03*
X2539Y863D03*
X2239Y863D03*
X2739Y863D03*
X2439Y863D03*
X2939Y863D03*
X2639Y863D03*
X3139Y863D03*
X2839Y863D03*
X3639Y1663D03*
X3039Y863D03*
X3439Y1663D03*
X3239Y863D03*
X3239Y1663D03*
X3539Y1663D03*
X3039Y1663D03*
X3339Y1663D03*
X2839Y1663D03*
X3139Y1663D03*
X2639Y1663D03*
X2939Y1663D03*
X2439Y1663D03*
X2739Y1663D03*
X2239Y1663D03*
X2539Y1663D03*
X2339Y1663D03*
X2139Y1663D03*
G54D12*
X307Y413D03*
X307Y513D03*
X307Y613D03*
X307Y713D03*
X2207Y413D03*
X2107Y413D03*
X2007Y413D03*
X1907Y413D03*
X307Y1213D03*
X307Y1313D03*
X307Y1413D03*
X307Y1513D03*
X3107Y113D03*
X3107Y113D03*
X3207Y113D03*
X3707Y613D03*
X3707Y513D03*
X3507Y213D03*
X3507Y113D03*
G54D15*
X3207Y2113D03*
X2951Y2113D03*
G54D10*
X2907Y613D03*
X3307Y613D03*
X2907Y413D03*
X3307Y413D03*
G54D16*
X1707Y2113D03*
G54D17*
X607Y713D03*
X607Y1513D03*
G54D18*
X1906Y1712D02*
X2119Y1667D01*
D02*
X1807Y2012D02*
X1906Y1712D01*
D02*
X1726Y2013D02*
X1807Y2012D01*
D02*
X3807Y714D02*
X3606Y813D01*
D02*
X3606Y813D02*
X3345Y1644D01*
D02*
X3807Y513D02*
X3807Y714D01*
D02*
X3726Y513D02*
X3807Y513D01*
D02*
X3807Y313D02*
X3807Y513D01*
D02*
X3807Y513D02*
X3726Y513D01*
D02*
X3506Y114D02*
X3807Y313D01*
D02*
X3494Y127D02*
X3506Y114D01*
D02*
X3208Y114D02*
X3488Y113D01*
D02*
X3221Y125D02*
X3208Y114D01*
D02*
X1905Y1414D02*
X2125Y1648D01*
D02*
X1905Y1013D02*
X1905Y1414D01*
D02*
X1907Y432D02*
X1905Y1013D01*
D02*
X906Y612D02*
X1888Y416D01*
D02*
X895Y600D02*
X906Y612D01*
D02*
X605Y612D02*
X889Y613D01*
D02*
X591Y604D02*
X605Y612D01*
D02*
X508Y512D02*
X594Y600D01*
D02*
X326Y513D02*
X508Y512D01*
D02*
X508Y1414D02*
X324Y1321D01*
D02*
X589Y1413D02*
X508Y1414D01*
D02*
X906Y1414D02*
X624Y1413D01*
D02*
X897Y1427D02*
X906Y1414D01*
D02*
X2950Y2095D02*
X2939Y1682D01*
D02*
X3212Y2096D02*
X3333Y1682D01*
D02*
X3324Y613D02*
X3688Y613D01*
D02*
X3138Y843D02*
X3107Y132D01*
D02*
X3319Y400D02*
X3493Y226D01*
D02*
X2506Y712D02*
X2447Y845D01*
D02*
X2890Y617D02*
X2506Y712D01*
D02*
X2506Y612D02*
X2350Y846D01*
D02*
X2891Y421D02*
X2506Y612D01*
D02*
X2208Y432D02*
X2237Y843D01*
D02*
X2108Y432D02*
X2137Y843D01*
D02*
X508Y1514D02*
X601Y1796D01*
D02*
X324Y1421D02*
X508Y1514D01*
D02*
X1905Y1711D02*
X2119Y1667D01*
D02*
X1407Y1414D02*
X1905Y1711D01*
D02*
X924Y1413D02*
X1407Y1414D01*
D02*
X508Y712D02*
X324Y621D01*
D02*
X599Y897D02*
X508Y712D01*
D02*
X2009Y432D02*
X2105Y1306D01*
G36*
X134Y2377D02*
X134Y2357D01*
X138Y2357D01*
X138Y2355D01*
X140Y2355D01*
X140Y2353D01*
X142Y2353D01*
X142Y2351D01*
X144Y2351D01*
X144Y2349D01*
X146Y2349D01*
X146Y2347D01*
X148Y2347D01*
X148Y2345D01*
X150Y2345D01*
X150Y2341D01*
X152Y2341D01*
X152Y2339D01*
X154Y2339D01*
X154Y2335D01*
X156Y2335D01*
X156Y2329D01*
X158Y2329D01*
X158Y2321D01*
X160Y2321D01*
X160Y2303D01*
X158Y2303D01*
X158Y2297D01*
X156Y2297D01*
X156Y2291D01*
X154Y2291D01*
X154Y2287D01*
X152Y2287D01*
X152Y2283D01*
X150Y2283D01*
X150Y2281D01*
X148Y2281D01*
X148Y2279D01*
X146Y2279D01*
X146Y2275D01*
X142Y2275D01*
X142Y2273D01*
X140Y2273D01*
X140Y2271D01*
X138Y2271D01*
X138Y2269D01*
X136Y2269D01*
X136Y2267D01*
X132Y2267D01*
X132Y2265D01*
X128Y2265D01*
X128Y2263D01*
X122Y2263D01*
X122Y2261D01*
X114Y2261D01*
X114Y2259D01*
X3756Y2259D01*
X3756Y2261D01*
X3754Y2261D01*
X3754Y2263D01*
X3752Y2263D01*
X3752Y2265D01*
X3750Y2265D01*
X3750Y2269D01*
X3748Y2269D01*
X3748Y2271D01*
X3746Y2271D01*
X3746Y2273D01*
X3744Y2273D01*
X3744Y2277D01*
X3742Y2277D01*
X3742Y2281D01*
X3740Y2281D01*
X3740Y2285D01*
X3738Y2285D01*
X3738Y2291D01*
X3736Y2291D01*
X3736Y2299D01*
X3734Y2299D01*
X3734Y2327D01*
X3736Y2327D01*
X3736Y2335D01*
X3738Y2335D01*
X3738Y2339D01*
X3740Y2339D01*
X3740Y2345D01*
X3742Y2345D01*
X3742Y2349D01*
X3744Y2349D01*
X3744Y2351D01*
X3746Y2351D01*
X3746Y2355D01*
X3748Y2355D01*
X3748Y2357D01*
X3750Y2357D01*
X3750Y2377D01*
X134Y2377D01*
G37*
D02*
G36*
X3864Y2377D02*
X3864Y2357D01*
X3866Y2357D01*
X3866Y2353D01*
X3868Y2353D01*
X3868Y2351D01*
X3870Y2351D01*
X3870Y2347D01*
X3872Y2347D01*
X3872Y2343D01*
X3874Y2343D01*
X3874Y2337D01*
X3876Y2337D01*
X3876Y2331D01*
X3878Y2331D01*
X3878Y2321D01*
X3880Y2321D01*
X3880Y2305D01*
X3878Y2305D01*
X3878Y2295D01*
X3876Y2295D01*
X3876Y2289D01*
X3874Y2289D01*
X3874Y2283D01*
X3872Y2283D01*
X3872Y2279D01*
X3870Y2279D01*
X3870Y2275D01*
X3868Y2275D01*
X3868Y2273D01*
X3866Y2273D01*
X3866Y2269D01*
X3864Y2269D01*
X3864Y2267D01*
X3862Y2267D01*
X3862Y2265D01*
X3860Y2265D01*
X3860Y2263D01*
X3858Y2263D01*
X3858Y2261D01*
X3856Y2261D01*
X3856Y2259D01*
X3854Y2259D01*
X3854Y2257D01*
X3852Y2257D01*
X3852Y2255D01*
X3850Y2255D01*
X3850Y2253D01*
X3846Y2253D01*
X3846Y2251D01*
X3844Y2251D01*
X3844Y2249D01*
X3840Y2249D01*
X3840Y2247D01*
X3836Y2247D01*
X3836Y2245D01*
X3830Y2245D01*
X3830Y2243D01*
X3824Y2243D01*
X3824Y2241D01*
X3812Y2241D01*
X3812Y2239D01*
X3918Y2239D01*
X3918Y2377D01*
X3864Y2377D01*
G37*
D02*
G36*
X40Y2289D02*
X40Y2259D01*
X100Y2259D01*
X100Y2261D01*
X90Y2261D01*
X90Y2263D01*
X86Y2263D01*
X86Y2265D01*
X82Y2265D01*
X82Y2267D01*
X78Y2267D01*
X78Y2269D01*
X76Y2269D01*
X76Y2271D01*
X72Y2271D01*
X72Y2273D01*
X70Y2273D01*
X70Y2275D01*
X68Y2275D01*
X68Y2277D01*
X66Y2277D01*
X66Y2279D01*
X64Y2279D01*
X64Y2283D01*
X62Y2283D01*
X62Y2285D01*
X60Y2285D01*
X60Y2289D01*
X40Y2289D01*
G37*
D02*
G36*
X40Y2259D02*
X40Y2257D01*
X3758Y2257D01*
X3758Y2259D01*
X40Y2259D01*
G37*
D02*
G36*
X40Y2259D02*
X40Y2257D01*
X3758Y2257D01*
X3758Y2259D01*
X40Y2259D01*
G37*
D02*
G36*
X40Y2257D02*
X40Y2239D01*
X3802Y2239D01*
X3802Y2241D01*
X3790Y2241D01*
X3790Y2243D01*
X3782Y2243D01*
X3782Y2245D01*
X3778Y2245D01*
X3778Y2247D01*
X3774Y2247D01*
X3774Y2249D01*
X3770Y2249D01*
X3770Y2251D01*
X3766Y2251D01*
X3766Y2253D01*
X3764Y2253D01*
X3764Y2255D01*
X3760Y2255D01*
X3760Y2257D01*
X40Y2257D01*
G37*
D02*
G36*
X40Y2239D02*
X40Y2237D01*
X3918Y2237D01*
X3918Y2239D01*
X40Y2239D01*
G37*
D02*
G36*
X40Y2239D02*
X40Y2237D01*
X3918Y2237D01*
X3918Y2239D01*
X40Y2239D01*
G37*
D02*
G36*
X40Y2237D02*
X40Y2161D01*
X1756Y2161D01*
X1756Y2151D01*
X3210Y2151D01*
X3210Y2149D01*
X3220Y2149D01*
X3220Y2147D01*
X3224Y2147D01*
X3224Y2145D01*
X3228Y2145D01*
X3228Y2143D01*
X3230Y2143D01*
X3230Y2141D01*
X3232Y2141D01*
X3232Y2139D01*
X3234Y2139D01*
X3234Y2137D01*
X3236Y2137D01*
X3236Y2135D01*
X3238Y2135D01*
X3238Y2131D01*
X3240Y2131D01*
X3240Y2127D01*
X3242Y2127D01*
X3242Y2121D01*
X3244Y2121D01*
X3244Y2103D01*
X3242Y2103D01*
X3242Y2097D01*
X3240Y2097D01*
X3240Y2073D01*
X3242Y2073D01*
X3242Y2067D01*
X3244Y2067D01*
X3244Y2059D01*
X3246Y2059D01*
X3246Y2053D01*
X3248Y2053D01*
X3248Y2047D01*
X3250Y2047D01*
X3250Y2039D01*
X3252Y2039D01*
X3252Y2033D01*
X3254Y2033D01*
X3254Y2025D01*
X3256Y2025D01*
X3256Y2019D01*
X3258Y2019D01*
X3258Y2013D01*
X3260Y2013D01*
X3260Y2005D01*
X3262Y2005D01*
X3262Y1999D01*
X3264Y1999D01*
X3264Y1991D01*
X3266Y1991D01*
X3266Y1985D01*
X3268Y1985D01*
X3268Y1979D01*
X3270Y1979D01*
X3270Y1971D01*
X3272Y1971D01*
X3272Y1965D01*
X3274Y1965D01*
X3274Y1957D01*
X3276Y1957D01*
X3276Y1951D01*
X3278Y1951D01*
X3278Y1945D01*
X3280Y1945D01*
X3280Y1937D01*
X3282Y1937D01*
X3282Y1931D01*
X3284Y1931D01*
X3284Y1923D01*
X3286Y1923D01*
X3286Y1917D01*
X3288Y1917D01*
X3288Y1911D01*
X3290Y1911D01*
X3290Y1903D01*
X3292Y1903D01*
X3292Y1897D01*
X3294Y1897D01*
X3294Y1889D01*
X3296Y1889D01*
X3296Y1883D01*
X3298Y1883D01*
X3298Y1875D01*
X3300Y1875D01*
X3300Y1869D01*
X3302Y1869D01*
X3302Y1863D01*
X3304Y1863D01*
X3304Y1855D01*
X3306Y1855D01*
X3306Y1849D01*
X3308Y1849D01*
X3308Y1841D01*
X3310Y1841D01*
X3310Y1835D01*
X3312Y1835D01*
X3312Y1829D01*
X3314Y1829D01*
X3314Y1821D01*
X3316Y1821D01*
X3316Y1815D01*
X3318Y1815D01*
X3318Y1807D01*
X3320Y1807D01*
X3320Y1801D01*
X3322Y1801D01*
X3322Y1795D01*
X3324Y1795D01*
X3324Y1787D01*
X3326Y1787D01*
X3326Y1781D01*
X3328Y1781D01*
X3328Y1773D01*
X3330Y1773D01*
X3330Y1767D01*
X3332Y1767D01*
X3332Y1761D01*
X3334Y1761D01*
X3334Y1753D01*
X3336Y1753D01*
X3336Y1747D01*
X3338Y1747D01*
X3338Y1739D01*
X3340Y1739D01*
X3340Y1733D01*
X3342Y1733D01*
X3342Y1727D01*
X3344Y1727D01*
X3344Y1719D01*
X3346Y1719D01*
X3346Y1713D01*
X3348Y1713D01*
X3348Y1705D01*
X3650Y1705D01*
X3650Y1703D01*
X3656Y1703D01*
X3656Y1701D01*
X3660Y1701D01*
X3660Y1699D01*
X3664Y1699D01*
X3664Y1697D01*
X3666Y1697D01*
X3666Y1695D01*
X3668Y1695D01*
X3668Y1693D01*
X3670Y1693D01*
X3670Y1691D01*
X3806Y1691D01*
X3806Y1689D01*
X3814Y1689D01*
X3814Y1687D01*
X3818Y1687D01*
X3818Y1685D01*
X3824Y1685D01*
X3824Y1683D01*
X3826Y1683D01*
X3826Y1681D01*
X3830Y1681D01*
X3830Y1679D01*
X3834Y1679D01*
X3834Y1677D01*
X3836Y1677D01*
X3836Y1675D01*
X3838Y1675D01*
X3838Y1673D01*
X3842Y1673D01*
X3842Y1671D01*
X3844Y1671D01*
X3844Y1669D01*
X3846Y1669D01*
X3846Y1667D01*
X3848Y1667D01*
X3848Y1663D01*
X3850Y1663D01*
X3850Y1661D01*
X3852Y1661D01*
X3852Y1659D01*
X3854Y1659D01*
X3854Y1655D01*
X3856Y1655D01*
X3856Y1653D01*
X3858Y1653D01*
X3858Y1649D01*
X3860Y1649D01*
X3860Y1645D01*
X3862Y1645D01*
X3862Y1639D01*
X3864Y1639D01*
X3864Y1633D01*
X3866Y1633D01*
X3866Y1623D01*
X3868Y1623D01*
X3868Y1603D01*
X3866Y1603D01*
X3866Y1593D01*
X3864Y1593D01*
X3864Y1585D01*
X3862Y1585D01*
X3862Y1581D01*
X3860Y1581D01*
X3860Y1577D01*
X3858Y1577D01*
X3858Y1573D01*
X3856Y1573D01*
X3856Y1569D01*
X3854Y1569D01*
X3854Y1567D01*
X3852Y1567D01*
X3852Y1565D01*
X3850Y1565D01*
X3850Y1561D01*
X3848Y1561D01*
X3848Y1559D01*
X3846Y1559D01*
X3846Y1557D01*
X3844Y1557D01*
X3844Y1555D01*
X3842Y1555D01*
X3842Y1553D01*
X3840Y1553D01*
X3840Y1551D01*
X3836Y1551D01*
X3836Y1549D01*
X3834Y1549D01*
X3834Y1547D01*
X3832Y1547D01*
X3832Y1545D01*
X3828Y1545D01*
X3828Y1543D01*
X3824Y1543D01*
X3824Y1541D01*
X3820Y1541D01*
X3820Y1539D01*
X3814Y1539D01*
X3814Y1537D01*
X3808Y1537D01*
X3808Y1535D01*
X3796Y1535D01*
X3796Y1533D01*
X3918Y1533D01*
X3918Y2237D01*
X40Y2237D01*
G37*
D02*
G36*
X40Y2161D02*
X40Y1863D01*
X1702Y1863D01*
X1702Y1865D01*
X1692Y1865D01*
X1692Y1867D01*
X1686Y1867D01*
X1686Y1869D01*
X1684Y1869D01*
X1684Y1871D01*
X1680Y1871D01*
X1680Y1873D01*
X1676Y1873D01*
X1676Y1875D01*
X1674Y1875D01*
X1674Y1877D01*
X1672Y1877D01*
X1672Y1879D01*
X1670Y1879D01*
X1670Y1881D01*
X1668Y1881D01*
X1668Y1885D01*
X1666Y1885D01*
X1666Y1887D01*
X1664Y1887D01*
X1664Y1891D01*
X1662Y1891D01*
X1662Y1895D01*
X1660Y1895D01*
X1660Y1901D01*
X1658Y1901D01*
X1658Y1923D01*
X1660Y1923D01*
X1660Y1931D01*
X1662Y1931D01*
X1662Y1935D01*
X1664Y1935D01*
X1664Y1939D01*
X1666Y1939D01*
X1666Y1941D01*
X1668Y1941D01*
X1668Y1943D01*
X1670Y1943D01*
X1670Y1947D01*
X1672Y1947D01*
X1672Y1949D01*
X1676Y1949D01*
X1676Y1951D01*
X1678Y1951D01*
X1678Y1953D01*
X1680Y1953D01*
X1680Y1973D01*
X1676Y1973D01*
X1676Y1975D01*
X1674Y1975D01*
X1674Y1977D01*
X1672Y1977D01*
X1672Y1979D01*
X1670Y1979D01*
X1670Y1981D01*
X1668Y1981D01*
X1668Y1985D01*
X1666Y1985D01*
X1666Y1987D01*
X1664Y1987D01*
X1664Y1991D01*
X1662Y1991D01*
X1662Y1995D01*
X1660Y1995D01*
X1660Y2001D01*
X1658Y2001D01*
X1658Y2023D01*
X1660Y2023D01*
X1660Y2031D01*
X1662Y2031D01*
X1662Y2035D01*
X1664Y2035D01*
X1664Y2039D01*
X1666Y2039D01*
X1666Y2041D01*
X1668Y2041D01*
X1668Y2043D01*
X1670Y2043D01*
X1670Y2063D01*
X1658Y2063D01*
X1658Y2161D01*
X40Y2161D01*
G37*
D02*
G36*
X1756Y2151D02*
X1756Y2065D01*
X1754Y2065D01*
X1754Y2063D01*
X1744Y2063D01*
X1744Y2043D01*
X1746Y2043D01*
X1746Y2041D01*
X1748Y2041D01*
X1748Y2037D01*
X1750Y2037D01*
X1750Y2035D01*
X1810Y2035D01*
X1810Y2033D01*
X1816Y2033D01*
X1816Y2031D01*
X1820Y2031D01*
X1820Y2029D01*
X1822Y2029D01*
X1822Y2027D01*
X1824Y2027D01*
X1824Y2025D01*
X1826Y2025D01*
X1826Y2021D01*
X1828Y2021D01*
X1828Y2015D01*
X1830Y2015D01*
X1830Y2009D01*
X1832Y2009D01*
X1832Y2003D01*
X1834Y2003D01*
X1834Y1997D01*
X1836Y1997D01*
X1836Y1991D01*
X1838Y1991D01*
X1838Y1985D01*
X1840Y1985D01*
X1840Y1979D01*
X1842Y1979D01*
X1842Y1973D01*
X1844Y1973D01*
X1844Y1967D01*
X1846Y1967D01*
X1846Y1961D01*
X1848Y1961D01*
X1848Y1955D01*
X1850Y1955D01*
X1850Y1949D01*
X1852Y1949D01*
X1852Y1943D01*
X1854Y1943D01*
X1854Y1937D01*
X1856Y1937D01*
X1856Y1931D01*
X1858Y1931D01*
X1858Y1925D01*
X1860Y1925D01*
X1860Y1919D01*
X1862Y1919D01*
X1862Y1913D01*
X1864Y1913D01*
X1864Y1907D01*
X1866Y1907D01*
X1866Y1901D01*
X1868Y1901D01*
X1868Y1895D01*
X1870Y1895D01*
X1870Y1889D01*
X1872Y1889D01*
X1872Y1883D01*
X1874Y1883D01*
X1874Y1877D01*
X1876Y1877D01*
X1876Y1871D01*
X1878Y1871D01*
X1878Y1863D01*
X1880Y1863D01*
X1880Y1857D01*
X1882Y1857D01*
X1882Y1851D01*
X1884Y1851D01*
X1884Y1845D01*
X1886Y1845D01*
X1886Y1839D01*
X1888Y1839D01*
X1888Y1833D01*
X1890Y1833D01*
X1890Y1827D01*
X1892Y1827D01*
X1892Y1821D01*
X1894Y1821D01*
X1894Y1815D01*
X1896Y1815D01*
X1896Y1809D01*
X1898Y1809D01*
X1898Y1803D01*
X1900Y1803D01*
X1900Y1797D01*
X1902Y1797D01*
X1902Y1791D01*
X1904Y1791D01*
X1904Y1785D01*
X1906Y1785D01*
X1906Y1779D01*
X1908Y1779D01*
X1908Y1773D01*
X1910Y1773D01*
X1910Y1767D01*
X1912Y1767D01*
X1912Y1761D01*
X1914Y1761D01*
X1914Y1755D01*
X1916Y1755D01*
X1916Y1749D01*
X1918Y1749D01*
X1918Y1743D01*
X1920Y1743D01*
X1920Y1737D01*
X1922Y1737D01*
X1922Y1731D01*
X1928Y1731D01*
X1928Y1729D01*
X1936Y1729D01*
X1936Y1727D01*
X1946Y1727D01*
X1946Y1725D01*
X1956Y1725D01*
X1956Y1723D01*
X1966Y1723D01*
X1966Y1721D01*
X1974Y1721D01*
X1974Y1719D01*
X1984Y1719D01*
X1984Y1717D01*
X1994Y1717D01*
X1994Y1715D01*
X2002Y1715D01*
X2002Y1713D01*
X2012Y1713D01*
X2012Y1711D01*
X2022Y1711D01*
X2022Y1709D01*
X2032Y1709D01*
X2032Y1707D01*
X2040Y1707D01*
X2040Y1705D01*
X2850Y1705D01*
X2850Y1703D01*
X2856Y1703D01*
X2856Y1701D01*
X2860Y1701D01*
X2860Y1699D01*
X2864Y1699D01*
X2864Y1697D01*
X2866Y1697D01*
X2866Y1695D01*
X2868Y1695D01*
X2868Y1693D01*
X2870Y1693D01*
X2870Y1691D01*
X2872Y1691D01*
X2872Y1689D01*
X2874Y1689D01*
X2874Y1685D01*
X2876Y1685D01*
X2876Y1681D01*
X2878Y1681D01*
X2878Y1677D01*
X2898Y1677D01*
X2898Y1679D01*
X2900Y1679D01*
X2900Y1683D01*
X2902Y1683D01*
X2902Y1687D01*
X2904Y1687D01*
X2904Y1689D01*
X2906Y1689D01*
X2906Y1691D01*
X2908Y1691D01*
X2908Y1693D01*
X2910Y1693D01*
X2910Y1695D01*
X2912Y1695D01*
X2912Y1697D01*
X2914Y1697D01*
X2914Y1699D01*
X2918Y1699D01*
X2918Y1751D01*
X2920Y1751D01*
X2920Y1827D01*
X2922Y1827D01*
X2922Y1901D01*
X2924Y1901D01*
X2924Y1977D01*
X2926Y1977D01*
X2926Y2051D01*
X2928Y2051D01*
X2928Y2083D01*
X2926Y2083D01*
X2926Y2085D01*
X2924Y2085D01*
X2924Y2087D01*
X2922Y2087D01*
X2922Y2089D01*
X2920Y2089D01*
X2920Y2093D01*
X2918Y2093D01*
X2918Y2097D01*
X2916Y2097D01*
X2916Y2101D01*
X2914Y2101D01*
X2914Y2125D01*
X2916Y2125D01*
X2916Y2129D01*
X2918Y2129D01*
X2918Y2133D01*
X2920Y2133D01*
X2920Y2135D01*
X2922Y2135D01*
X2922Y2139D01*
X2924Y2139D01*
X2924Y2141D01*
X2928Y2141D01*
X2928Y2143D01*
X2930Y2143D01*
X2930Y2145D01*
X2934Y2145D01*
X2934Y2147D01*
X2938Y2147D01*
X2938Y2149D01*
X2946Y2149D01*
X2946Y2151D01*
X1756Y2151D01*
G37*
D02*
G36*
X2954Y2151D02*
X2954Y2149D01*
X2964Y2149D01*
X2964Y2147D01*
X2968Y2147D01*
X2968Y2145D01*
X2972Y2145D01*
X2972Y2143D01*
X2974Y2143D01*
X2974Y2141D01*
X2976Y2141D01*
X2976Y2139D01*
X2978Y2139D01*
X2978Y2137D01*
X2980Y2137D01*
X2980Y2135D01*
X2982Y2135D01*
X2982Y2131D01*
X2984Y2131D01*
X2984Y2129D01*
X2986Y2129D01*
X2986Y2123D01*
X2988Y2123D01*
X2988Y2103D01*
X2986Y2103D01*
X2986Y2097D01*
X2984Y2097D01*
X2984Y2093D01*
X2982Y2093D01*
X2982Y2091D01*
X2980Y2091D01*
X2980Y2089D01*
X2978Y2089D01*
X2978Y2085D01*
X2974Y2085D01*
X2974Y2083D01*
X2972Y2083D01*
X2972Y2051D01*
X2970Y2051D01*
X2970Y1975D01*
X2968Y1975D01*
X2968Y1901D01*
X2966Y1901D01*
X2966Y1825D01*
X2964Y1825D01*
X2964Y1751D01*
X2962Y1751D01*
X2962Y1705D01*
X3250Y1705D01*
X3250Y1703D01*
X3256Y1703D01*
X3256Y1701D01*
X3260Y1701D01*
X3260Y1699D01*
X3264Y1699D01*
X3264Y1697D01*
X3266Y1697D01*
X3266Y1695D01*
X3268Y1695D01*
X3268Y1693D01*
X3270Y1693D01*
X3270Y1691D01*
X3272Y1691D01*
X3272Y1689D01*
X3274Y1689D01*
X3274Y1685D01*
X3276Y1685D01*
X3276Y1681D01*
X3278Y1681D01*
X3278Y1677D01*
X3298Y1677D01*
X3298Y1679D01*
X3300Y1679D01*
X3300Y1683D01*
X3302Y1683D01*
X3302Y1687D01*
X3304Y1687D01*
X3304Y1707D01*
X3302Y1707D01*
X3302Y1713D01*
X3300Y1713D01*
X3300Y1719D01*
X3298Y1719D01*
X3298Y1727D01*
X3296Y1727D01*
X3296Y1733D01*
X3294Y1733D01*
X3294Y1741D01*
X3292Y1741D01*
X3292Y1747D01*
X3290Y1747D01*
X3290Y1753D01*
X3288Y1753D01*
X3288Y1761D01*
X3286Y1761D01*
X3286Y1767D01*
X3284Y1767D01*
X3284Y1775D01*
X3282Y1775D01*
X3282Y1781D01*
X3280Y1781D01*
X3280Y1787D01*
X3278Y1787D01*
X3278Y1795D01*
X3276Y1795D01*
X3276Y1801D01*
X3274Y1801D01*
X3274Y1809D01*
X3272Y1809D01*
X3272Y1815D01*
X3270Y1815D01*
X3270Y1821D01*
X3268Y1821D01*
X3268Y1829D01*
X3266Y1829D01*
X3266Y1835D01*
X3264Y1835D01*
X3264Y1843D01*
X3262Y1843D01*
X3262Y1849D01*
X3260Y1849D01*
X3260Y1855D01*
X3258Y1855D01*
X3258Y1863D01*
X3256Y1863D01*
X3256Y1869D01*
X3254Y1869D01*
X3254Y1877D01*
X3252Y1877D01*
X3252Y1883D01*
X3250Y1883D01*
X3250Y1891D01*
X3248Y1891D01*
X3248Y1897D01*
X3246Y1897D01*
X3246Y1903D01*
X3244Y1903D01*
X3244Y1911D01*
X3242Y1911D01*
X3242Y1917D01*
X3240Y1917D01*
X3240Y1925D01*
X3238Y1925D01*
X3238Y1931D01*
X3236Y1931D01*
X3236Y1937D01*
X3234Y1937D01*
X3234Y1945D01*
X3232Y1945D01*
X3232Y1951D01*
X3230Y1951D01*
X3230Y1959D01*
X3228Y1959D01*
X3228Y1965D01*
X3226Y1965D01*
X3226Y1971D01*
X3224Y1971D01*
X3224Y1979D01*
X3222Y1979D01*
X3222Y1985D01*
X3220Y1985D01*
X3220Y1993D01*
X3218Y1993D01*
X3218Y1999D01*
X3216Y1999D01*
X3216Y2005D01*
X3214Y2005D01*
X3214Y2013D01*
X3212Y2013D01*
X3212Y2019D01*
X3210Y2019D01*
X3210Y2027D01*
X3208Y2027D01*
X3208Y2033D01*
X3206Y2033D01*
X3206Y2039D01*
X3204Y2039D01*
X3204Y2047D01*
X3202Y2047D01*
X3202Y2053D01*
X3200Y2053D01*
X3200Y2061D01*
X3198Y2061D01*
X3198Y2067D01*
X3196Y2067D01*
X3196Y2073D01*
X3194Y2073D01*
X3194Y2077D01*
X3192Y2077D01*
X3192Y2079D01*
X3188Y2079D01*
X3188Y2081D01*
X3184Y2081D01*
X3184Y2083D01*
X3182Y2083D01*
X3182Y2085D01*
X3180Y2085D01*
X3180Y2087D01*
X3178Y2087D01*
X3178Y2089D01*
X3176Y2089D01*
X3176Y2093D01*
X3174Y2093D01*
X3174Y2095D01*
X3172Y2095D01*
X3172Y2101D01*
X3170Y2101D01*
X3170Y2111D01*
X3168Y2111D01*
X3168Y2115D01*
X3170Y2115D01*
X3170Y2125D01*
X3172Y2125D01*
X3172Y2129D01*
X3174Y2129D01*
X3174Y2133D01*
X3176Y2133D01*
X3176Y2135D01*
X3178Y2135D01*
X3178Y2139D01*
X3180Y2139D01*
X3180Y2141D01*
X3184Y2141D01*
X3184Y2143D01*
X3186Y2143D01*
X3186Y2145D01*
X3190Y2145D01*
X3190Y2147D01*
X3194Y2147D01*
X3194Y2149D01*
X3202Y2149D01*
X3202Y2151D01*
X2954Y2151D01*
G37*
D02*
G36*
X1750Y1991D02*
X1750Y1989D01*
X1748Y1989D01*
X1748Y1985D01*
X1746Y1985D01*
X1746Y1983D01*
X1744Y1983D01*
X1744Y1981D01*
X1742Y1981D01*
X1742Y1977D01*
X1738Y1977D01*
X1738Y1975D01*
X1736Y1975D01*
X1736Y1973D01*
X1734Y1973D01*
X1734Y1953D01*
X1736Y1953D01*
X1736Y1951D01*
X1738Y1951D01*
X1738Y1949D01*
X1740Y1949D01*
X1740Y1947D01*
X1742Y1947D01*
X1742Y1945D01*
X1744Y1945D01*
X1744Y1943D01*
X1746Y1943D01*
X1746Y1941D01*
X1748Y1941D01*
X1748Y1937D01*
X1750Y1937D01*
X1750Y1933D01*
X1752Y1933D01*
X1752Y1927D01*
X1754Y1927D01*
X1754Y1919D01*
X1756Y1919D01*
X1756Y1907D01*
X1754Y1907D01*
X1754Y1897D01*
X1752Y1897D01*
X1752Y1893D01*
X1750Y1893D01*
X1750Y1889D01*
X1748Y1889D01*
X1748Y1885D01*
X1746Y1885D01*
X1746Y1883D01*
X1744Y1883D01*
X1744Y1881D01*
X1742Y1881D01*
X1742Y1877D01*
X1738Y1877D01*
X1738Y1875D01*
X1736Y1875D01*
X1736Y1873D01*
X1734Y1873D01*
X1734Y1871D01*
X1730Y1871D01*
X1730Y1869D01*
X1726Y1869D01*
X1726Y1867D01*
X1720Y1867D01*
X1720Y1865D01*
X1710Y1865D01*
X1710Y1863D01*
X1832Y1863D01*
X1832Y1869D01*
X1830Y1869D01*
X1830Y1875D01*
X1828Y1875D01*
X1828Y1881D01*
X1826Y1881D01*
X1826Y1887D01*
X1824Y1887D01*
X1824Y1893D01*
X1822Y1893D01*
X1822Y1899D01*
X1820Y1899D01*
X1820Y1905D01*
X1818Y1905D01*
X1818Y1911D01*
X1816Y1911D01*
X1816Y1917D01*
X1814Y1917D01*
X1814Y1923D01*
X1812Y1923D01*
X1812Y1929D01*
X1810Y1929D01*
X1810Y1935D01*
X1808Y1935D01*
X1808Y1941D01*
X1806Y1941D01*
X1806Y1947D01*
X1804Y1947D01*
X1804Y1953D01*
X1802Y1953D01*
X1802Y1959D01*
X1800Y1959D01*
X1800Y1965D01*
X1798Y1965D01*
X1798Y1971D01*
X1796Y1971D01*
X1796Y1977D01*
X1794Y1977D01*
X1794Y1983D01*
X1792Y1983D01*
X1792Y1989D01*
X1790Y1989D01*
X1790Y1991D01*
X1750Y1991D01*
G37*
D02*
G36*
X40Y1863D02*
X40Y1861D01*
X1834Y1861D01*
X1834Y1863D01*
X40Y1863D01*
G37*
D02*
G36*
X40Y1863D02*
X40Y1861D01*
X1834Y1861D01*
X1834Y1863D01*
X40Y1863D01*
G37*
D02*
G36*
X40Y1861D02*
X40Y1765D01*
X198Y1765D01*
X198Y1767D01*
X192Y1767D01*
X192Y1769D01*
X186Y1769D01*
X186Y1771D01*
X182Y1771D01*
X182Y1773D01*
X180Y1773D01*
X180Y1775D01*
X176Y1775D01*
X176Y1777D01*
X174Y1777D01*
X174Y1779D01*
X172Y1779D01*
X172Y1781D01*
X170Y1781D01*
X170Y1785D01*
X168Y1785D01*
X168Y1787D01*
X166Y1787D01*
X166Y1791D01*
X164Y1791D01*
X164Y1793D01*
X162Y1793D01*
X162Y1801D01*
X160Y1801D01*
X160Y1825D01*
X162Y1825D01*
X162Y1831D01*
X164Y1831D01*
X164Y1835D01*
X166Y1835D01*
X166Y1839D01*
X168Y1839D01*
X168Y1841D01*
X170Y1841D01*
X170Y1843D01*
X172Y1843D01*
X172Y1847D01*
X176Y1847D01*
X176Y1849D01*
X178Y1849D01*
X178Y1851D01*
X180Y1851D01*
X180Y1853D01*
X184Y1853D01*
X184Y1855D01*
X188Y1855D01*
X188Y1857D01*
X194Y1857D01*
X194Y1859D01*
X202Y1859D01*
X202Y1861D01*
X40Y1861D01*
G37*
D02*
G36*
X210Y1861D02*
X210Y1859D01*
X220Y1859D01*
X220Y1857D01*
X226Y1857D01*
X226Y1855D01*
X230Y1855D01*
X230Y1853D01*
X234Y1853D01*
X234Y1851D01*
X236Y1851D01*
X236Y1849D01*
X238Y1849D01*
X238Y1847D01*
X240Y1847D01*
X240Y1845D01*
X242Y1845D01*
X242Y1843D01*
X244Y1843D01*
X244Y1841D01*
X246Y1841D01*
X246Y1837D01*
X248Y1837D01*
X248Y1833D01*
X250Y1833D01*
X250Y1829D01*
X252Y1829D01*
X252Y1823D01*
X254Y1823D01*
X254Y1803D01*
X252Y1803D01*
X252Y1797D01*
X250Y1797D01*
X250Y1791D01*
X248Y1791D01*
X248Y1789D01*
X246Y1789D01*
X246Y1785D01*
X244Y1785D01*
X244Y1783D01*
X242Y1783D01*
X242Y1781D01*
X240Y1781D01*
X240Y1779D01*
X238Y1779D01*
X238Y1777D01*
X236Y1777D01*
X236Y1775D01*
X234Y1775D01*
X234Y1773D01*
X230Y1773D01*
X230Y1771D01*
X226Y1771D01*
X226Y1769D01*
X222Y1769D01*
X222Y1767D01*
X214Y1767D01*
X214Y1765D01*
X568Y1765D01*
X568Y1787D01*
X566Y1787D01*
X566Y1791D01*
X564Y1791D01*
X564Y1793D01*
X562Y1793D01*
X562Y1801D01*
X560Y1801D01*
X560Y1825D01*
X562Y1825D01*
X562Y1831D01*
X564Y1831D01*
X564Y1835D01*
X566Y1835D01*
X566Y1839D01*
X568Y1839D01*
X568Y1841D01*
X570Y1841D01*
X570Y1843D01*
X572Y1843D01*
X572Y1847D01*
X576Y1847D01*
X576Y1849D01*
X578Y1849D01*
X578Y1851D01*
X580Y1851D01*
X580Y1853D01*
X584Y1853D01*
X584Y1855D01*
X588Y1855D01*
X588Y1857D01*
X594Y1857D01*
X594Y1859D01*
X602Y1859D01*
X602Y1861D01*
X210Y1861D01*
G37*
D02*
G36*
X610Y1861D02*
X610Y1859D01*
X620Y1859D01*
X620Y1857D01*
X626Y1857D01*
X626Y1855D01*
X630Y1855D01*
X630Y1853D01*
X634Y1853D01*
X634Y1851D01*
X636Y1851D01*
X636Y1849D01*
X638Y1849D01*
X638Y1847D01*
X640Y1847D01*
X640Y1845D01*
X642Y1845D01*
X642Y1843D01*
X644Y1843D01*
X644Y1841D01*
X646Y1841D01*
X646Y1837D01*
X648Y1837D01*
X648Y1833D01*
X650Y1833D01*
X650Y1829D01*
X652Y1829D01*
X652Y1823D01*
X654Y1823D01*
X654Y1803D01*
X652Y1803D01*
X652Y1797D01*
X650Y1797D01*
X650Y1791D01*
X648Y1791D01*
X648Y1789D01*
X646Y1789D01*
X646Y1785D01*
X644Y1785D01*
X644Y1783D01*
X642Y1783D01*
X642Y1781D01*
X640Y1781D01*
X640Y1779D01*
X638Y1779D01*
X638Y1777D01*
X636Y1777D01*
X636Y1775D01*
X634Y1775D01*
X634Y1773D01*
X630Y1773D01*
X630Y1771D01*
X626Y1771D01*
X626Y1769D01*
X622Y1769D01*
X622Y1767D01*
X614Y1767D01*
X614Y1763D01*
X612Y1763D01*
X612Y1755D01*
X610Y1755D01*
X610Y1749D01*
X608Y1749D01*
X608Y1743D01*
X606Y1743D01*
X606Y1737D01*
X604Y1737D01*
X604Y1731D01*
X602Y1731D01*
X602Y1725D01*
X600Y1725D01*
X600Y1719D01*
X598Y1719D01*
X598Y1713D01*
X596Y1713D01*
X596Y1707D01*
X594Y1707D01*
X594Y1701D01*
X592Y1701D01*
X592Y1695D01*
X590Y1695D01*
X590Y1689D01*
X588Y1689D01*
X588Y1683D01*
X586Y1683D01*
X586Y1677D01*
X584Y1677D01*
X584Y1671D01*
X582Y1671D01*
X582Y1665D01*
X580Y1665D01*
X580Y1659D01*
X578Y1659D01*
X578Y1653D01*
X576Y1653D01*
X576Y1647D01*
X574Y1647D01*
X574Y1641D01*
X572Y1641D01*
X572Y1635D01*
X570Y1635D01*
X570Y1629D01*
X568Y1629D01*
X568Y1623D01*
X566Y1623D01*
X566Y1617D01*
X564Y1617D01*
X564Y1611D01*
X562Y1611D01*
X562Y1605D01*
X560Y1605D01*
X560Y1599D01*
X558Y1599D01*
X558Y1593D01*
X556Y1593D01*
X556Y1587D01*
X554Y1587D01*
X554Y1579D01*
X552Y1579D01*
X552Y1573D01*
X550Y1573D01*
X550Y1567D01*
X548Y1567D01*
X548Y1561D01*
X910Y1561D01*
X910Y1559D01*
X920Y1559D01*
X920Y1557D01*
X926Y1557D01*
X926Y1555D01*
X930Y1555D01*
X930Y1553D01*
X934Y1553D01*
X934Y1551D01*
X936Y1551D01*
X936Y1549D01*
X938Y1549D01*
X938Y1547D01*
X940Y1547D01*
X940Y1545D01*
X942Y1545D01*
X942Y1543D01*
X944Y1543D01*
X944Y1541D01*
X946Y1541D01*
X946Y1537D01*
X948Y1537D01*
X948Y1533D01*
X950Y1533D01*
X950Y1529D01*
X952Y1529D01*
X952Y1523D01*
X954Y1523D01*
X954Y1503D01*
X952Y1503D01*
X952Y1497D01*
X950Y1497D01*
X950Y1491D01*
X948Y1491D01*
X948Y1489D01*
X946Y1489D01*
X946Y1485D01*
X944Y1485D01*
X944Y1483D01*
X942Y1483D01*
X942Y1481D01*
X940Y1481D01*
X940Y1479D01*
X938Y1479D01*
X938Y1477D01*
X936Y1477D01*
X936Y1475D01*
X934Y1475D01*
X934Y1473D01*
X930Y1473D01*
X930Y1453D01*
X934Y1453D01*
X934Y1451D01*
X936Y1451D01*
X936Y1449D01*
X938Y1449D01*
X938Y1447D01*
X940Y1447D01*
X940Y1445D01*
X942Y1445D01*
X942Y1443D01*
X944Y1443D01*
X944Y1441D01*
X946Y1441D01*
X946Y1437D01*
X948Y1437D01*
X948Y1435D01*
X1402Y1435D01*
X1402Y1437D01*
X1404Y1437D01*
X1404Y1439D01*
X1408Y1439D01*
X1408Y1441D01*
X1412Y1441D01*
X1412Y1443D01*
X1414Y1443D01*
X1414Y1445D01*
X1418Y1445D01*
X1418Y1447D01*
X1422Y1447D01*
X1422Y1449D01*
X1424Y1449D01*
X1424Y1451D01*
X1428Y1451D01*
X1428Y1453D01*
X1432Y1453D01*
X1432Y1455D01*
X1434Y1455D01*
X1434Y1457D01*
X1438Y1457D01*
X1438Y1459D01*
X1442Y1459D01*
X1442Y1461D01*
X1444Y1461D01*
X1444Y1463D01*
X1448Y1463D01*
X1448Y1465D01*
X1452Y1465D01*
X1452Y1467D01*
X1454Y1467D01*
X1454Y1469D01*
X1458Y1469D01*
X1458Y1471D01*
X1462Y1471D01*
X1462Y1473D01*
X1464Y1473D01*
X1464Y1475D01*
X1468Y1475D01*
X1468Y1477D01*
X1472Y1477D01*
X1472Y1479D01*
X1474Y1479D01*
X1474Y1481D01*
X1478Y1481D01*
X1478Y1483D01*
X1482Y1483D01*
X1482Y1485D01*
X1484Y1485D01*
X1484Y1487D01*
X1488Y1487D01*
X1488Y1489D01*
X1492Y1489D01*
X1492Y1491D01*
X1494Y1491D01*
X1494Y1493D01*
X1498Y1493D01*
X1498Y1495D01*
X1502Y1495D01*
X1502Y1497D01*
X1504Y1497D01*
X1504Y1499D01*
X1508Y1499D01*
X1508Y1501D01*
X1512Y1501D01*
X1512Y1503D01*
X1516Y1503D01*
X1516Y1505D01*
X1518Y1505D01*
X1518Y1507D01*
X1522Y1507D01*
X1522Y1509D01*
X1526Y1509D01*
X1526Y1511D01*
X1528Y1511D01*
X1528Y1513D01*
X1532Y1513D01*
X1532Y1515D01*
X1536Y1515D01*
X1536Y1517D01*
X1538Y1517D01*
X1538Y1519D01*
X1542Y1519D01*
X1542Y1521D01*
X1546Y1521D01*
X1546Y1523D01*
X1548Y1523D01*
X1548Y1525D01*
X1552Y1525D01*
X1552Y1527D01*
X1556Y1527D01*
X1556Y1529D01*
X1558Y1529D01*
X1558Y1531D01*
X1562Y1531D01*
X1562Y1533D01*
X1566Y1533D01*
X1566Y1535D01*
X1568Y1535D01*
X1568Y1537D01*
X1572Y1537D01*
X1572Y1539D01*
X1576Y1539D01*
X1576Y1541D01*
X1578Y1541D01*
X1578Y1543D01*
X1582Y1543D01*
X1582Y1545D01*
X1586Y1545D01*
X1586Y1547D01*
X1588Y1547D01*
X1588Y1549D01*
X1592Y1549D01*
X1592Y1551D01*
X1596Y1551D01*
X1596Y1553D01*
X1598Y1553D01*
X1598Y1555D01*
X1602Y1555D01*
X1602Y1557D01*
X1606Y1557D01*
X1606Y1559D01*
X1608Y1559D01*
X1608Y1561D01*
X1612Y1561D01*
X1612Y1563D01*
X1616Y1563D01*
X1616Y1565D01*
X1618Y1565D01*
X1618Y1567D01*
X1622Y1567D01*
X1622Y1569D01*
X1626Y1569D01*
X1626Y1571D01*
X1628Y1571D01*
X1628Y1573D01*
X1632Y1573D01*
X1632Y1575D01*
X1636Y1575D01*
X1636Y1577D01*
X1638Y1577D01*
X1638Y1579D01*
X1642Y1579D01*
X1642Y1581D01*
X1646Y1581D01*
X1646Y1583D01*
X1648Y1583D01*
X1648Y1585D01*
X1652Y1585D01*
X1652Y1587D01*
X1656Y1587D01*
X1656Y1589D01*
X1658Y1589D01*
X1658Y1591D01*
X1662Y1591D01*
X1662Y1593D01*
X1666Y1593D01*
X1666Y1595D01*
X1670Y1595D01*
X1670Y1597D01*
X1672Y1597D01*
X1672Y1599D01*
X1676Y1599D01*
X1676Y1601D01*
X1680Y1601D01*
X1680Y1603D01*
X1682Y1603D01*
X1682Y1605D01*
X1686Y1605D01*
X1686Y1607D01*
X1690Y1607D01*
X1690Y1609D01*
X1692Y1609D01*
X1692Y1611D01*
X1696Y1611D01*
X1696Y1613D01*
X1700Y1613D01*
X1700Y1615D01*
X1702Y1615D01*
X1702Y1617D01*
X1706Y1617D01*
X1706Y1619D01*
X1710Y1619D01*
X1710Y1621D01*
X1712Y1621D01*
X1712Y1623D01*
X1716Y1623D01*
X1716Y1625D01*
X1720Y1625D01*
X1720Y1627D01*
X1722Y1627D01*
X1722Y1629D01*
X1726Y1629D01*
X1726Y1631D01*
X1730Y1631D01*
X1730Y1633D01*
X1732Y1633D01*
X1732Y1635D01*
X1736Y1635D01*
X1736Y1637D01*
X1740Y1637D01*
X1740Y1639D01*
X1742Y1639D01*
X1742Y1641D01*
X1746Y1641D01*
X1746Y1643D01*
X1750Y1643D01*
X1750Y1645D01*
X1752Y1645D01*
X1752Y1647D01*
X1756Y1647D01*
X1756Y1649D01*
X1760Y1649D01*
X1760Y1651D01*
X1762Y1651D01*
X1762Y1653D01*
X1766Y1653D01*
X1766Y1655D01*
X1770Y1655D01*
X1770Y1657D01*
X1772Y1657D01*
X1772Y1659D01*
X1776Y1659D01*
X1776Y1661D01*
X1780Y1661D01*
X1780Y1663D01*
X1782Y1663D01*
X1782Y1665D01*
X1786Y1665D01*
X1786Y1667D01*
X1790Y1667D01*
X1790Y1669D01*
X1792Y1669D01*
X1792Y1671D01*
X1796Y1671D01*
X1796Y1673D01*
X1800Y1673D01*
X1800Y1675D01*
X1802Y1675D01*
X1802Y1677D01*
X1806Y1677D01*
X1806Y1679D01*
X1810Y1679D01*
X1810Y1681D01*
X1812Y1681D01*
X1812Y1683D01*
X1816Y1683D01*
X1816Y1685D01*
X1820Y1685D01*
X1820Y1687D01*
X1824Y1687D01*
X1824Y1689D01*
X1826Y1689D01*
X1826Y1691D01*
X1830Y1691D01*
X1830Y1693D01*
X1834Y1693D01*
X1834Y1695D01*
X1836Y1695D01*
X1836Y1697D01*
X1840Y1697D01*
X1840Y1699D01*
X1844Y1699D01*
X1844Y1701D01*
X1846Y1701D01*
X1846Y1703D01*
X1850Y1703D01*
X1850Y1705D01*
X1854Y1705D01*
X1854Y1707D01*
X1856Y1707D01*
X1856Y1709D01*
X1860Y1709D01*
X1860Y1711D01*
X1864Y1711D01*
X1864Y1713D01*
X1866Y1713D01*
X1866Y1715D01*
X1870Y1715D01*
X1870Y1717D01*
X1874Y1717D01*
X1874Y1743D01*
X1872Y1743D01*
X1872Y1749D01*
X1870Y1749D01*
X1870Y1755D01*
X1868Y1755D01*
X1868Y1761D01*
X1866Y1761D01*
X1866Y1767D01*
X1864Y1767D01*
X1864Y1773D01*
X1862Y1773D01*
X1862Y1779D01*
X1860Y1779D01*
X1860Y1785D01*
X1858Y1785D01*
X1858Y1791D01*
X1856Y1791D01*
X1856Y1797D01*
X1854Y1797D01*
X1854Y1803D01*
X1852Y1803D01*
X1852Y1809D01*
X1850Y1809D01*
X1850Y1815D01*
X1848Y1815D01*
X1848Y1821D01*
X1846Y1821D01*
X1846Y1827D01*
X1844Y1827D01*
X1844Y1833D01*
X1842Y1833D01*
X1842Y1839D01*
X1840Y1839D01*
X1840Y1845D01*
X1838Y1845D01*
X1838Y1851D01*
X1836Y1851D01*
X1836Y1857D01*
X1834Y1857D01*
X1834Y1861D01*
X610Y1861D01*
G37*
D02*
G36*
X40Y1765D02*
X40Y1763D01*
X568Y1763D01*
X568Y1765D01*
X40Y1765D01*
G37*
D02*
G36*
X40Y1765D02*
X40Y1763D01*
X568Y1763D01*
X568Y1765D01*
X40Y1765D01*
G37*
D02*
G36*
X40Y1763D02*
X40Y1561D01*
X318Y1561D01*
X318Y1559D01*
X326Y1559D01*
X326Y1557D01*
X330Y1557D01*
X330Y1555D01*
X332Y1555D01*
X332Y1553D01*
X336Y1553D01*
X336Y1551D01*
X338Y1551D01*
X338Y1549D01*
X340Y1549D01*
X340Y1547D01*
X342Y1547D01*
X342Y1545D01*
X344Y1545D01*
X344Y1543D01*
X346Y1543D01*
X346Y1541D01*
X348Y1541D01*
X348Y1537D01*
X350Y1537D01*
X350Y1533D01*
X352Y1533D01*
X352Y1527D01*
X354Y1527D01*
X354Y1519D01*
X356Y1519D01*
X356Y1507D01*
X354Y1507D01*
X354Y1497D01*
X352Y1497D01*
X352Y1493D01*
X350Y1493D01*
X350Y1489D01*
X348Y1489D01*
X348Y1485D01*
X346Y1485D01*
X346Y1483D01*
X344Y1483D01*
X344Y1481D01*
X342Y1481D01*
X342Y1477D01*
X338Y1477D01*
X338Y1475D01*
X336Y1475D01*
X336Y1473D01*
X334Y1473D01*
X334Y1461D01*
X356Y1461D01*
X356Y1463D01*
X360Y1463D01*
X360Y1465D01*
X364Y1465D01*
X364Y1467D01*
X368Y1467D01*
X368Y1469D01*
X372Y1469D01*
X372Y1471D01*
X376Y1471D01*
X376Y1473D01*
X380Y1473D01*
X380Y1475D01*
X384Y1475D01*
X384Y1477D01*
X388Y1477D01*
X388Y1479D01*
X392Y1479D01*
X392Y1481D01*
X396Y1481D01*
X396Y1483D01*
X400Y1483D01*
X400Y1485D01*
X404Y1485D01*
X404Y1487D01*
X408Y1487D01*
X408Y1489D01*
X412Y1489D01*
X412Y1491D01*
X416Y1491D01*
X416Y1493D01*
X420Y1493D01*
X420Y1495D01*
X424Y1495D01*
X424Y1497D01*
X428Y1497D01*
X428Y1499D01*
X432Y1499D01*
X432Y1501D01*
X436Y1501D01*
X436Y1503D01*
X440Y1503D01*
X440Y1505D01*
X444Y1505D01*
X444Y1507D01*
X448Y1507D01*
X448Y1509D01*
X452Y1509D01*
X452Y1511D01*
X454Y1511D01*
X454Y1513D01*
X458Y1513D01*
X458Y1515D01*
X462Y1515D01*
X462Y1517D01*
X466Y1517D01*
X466Y1519D01*
X470Y1519D01*
X470Y1521D01*
X474Y1521D01*
X474Y1523D01*
X478Y1523D01*
X478Y1525D01*
X482Y1525D01*
X482Y1527D01*
X486Y1527D01*
X486Y1529D01*
X490Y1529D01*
X490Y1533D01*
X492Y1533D01*
X492Y1539D01*
X494Y1539D01*
X494Y1545D01*
X496Y1545D01*
X496Y1551D01*
X498Y1551D01*
X498Y1557D01*
X500Y1557D01*
X500Y1563D01*
X502Y1563D01*
X502Y1569D01*
X504Y1569D01*
X504Y1575D01*
X506Y1575D01*
X506Y1581D01*
X508Y1581D01*
X508Y1587D01*
X510Y1587D01*
X510Y1593D01*
X512Y1593D01*
X512Y1599D01*
X514Y1599D01*
X514Y1605D01*
X516Y1605D01*
X516Y1611D01*
X518Y1611D01*
X518Y1617D01*
X520Y1617D01*
X520Y1623D01*
X522Y1623D01*
X522Y1629D01*
X524Y1629D01*
X524Y1635D01*
X526Y1635D01*
X526Y1641D01*
X528Y1641D01*
X528Y1647D01*
X530Y1647D01*
X530Y1653D01*
X532Y1653D01*
X532Y1659D01*
X534Y1659D01*
X534Y1665D01*
X536Y1665D01*
X536Y1671D01*
X538Y1671D01*
X538Y1679D01*
X540Y1679D01*
X540Y1685D01*
X542Y1685D01*
X542Y1691D01*
X544Y1691D01*
X544Y1697D01*
X546Y1697D01*
X546Y1703D01*
X548Y1703D01*
X548Y1709D01*
X550Y1709D01*
X550Y1715D01*
X552Y1715D01*
X552Y1721D01*
X554Y1721D01*
X554Y1727D01*
X556Y1727D01*
X556Y1733D01*
X558Y1733D01*
X558Y1739D01*
X560Y1739D01*
X560Y1745D01*
X562Y1745D01*
X562Y1751D01*
X564Y1751D01*
X564Y1757D01*
X566Y1757D01*
X566Y1763D01*
X40Y1763D01*
G37*
D02*
G36*
X2050Y1705D02*
X2050Y1703D01*
X2060Y1703D01*
X2060Y1701D01*
X2068Y1701D01*
X2068Y1699D01*
X2078Y1699D01*
X2078Y1697D01*
X2088Y1697D01*
X2088Y1695D01*
X2112Y1695D01*
X2112Y1697D01*
X2114Y1697D01*
X2114Y1699D01*
X2118Y1699D01*
X2118Y1701D01*
X2122Y1701D01*
X2122Y1703D01*
X2128Y1703D01*
X2128Y1705D01*
X2050Y1705D01*
G37*
D02*
G36*
X2150Y1705D02*
X2150Y1703D01*
X2156Y1703D01*
X2156Y1701D01*
X2160Y1701D01*
X2160Y1699D01*
X2164Y1699D01*
X2164Y1697D01*
X2166Y1697D01*
X2166Y1695D01*
X2168Y1695D01*
X2168Y1693D01*
X2170Y1693D01*
X2170Y1691D01*
X2172Y1691D01*
X2172Y1689D01*
X2174Y1689D01*
X2174Y1685D01*
X2176Y1685D01*
X2176Y1681D01*
X2178Y1681D01*
X2178Y1677D01*
X2198Y1677D01*
X2198Y1679D01*
X2200Y1679D01*
X2200Y1683D01*
X2202Y1683D01*
X2202Y1687D01*
X2204Y1687D01*
X2204Y1689D01*
X2206Y1689D01*
X2206Y1691D01*
X2208Y1691D01*
X2208Y1693D01*
X2210Y1693D01*
X2210Y1695D01*
X2212Y1695D01*
X2212Y1697D01*
X2214Y1697D01*
X2214Y1699D01*
X2218Y1699D01*
X2218Y1701D01*
X2222Y1701D01*
X2222Y1703D01*
X2228Y1703D01*
X2228Y1705D01*
X2150Y1705D01*
G37*
D02*
G36*
X2250Y1705D02*
X2250Y1703D01*
X2256Y1703D01*
X2256Y1701D01*
X2260Y1701D01*
X2260Y1699D01*
X2264Y1699D01*
X2264Y1697D01*
X2266Y1697D01*
X2266Y1695D01*
X2268Y1695D01*
X2268Y1693D01*
X2270Y1693D01*
X2270Y1691D01*
X2272Y1691D01*
X2272Y1689D01*
X2274Y1689D01*
X2274Y1685D01*
X2276Y1685D01*
X2276Y1681D01*
X2278Y1681D01*
X2278Y1677D01*
X2298Y1677D01*
X2298Y1679D01*
X2300Y1679D01*
X2300Y1683D01*
X2302Y1683D01*
X2302Y1687D01*
X2304Y1687D01*
X2304Y1689D01*
X2306Y1689D01*
X2306Y1691D01*
X2308Y1691D01*
X2308Y1693D01*
X2310Y1693D01*
X2310Y1695D01*
X2312Y1695D01*
X2312Y1697D01*
X2314Y1697D01*
X2314Y1699D01*
X2318Y1699D01*
X2318Y1701D01*
X2322Y1701D01*
X2322Y1703D01*
X2328Y1703D01*
X2328Y1705D01*
X2250Y1705D01*
G37*
D02*
G36*
X2350Y1705D02*
X2350Y1703D01*
X2356Y1703D01*
X2356Y1701D01*
X2360Y1701D01*
X2360Y1699D01*
X2364Y1699D01*
X2364Y1697D01*
X2366Y1697D01*
X2366Y1695D01*
X2368Y1695D01*
X2368Y1693D01*
X2370Y1693D01*
X2370Y1691D01*
X2372Y1691D01*
X2372Y1689D01*
X2374Y1689D01*
X2374Y1685D01*
X2376Y1685D01*
X2376Y1681D01*
X2378Y1681D01*
X2378Y1677D01*
X2398Y1677D01*
X2398Y1679D01*
X2400Y1679D01*
X2400Y1683D01*
X2402Y1683D01*
X2402Y1687D01*
X2404Y1687D01*
X2404Y1689D01*
X2406Y1689D01*
X2406Y1691D01*
X2408Y1691D01*
X2408Y1693D01*
X2410Y1693D01*
X2410Y1695D01*
X2412Y1695D01*
X2412Y1697D01*
X2414Y1697D01*
X2414Y1699D01*
X2418Y1699D01*
X2418Y1701D01*
X2422Y1701D01*
X2422Y1703D01*
X2428Y1703D01*
X2428Y1705D01*
X2350Y1705D01*
G37*
D02*
G36*
X2450Y1705D02*
X2450Y1703D01*
X2456Y1703D01*
X2456Y1701D01*
X2460Y1701D01*
X2460Y1699D01*
X2464Y1699D01*
X2464Y1697D01*
X2466Y1697D01*
X2466Y1695D01*
X2468Y1695D01*
X2468Y1693D01*
X2470Y1693D01*
X2470Y1691D01*
X2472Y1691D01*
X2472Y1689D01*
X2474Y1689D01*
X2474Y1685D01*
X2476Y1685D01*
X2476Y1681D01*
X2478Y1681D01*
X2478Y1677D01*
X2498Y1677D01*
X2498Y1679D01*
X2500Y1679D01*
X2500Y1683D01*
X2502Y1683D01*
X2502Y1687D01*
X2504Y1687D01*
X2504Y1689D01*
X2506Y1689D01*
X2506Y1691D01*
X2508Y1691D01*
X2508Y1693D01*
X2510Y1693D01*
X2510Y1695D01*
X2512Y1695D01*
X2512Y1697D01*
X2514Y1697D01*
X2514Y1699D01*
X2518Y1699D01*
X2518Y1701D01*
X2522Y1701D01*
X2522Y1703D01*
X2528Y1703D01*
X2528Y1705D01*
X2450Y1705D01*
G37*
D02*
G36*
X2550Y1705D02*
X2550Y1703D01*
X2556Y1703D01*
X2556Y1701D01*
X2560Y1701D01*
X2560Y1699D01*
X2564Y1699D01*
X2564Y1697D01*
X2566Y1697D01*
X2566Y1695D01*
X2568Y1695D01*
X2568Y1693D01*
X2570Y1693D01*
X2570Y1691D01*
X2572Y1691D01*
X2572Y1689D01*
X2574Y1689D01*
X2574Y1685D01*
X2576Y1685D01*
X2576Y1681D01*
X2578Y1681D01*
X2578Y1677D01*
X2598Y1677D01*
X2598Y1679D01*
X2600Y1679D01*
X2600Y1683D01*
X2602Y1683D01*
X2602Y1687D01*
X2604Y1687D01*
X2604Y1689D01*
X2606Y1689D01*
X2606Y1691D01*
X2608Y1691D01*
X2608Y1693D01*
X2610Y1693D01*
X2610Y1695D01*
X2612Y1695D01*
X2612Y1697D01*
X2614Y1697D01*
X2614Y1699D01*
X2618Y1699D01*
X2618Y1701D01*
X2622Y1701D01*
X2622Y1703D01*
X2628Y1703D01*
X2628Y1705D01*
X2550Y1705D01*
G37*
D02*
G36*
X2650Y1705D02*
X2650Y1703D01*
X2656Y1703D01*
X2656Y1701D01*
X2660Y1701D01*
X2660Y1699D01*
X2664Y1699D01*
X2664Y1697D01*
X2666Y1697D01*
X2666Y1695D01*
X2668Y1695D01*
X2668Y1693D01*
X2670Y1693D01*
X2670Y1691D01*
X2672Y1691D01*
X2672Y1689D01*
X2674Y1689D01*
X2674Y1685D01*
X2676Y1685D01*
X2676Y1681D01*
X2678Y1681D01*
X2678Y1677D01*
X2698Y1677D01*
X2698Y1679D01*
X2700Y1679D01*
X2700Y1683D01*
X2702Y1683D01*
X2702Y1687D01*
X2704Y1687D01*
X2704Y1689D01*
X2706Y1689D01*
X2706Y1691D01*
X2708Y1691D01*
X2708Y1693D01*
X2710Y1693D01*
X2710Y1695D01*
X2712Y1695D01*
X2712Y1697D01*
X2714Y1697D01*
X2714Y1699D01*
X2718Y1699D01*
X2718Y1701D01*
X2722Y1701D01*
X2722Y1703D01*
X2728Y1703D01*
X2728Y1705D01*
X2650Y1705D01*
G37*
D02*
G36*
X2750Y1705D02*
X2750Y1703D01*
X2756Y1703D01*
X2756Y1701D01*
X2760Y1701D01*
X2760Y1699D01*
X2764Y1699D01*
X2764Y1697D01*
X2766Y1697D01*
X2766Y1695D01*
X2768Y1695D01*
X2768Y1693D01*
X2770Y1693D01*
X2770Y1691D01*
X2772Y1691D01*
X2772Y1689D01*
X2774Y1689D01*
X2774Y1685D01*
X2776Y1685D01*
X2776Y1681D01*
X2778Y1681D01*
X2778Y1677D01*
X2798Y1677D01*
X2798Y1679D01*
X2800Y1679D01*
X2800Y1683D01*
X2802Y1683D01*
X2802Y1687D01*
X2804Y1687D01*
X2804Y1689D01*
X2806Y1689D01*
X2806Y1691D01*
X2808Y1691D01*
X2808Y1693D01*
X2810Y1693D01*
X2810Y1695D01*
X2812Y1695D01*
X2812Y1697D01*
X2814Y1697D01*
X2814Y1699D01*
X2818Y1699D01*
X2818Y1701D01*
X2822Y1701D01*
X2822Y1703D01*
X2828Y1703D01*
X2828Y1705D01*
X2750Y1705D01*
G37*
D02*
G36*
X2962Y1705D02*
X2962Y1699D01*
X2964Y1699D01*
X2964Y1697D01*
X2966Y1697D01*
X2966Y1695D01*
X2968Y1695D01*
X2968Y1693D01*
X2970Y1693D01*
X2970Y1691D01*
X2972Y1691D01*
X2972Y1689D01*
X2974Y1689D01*
X2974Y1685D01*
X2976Y1685D01*
X2976Y1681D01*
X2978Y1681D01*
X2978Y1677D01*
X2998Y1677D01*
X2998Y1679D01*
X3000Y1679D01*
X3000Y1683D01*
X3002Y1683D01*
X3002Y1687D01*
X3004Y1687D01*
X3004Y1689D01*
X3006Y1689D01*
X3006Y1691D01*
X3008Y1691D01*
X3008Y1693D01*
X3010Y1693D01*
X3010Y1695D01*
X3012Y1695D01*
X3012Y1697D01*
X3014Y1697D01*
X3014Y1699D01*
X3018Y1699D01*
X3018Y1701D01*
X3022Y1701D01*
X3022Y1703D01*
X3028Y1703D01*
X3028Y1705D01*
X2962Y1705D01*
G37*
D02*
G36*
X3050Y1705D02*
X3050Y1703D01*
X3056Y1703D01*
X3056Y1701D01*
X3060Y1701D01*
X3060Y1699D01*
X3064Y1699D01*
X3064Y1697D01*
X3066Y1697D01*
X3066Y1695D01*
X3068Y1695D01*
X3068Y1693D01*
X3070Y1693D01*
X3070Y1691D01*
X3072Y1691D01*
X3072Y1689D01*
X3074Y1689D01*
X3074Y1685D01*
X3076Y1685D01*
X3076Y1681D01*
X3078Y1681D01*
X3078Y1677D01*
X3098Y1677D01*
X3098Y1679D01*
X3100Y1679D01*
X3100Y1683D01*
X3102Y1683D01*
X3102Y1687D01*
X3104Y1687D01*
X3104Y1689D01*
X3106Y1689D01*
X3106Y1691D01*
X3108Y1691D01*
X3108Y1693D01*
X3110Y1693D01*
X3110Y1695D01*
X3112Y1695D01*
X3112Y1697D01*
X3114Y1697D01*
X3114Y1699D01*
X3118Y1699D01*
X3118Y1701D01*
X3122Y1701D01*
X3122Y1703D01*
X3128Y1703D01*
X3128Y1705D01*
X3050Y1705D01*
G37*
D02*
G36*
X3150Y1705D02*
X3150Y1703D01*
X3156Y1703D01*
X3156Y1701D01*
X3160Y1701D01*
X3160Y1699D01*
X3164Y1699D01*
X3164Y1697D01*
X3166Y1697D01*
X3166Y1695D01*
X3168Y1695D01*
X3168Y1693D01*
X3170Y1693D01*
X3170Y1691D01*
X3172Y1691D01*
X3172Y1689D01*
X3174Y1689D01*
X3174Y1685D01*
X3176Y1685D01*
X3176Y1681D01*
X3178Y1681D01*
X3178Y1677D01*
X3198Y1677D01*
X3198Y1679D01*
X3200Y1679D01*
X3200Y1683D01*
X3202Y1683D01*
X3202Y1687D01*
X3204Y1687D01*
X3204Y1689D01*
X3206Y1689D01*
X3206Y1691D01*
X3208Y1691D01*
X3208Y1693D01*
X3210Y1693D01*
X3210Y1695D01*
X3212Y1695D01*
X3212Y1697D01*
X3214Y1697D01*
X3214Y1699D01*
X3218Y1699D01*
X3218Y1701D01*
X3222Y1701D01*
X3222Y1703D01*
X3228Y1703D01*
X3228Y1705D01*
X3150Y1705D01*
G37*
D02*
G36*
X3350Y1705D02*
X3350Y1703D01*
X3356Y1703D01*
X3356Y1701D01*
X3360Y1701D01*
X3360Y1699D01*
X3364Y1699D01*
X3364Y1697D01*
X3366Y1697D01*
X3366Y1695D01*
X3368Y1695D01*
X3368Y1693D01*
X3370Y1693D01*
X3370Y1691D01*
X3372Y1691D01*
X3372Y1689D01*
X3374Y1689D01*
X3374Y1685D01*
X3376Y1685D01*
X3376Y1681D01*
X3378Y1681D01*
X3378Y1677D01*
X3398Y1677D01*
X3398Y1679D01*
X3400Y1679D01*
X3400Y1683D01*
X3402Y1683D01*
X3402Y1687D01*
X3404Y1687D01*
X3404Y1689D01*
X3406Y1689D01*
X3406Y1691D01*
X3408Y1691D01*
X3408Y1693D01*
X3410Y1693D01*
X3410Y1695D01*
X3412Y1695D01*
X3412Y1697D01*
X3414Y1697D01*
X3414Y1699D01*
X3418Y1699D01*
X3418Y1701D01*
X3422Y1701D01*
X3422Y1703D01*
X3428Y1703D01*
X3428Y1705D01*
X3350Y1705D01*
G37*
D02*
G36*
X3450Y1705D02*
X3450Y1703D01*
X3456Y1703D01*
X3456Y1701D01*
X3460Y1701D01*
X3460Y1699D01*
X3464Y1699D01*
X3464Y1697D01*
X3466Y1697D01*
X3466Y1695D01*
X3468Y1695D01*
X3468Y1693D01*
X3470Y1693D01*
X3470Y1691D01*
X3472Y1691D01*
X3472Y1689D01*
X3474Y1689D01*
X3474Y1685D01*
X3476Y1685D01*
X3476Y1681D01*
X3478Y1681D01*
X3478Y1677D01*
X3498Y1677D01*
X3498Y1679D01*
X3500Y1679D01*
X3500Y1683D01*
X3502Y1683D01*
X3502Y1687D01*
X3504Y1687D01*
X3504Y1689D01*
X3506Y1689D01*
X3506Y1691D01*
X3508Y1691D01*
X3508Y1693D01*
X3510Y1693D01*
X3510Y1695D01*
X3512Y1695D01*
X3512Y1697D01*
X3514Y1697D01*
X3514Y1699D01*
X3518Y1699D01*
X3518Y1701D01*
X3522Y1701D01*
X3522Y1703D01*
X3528Y1703D01*
X3528Y1705D01*
X3450Y1705D01*
G37*
D02*
G36*
X3550Y1705D02*
X3550Y1703D01*
X3556Y1703D01*
X3556Y1701D01*
X3560Y1701D01*
X3560Y1699D01*
X3564Y1699D01*
X3564Y1697D01*
X3566Y1697D01*
X3566Y1695D01*
X3568Y1695D01*
X3568Y1693D01*
X3570Y1693D01*
X3570Y1691D01*
X3572Y1691D01*
X3572Y1689D01*
X3574Y1689D01*
X3574Y1685D01*
X3576Y1685D01*
X3576Y1681D01*
X3578Y1681D01*
X3578Y1677D01*
X3598Y1677D01*
X3598Y1679D01*
X3600Y1679D01*
X3600Y1683D01*
X3602Y1683D01*
X3602Y1687D01*
X3604Y1687D01*
X3604Y1689D01*
X3606Y1689D01*
X3606Y1691D01*
X3608Y1691D01*
X3608Y1693D01*
X3610Y1693D01*
X3610Y1695D01*
X3612Y1695D01*
X3612Y1697D01*
X3614Y1697D01*
X3614Y1699D01*
X3618Y1699D01*
X3618Y1701D01*
X3622Y1701D01*
X3622Y1703D01*
X3628Y1703D01*
X3628Y1705D01*
X3550Y1705D01*
G37*
D02*
G36*
X3672Y1691D02*
X3672Y1689D01*
X3674Y1689D01*
X3674Y1685D01*
X3676Y1685D01*
X3676Y1681D01*
X3678Y1681D01*
X3678Y1677D01*
X3680Y1677D01*
X3680Y1669D01*
X3682Y1669D01*
X3682Y1655D01*
X3680Y1655D01*
X3680Y1649D01*
X3678Y1649D01*
X3678Y1643D01*
X3676Y1643D01*
X3676Y1641D01*
X3674Y1641D01*
X3674Y1637D01*
X3672Y1637D01*
X3672Y1635D01*
X3670Y1635D01*
X3670Y1633D01*
X3668Y1633D01*
X3668Y1631D01*
X3666Y1631D01*
X3666Y1629D01*
X3664Y1629D01*
X3664Y1627D01*
X3660Y1627D01*
X3660Y1625D01*
X3656Y1625D01*
X3656Y1623D01*
X3652Y1623D01*
X3652Y1621D01*
X3642Y1621D01*
X3642Y1619D01*
X3710Y1619D01*
X3710Y1627D01*
X3712Y1627D01*
X3712Y1635D01*
X3714Y1635D01*
X3714Y1641D01*
X3716Y1641D01*
X3716Y1647D01*
X3718Y1647D01*
X3718Y1651D01*
X3720Y1651D01*
X3720Y1653D01*
X3722Y1653D01*
X3722Y1657D01*
X3724Y1657D01*
X3724Y1659D01*
X3726Y1659D01*
X3726Y1663D01*
X3728Y1663D01*
X3728Y1665D01*
X3730Y1665D01*
X3730Y1667D01*
X3732Y1667D01*
X3732Y1669D01*
X3734Y1669D01*
X3734Y1671D01*
X3736Y1671D01*
X3736Y1673D01*
X3738Y1673D01*
X3738Y1675D01*
X3742Y1675D01*
X3742Y1677D01*
X3744Y1677D01*
X3744Y1679D01*
X3748Y1679D01*
X3748Y1681D01*
X3750Y1681D01*
X3750Y1683D01*
X3754Y1683D01*
X3754Y1685D01*
X3758Y1685D01*
X3758Y1687D01*
X3764Y1687D01*
X3764Y1689D01*
X3772Y1689D01*
X3772Y1691D01*
X3672Y1691D01*
G37*
D02*
G36*
X1902Y1685D02*
X1902Y1683D01*
X1898Y1683D01*
X1898Y1681D01*
X1896Y1681D01*
X1896Y1679D01*
X1892Y1679D01*
X1892Y1677D01*
X1888Y1677D01*
X1888Y1675D01*
X1886Y1675D01*
X1886Y1673D01*
X1882Y1673D01*
X1882Y1671D01*
X1878Y1671D01*
X1878Y1669D01*
X1876Y1669D01*
X1876Y1667D01*
X1872Y1667D01*
X1872Y1665D01*
X1868Y1665D01*
X1868Y1663D01*
X1866Y1663D01*
X1866Y1661D01*
X1862Y1661D01*
X1862Y1659D01*
X1858Y1659D01*
X1858Y1657D01*
X1856Y1657D01*
X1856Y1655D01*
X1852Y1655D01*
X1852Y1653D01*
X1848Y1653D01*
X1848Y1651D01*
X1846Y1651D01*
X1846Y1649D01*
X1842Y1649D01*
X1842Y1647D01*
X1838Y1647D01*
X1838Y1645D01*
X1836Y1645D01*
X1836Y1643D01*
X1832Y1643D01*
X1832Y1641D01*
X1828Y1641D01*
X1828Y1639D01*
X1826Y1639D01*
X1826Y1637D01*
X1822Y1637D01*
X1822Y1635D01*
X1818Y1635D01*
X1818Y1633D01*
X1816Y1633D01*
X1816Y1631D01*
X1812Y1631D01*
X1812Y1629D01*
X1808Y1629D01*
X1808Y1627D01*
X1806Y1627D01*
X1806Y1625D01*
X1802Y1625D01*
X1802Y1623D01*
X1798Y1623D01*
X1798Y1621D01*
X1796Y1621D01*
X1796Y1619D01*
X1792Y1619D01*
X1792Y1617D01*
X1788Y1617D01*
X1788Y1615D01*
X1784Y1615D01*
X1784Y1613D01*
X1782Y1613D01*
X1782Y1611D01*
X1778Y1611D01*
X1778Y1609D01*
X1774Y1609D01*
X1774Y1607D01*
X1772Y1607D01*
X1772Y1605D01*
X1768Y1605D01*
X1768Y1603D01*
X1764Y1603D01*
X1764Y1601D01*
X1762Y1601D01*
X1762Y1599D01*
X1758Y1599D01*
X1758Y1597D01*
X1754Y1597D01*
X1754Y1595D01*
X1752Y1595D01*
X1752Y1593D01*
X1748Y1593D01*
X1748Y1591D01*
X1744Y1591D01*
X1744Y1589D01*
X1742Y1589D01*
X1742Y1587D01*
X1738Y1587D01*
X1738Y1585D01*
X1734Y1585D01*
X1734Y1583D01*
X1732Y1583D01*
X1732Y1581D01*
X1728Y1581D01*
X1728Y1579D01*
X1724Y1579D01*
X1724Y1577D01*
X1722Y1577D01*
X1722Y1575D01*
X1718Y1575D01*
X1718Y1573D01*
X1714Y1573D01*
X1714Y1571D01*
X1712Y1571D01*
X1712Y1569D01*
X1708Y1569D01*
X1708Y1567D01*
X1704Y1567D01*
X1704Y1565D01*
X1702Y1565D01*
X1702Y1563D01*
X1698Y1563D01*
X1698Y1561D01*
X1694Y1561D01*
X1694Y1559D01*
X1692Y1559D01*
X1692Y1557D01*
X1688Y1557D01*
X1688Y1555D01*
X1684Y1555D01*
X1684Y1553D01*
X1682Y1553D01*
X1682Y1551D01*
X1678Y1551D01*
X1678Y1549D01*
X1674Y1549D01*
X1674Y1547D01*
X1672Y1547D01*
X1672Y1545D01*
X1668Y1545D01*
X1668Y1543D01*
X1664Y1543D01*
X1664Y1541D01*
X1662Y1541D01*
X1662Y1539D01*
X1658Y1539D01*
X1658Y1537D01*
X1654Y1537D01*
X1654Y1535D01*
X1652Y1535D01*
X1652Y1533D01*
X1648Y1533D01*
X1648Y1531D01*
X1644Y1531D01*
X1644Y1529D01*
X1642Y1529D01*
X1642Y1527D01*
X1638Y1527D01*
X1638Y1525D01*
X1634Y1525D01*
X1634Y1523D01*
X1630Y1523D01*
X1630Y1521D01*
X1628Y1521D01*
X1628Y1519D01*
X1624Y1519D01*
X1624Y1517D01*
X1620Y1517D01*
X1620Y1515D01*
X1618Y1515D01*
X1618Y1513D01*
X1614Y1513D01*
X1614Y1511D01*
X1610Y1511D01*
X1610Y1509D01*
X1608Y1509D01*
X1608Y1507D01*
X1604Y1507D01*
X1604Y1505D01*
X1600Y1505D01*
X1600Y1503D01*
X1598Y1503D01*
X1598Y1501D01*
X1594Y1501D01*
X1594Y1499D01*
X1590Y1499D01*
X1590Y1497D01*
X1588Y1497D01*
X1588Y1495D01*
X1584Y1495D01*
X1584Y1493D01*
X1580Y1493D01*
X1580Y1491D01*
X1578Y1491D01*
X1578Y1489D01*
X1574Y1489D01*
X1574Y1487D01*
X1570Y1487D01*
X1570Y1485D01*
X1568Y1485D01*
X1568Y1483D01*
X1564Y1483D01*
X1564Y1481D01*
X1560Y1481D01*
X1560Y1479D01*
X1558Y1479D01*
X1558Y1477D01*
X1554Y1477D01*
X1554Y1475D01*
X1550Y1475D01*
X1550Y1473D01*
X1548Y1473D01*
X1548Y1471D01*
X1544Y1471D01*
X1544Y1469D01*
X1540Y1469D01*
X1540Y1467D01*
X1538Y1467D01*
X1538Y1465D01*
X1534Y1465D01*
X1534Y1463D01*
X1530Y1463D01*
X1530Y1461D01*
X1528Y1461D01*
X1528Y1459D01*
X1524Y1459D01*
X1524Y1457D01*
X1520Y1457D01*
X1520Y1455D01*
X1518Y1455D01*
X1518Y1453D01*
X1514Y1453D01*
X1514Y1451D01*
X1510Y1451D01*
X1510Y1449D01*
X1508Y1449D01*
X1508Y1447D01*
X1504Y1447D01*
X1504Y1445D01*
X1500Y1445D01*
X1500Y1443D01*
X1498Y1443D01*
X1498Y1441D01*
X1494Y1441D01*
X1494Y1439D01*
X1490Y1439D01*
X1490Y1437D01*
X1488Y1437D01*
X1488Y1435D01*
X1484Y1435D01*
X1484Y1433D01*
X1480Y1433D01*
X1480Y1431D01*
X1476Y1431D01*
X1476Y1429D01*
X1474Y1429D01*
X1474Y1427D01*
X1470Y1427D01*
X1470Y1425D01*
X1466Y1425D01*
X1466Y1423D01*
X1464Y1423D01*
X1464Y1421D01*
X1460Y1421D01*
X1460Y1419D01*
X1456Y1419D01*
X1456Y1417D01*
X1454Y1417D01*
X1454Y1415D01*
X1450Y1415D01*
X1450Y1413D01*
X1446Y1413D01*
X1446Y1411D01*
X1444Y1411D01*
X1444Y1409D01*
X1440Y1409D01*
X1440Y1407D01*
X1436Y1407D01*
X1436Y1405D01*
X1434Y1405D01*
X1434Y1403D01*
X1430Y1403D01*
X1430Y1401D01*
X1426Y1401D01*
X1426Y1399D01*
X1424Y1399D01*
X1424Y1397D01*
X1420Y1397D01*
X1420Y1395D01*
X1416Y1395D01*
X1416Y1393D01*
X1410Y1393D01*
X1410Y1391D01*
X948Y1391D01*
X948Y1389D01*
X946Y1389D01*
X946Y1385D01*
X944Y1385D01*
X944Y1383D01*
X942Y1383D01*
X942Y1381D01*
X940Y1381D01*
X940Y1379D01*
X938Y1379D01*
X938Y1377D01*
X936Y1377D01*
X936Y1375D01*
X934Y1375D01*
X934Y1373D01*
X930Y1373D01*
X930Y1371D01*
X926Y1371D01*
X926Y1369D01*
X922Y1369D01*
X922Y1367D01*
X914Y1367D01*
X914Y1365D01*
X1882Y1365D01*
X1882Y1415D01*
X1884Y1415D01*
X1884Y1423D01*
X1886Y1423D01*
X1886Y1427D01*
X1888Y1427D01*
X1888Y1429D01*
X1890Y1429D01*
X1890Y1431D01*
X1892Y1431D01*
X1892Y1433D01*
X1894Y1433D01*
X1894Y1435D01*
X1896Y1435D01*
X1896Y1437D01*
X1898Y1437D01*
X1898Y1439D01*
X1900Y1439D01*
X1900Y1441D01*
X1902Y1441D01*
X1902Y1443D01*
X1904Y1443D01*
X1904Y1445D01*
X1906Y1445D01*
X1906Y1449D01*
X1908Y1449D01*
X1908Y1451D01*
X1910Y1451D01*
X1910Y1453D01*
X1912Y1453D01*
X1912Y1455D01*
X1914Y1455D01*
X1914Y1457D01*
X1916Y1457D01*
X1916Y1459D01*
X1918Y1459D01*
X1918Y1461D01*
X1920Y1461D01*
X1920Y1463D01*
X1922Y1463D01*
X1922Y1465D01*
X1924Y1465D01*
X1924Y1467D01*
X1926Y1467D01*
X1926Y1469D01*
X1928Y1469D01*
X1928Y1471D01*
X1930Y1471D01*
X1930Y1473D01*
X1932Y1473D01*
X1932Y1475D01*
X1934Y1475D01*
X1934Y1477D01*
X1936Y1477D01*
X1936Y1481D01*
X1938Y1481D01*
X1938Y1483D01*
X1940Y1483D01*
X1940Y1485D01*
X1942Y1485D01*
X1942Y1487D01*
X1944Y1487D01*
X1944Y1489D01*
X1946Y1489D01*
X1946Y1491D01*
X1948Y1491D01*
X1948Y1493D01*
X1950Y1493D01*
X1950Y1495D01*
X1952Y1495D01*
X1952Y1497D01*
X1954Y1497D01*
X1954Y1499D01*
X1956Y1499D01*
X1956Y1501D01*
X1958Y1501D01*
X1958Y1503D01*
X1960Y1503D01*
X1960Y1505D01*
X1962Y1505D01*
X1962Y1507D01*
X1964Y1507D01*
X1964Y1509D01*
X1966Y1509D01*
X1966Y1513D01*
X1968Y1513D01*
X1968Y1515D01*
X1970Y1515D01*
X1970Y1517D01*
X1972Y1517D01*
X1972Y1519D01*
X1974Y1519D01*
X1974Y1521D01*
X1976Y1521D01*
X1976Y1523D01*
X1978Y1523D01*
X1978Y1525D01*
X1980Y1525D01*
X1980Y1527D01*
X1982Y1527D01*
X1982Y1529D01*
X1984Y1529D01*
X1984Y1531D01*
X1986Y1531D01*
X1986Y1533D01*
X1988Y1533D01*
X1988Y1535D01*
X1990Y1535D01*
X1990Y1537D01*
X1992Y1537D01*
X1992Y1539D01*
X1994Y1539D01*
X1994Y1541D01*
X1996Y1541D01*
X1996Y1545D01*
X1998Y1545D01*
X1998Y1547D01*
X2000Y1547D01*
X2000Y1549D01*
X2002Y1549D01*
X2002Y1551D01*
X2004Y1551D01*
X2004Y1553D01*
X2006Y1553D01*
X2006Y1555D01*
X2008Y1555D01*
X2008Y1557D01*
X2010Y1557D01*
X2010Y1559D01*
X2012Y1559D01*
X2012Y1561D01*
X2014Y1561D01*
X2014Y1563D01*
X2016Y1563D01*
X2016Y1565D01*
X2018Y1565D01*
X2018Y1567D01*
X2020Y1567D01*
X2020Y1569D01*
X2022Y1569D01*
X2022Y1571D01*
X2024Y1571D01*
X2024Y1573D01*
X2026Y1573D01*
X2026Y1575D01*
X2028Y1575D01*
X2028Y1579D01*
X2030Y1579D01*
X2030Y1581D01*
X2032Y1581D01*
X2032Y1583D01*
X2034Y1583D01*
X2034Y1585D01*
X2036Y1585D01*
X2036Y1587D01*
X2038Y1587D01*
X2038Y1589D01*
X2040Y1589D01*
X2040Y1591D01*
X2042Y1591D01*
X2042Y1593D01*
X2044Y1593D01*
X2044Y1595D01*
X2046Y1595D01*
X2046Y1597D01*
X2048Y1597D01*
X2048Y1599D01*
X2050Y1599D01*
X2050Y1601D01*
X2052Y1601D01*
X2052Y1603D01*
X2054Y1603D01*
X2054Y1605D01*
X2056Y1605D01*
X2056Y1607D01*
X2058Y1607D01*
X2058Y1611D01*
X2060Y1611D01*
X2060Y1613D01*
X2062Y1613D01*
X2062Y1615D01*
X2064Y1615D01*
X2064Y1617D01*
X2066Y1617D01*
X2066Y1619D01*
X2068Y1619D01*
X2068Y1621D01*
X2070Y1621D01*
X2070Y1623D01*
X2072Y1623D01*
X2072Y1625D01*
X2074Y1625D01*
X2074Y1627D01*
X2076Y1627D01*
X2076Y1629D01*
X2078Y1629D01*
X2078Y1631D01*
X2080Y1631D01*
X2080Y1633D01*
X2082Y1633D01*
X2082Y1653D01*
X2072Y1653D01*
X2072Y1655D01*
X2062Y1655D01*
X2062Y1657D01*
X2054Y1657D01*
X2054Y1659D01*
X2044Y1659D01*
X2044Y1661D01*
X2034Y1661D01*
X2034Y1663D01*
X2024Y1663D01*
X2024Y1665D01*
X2014Y1665D01*
X2014Y1667D01*
X2006Y1667D01*
X2006Y1669D01*
X1996Y1669D01*
X1996Y1671D01*
X1986Y1671D01*
X1986Y1673D01*
X1976Y1673D01*
X1976Y1675D01*
X1966Y1675D01*
X1966Y1677D01*
X1958Y1677D01*
X1958Y1679D01*
X1948Y1679D01*
X1948Y1681D01*
X1938Y1681D01*
X1938Y1683D01*
X1928Y1683D01*
X1928Y1685D01*
X1902Y1685D01*
G37*
D02*
G36*
X3378Y1649D02*
X3378Y1643D01*
X3376Y1643D01*
X3376Y1641D01*
X3374Y1641D01*
X3374Y1621D01*
X3376Y1621D01*
X3376Y1619D01*
X3434Y1619D01*
X3434Y1621D01*
X3426Y1621D01*
X3426Y1623D01*
X3420Y1623D01*
X3420Y1625D01*
X3416Y1625D01*
X3416Y1627D01*
X3414Y1627D01*
X3414Y1629D01*
X3412Y1629D01*
X3412Y1631D01*
X3408Y1631D01*
X3408Y1633D01*
X3406Y1633D01*
X3406Y1637D01*
X3404Y1637D01*
X3404Y1639D01*
X3402Y1639D01*
X3402Y1643D01*
X3400Y1643D01*
X3400Y1647D01*
X3398Y1647D01*
X3398Y1649D01*
X3378Y1649D01*
G37*
D02*
G36*
X3478Y1649D02*
X3478Y1643D01*
X3476Y1643D01*
X3476Y1641D01*
X3474Y1641D01*
X3474Y1637D01*
X3472Y1637D01*
X3472Y1635D01*
X3470Y1635D01*
X3470Y1633D01*
X3468Y1633D01*
X3468Y1631D01*
X3466Y1631D01*
X3466Y1629D01*
X3464Y1629D01*
X3464Y1627D01*
X3460Y1627D01*
X3460Y1625D01*
X3456Y1625D01*
X3456Y1623D01*
X3452Y1623D01*
X3452Y1621D01*
X3442Y1621D01*
X3442Y1619D01*
X3534Y1619D01*
X3534Y1621D01*
X3526Y1621D01*
X3526Y1623D01*
X3520Y1623D01*
X3520Y1625D01*
X3516Y1625D01*
X3516Y1627D01*
X3514Y1627D01*
X3514Y1629D01*
X3512Y1629D01*
X3512Y1631D01*
X3508Y1631D01*
X3508Y1633D01*
X3506Y1633D01*
X3506Y1637D01*
X3504Y1637D01*
X3504Y1639D01*
X3502Y1639D01*
X3502Y1643D01*
X3500Y1643D01*
X3500Y1647D01*
X3498Y1647D01*
X3498Y1649D01*
X3478Y1649D01*
G37*
D02*
G36*
X3578Y1649D02*
X3578Y1643D01*
X3576Y1643D01*
X3576Y1641D01*
X3574Y1641D01*
X3574Y1637D01*
X3572Y1637D01*
X3572Y1635D01*
X3570Y1635D01*
X3570Y1633D01*
X3568Y1633D01*
X3568Y1631D01*
X3566Y1631D01*
X3566Y1629D01*
X3564Y1629D01*
X3564Y1627D01*
X3560Y1627D01*
X3560Y1625D01*
X3556Y1625D01*
X3556Y1623D01*
X3552Y1623D01*
X3552Y1621D01*
X3542Y1621D01*
X3542Y1619D01*
X3634Y1619D01*
X3634Y1621D01*
X3626Y1621D01*
X3626Y1623D01*
X3620Y1623D01*
X3620Y1625D01*
X3616Y1625D01*
X3616Y1627D01*
X3614Y1627D01*
X3614Y1629D01*
X3612Y1629D01*
X3612Y1631D01*
X3608Y1631D01*
X3608Y1633D01*
X3606Y1633D01*
X3606Y1637D01*
X3604Y1637D01*
X3604Y1639D01*
X3602Y1639D01*
X3602Y1643D01*
X3600Y1643D01*
X3600Y1647D01*
X3598Y1647D01*
X3598Y1649D01*
X3578Y1649D01*
G37*
D02*
G36*
X3376Y1619D02*
X3376Y1617D01*
X3710Y1617D01*
X3710Y1619D01*
X3376Y1619D01*
G37*
D02*
G36*
X3376Y1619D02*
X3376Y1617D01*
X3710Y1617D01*
X3710Y1619D01*
X3376Y1619D01*
G37*
D02*
G36*
X3376Y1619D02*
X3376Y1617D01*
X3710Y1617D01*
X3710Y1619D01*
X3376Y1619D01*
G37*
D02*
G36*
X3376Y1619D02*
X3376Y1617D01*
X3710Y1617D01*
X3710Y1619D01*
X3376Y1619D01*
G37*
D02*
G36*
X3376Y1617D02*
X3376Y1615D01*
X3378Y1615D01*
X3378Y1607D01*
X3380Y1607D01*
X3380Y1601D01*
X3382Y1601D01*
X3382Y1595D01*
X3384Y1595D01*
X3384Y1589D01*
X3386Y1589D01*
X3386Y1583D01*
X3388Y1583D01*
X3388Y1575D01*
X3390Y1575D01*
X3390Y1569D01*
X3392Y1569D01*
X3392Y1563D01*
X3394Y1563D01*
X3394Y1557D01*
X3396Y1557D01*
X3396Y1551D01*
X3398Y1551D01*
X3398Y1545D01*
X3400Y1545D01*
X3400Y1537D01*
X3402Y1537D01*
X3402Y1533D01*
X3780Y1533D01*
X3780Y1535D01*
X3770Y1535D01*
X3770Y1537D01*
X3762Y1537D01*
X3762Y1539D01*
X3758Y1539D01*
X3758Y1541D01*
X3754Y1541D01*
X3754Y1543D01*
X3750Y1543D01*
X3750Y1545D01*
X3746Y1545D01*
X3746Y1547D01*
X3744Y1547D01*
X3744Y1549D01*
X3740Y1549D01*
X3740Y1551D01*
X3738Y1551D01*
X3738Y1553D01*
X3736Y1553D01*
X3736Y1555D01*
X3734Y1555D01*
X3734Y1557D01*
X3732Y1557D01*
X3732Y1559D01*
X3730Y1559D01*
X3730Y1561D01*
X3728Y1561D01*
X3728Y1563D01*
X3726Y1563D01*
X3726Y1565D01*
X3724Y1565D01*
X3724Y1569D01*
X3722Y1569D01*
X3722Y1571D01*
X3720Y1571D01*
X3720Y1575D01*
X3718Y1575D01*
X3718Y1579D01*
X3716Y1579D01*
X3716Y1583D01*
X3714Y1583D01*
X3714Y1589D01*
X3712Y1589D01*
X3712Y1597D01*
X3710Y1597D01*
X3710Y1617D01*
X3376Y1617D01*
G37*
D02*
G36*
X40Y1561D02*
X40Y1163D01*
X302Y1163D01*
X302Y1165D01*
X292Y1165D01*
X292Y1167D01*
X286Y1167D01*
X286Y1169D01*
X284Y1169D01*
X284Y1171D01*
X280Y1171D01*
X280Y1173D01*
X276Y1173D01*
X276Y1175D01*
X274Y1175D01*
X274Y1177D01*
X272Y1177D01*
X272Y1179D01*
X270Y1179D01*
X270Y1181D01*
X268Y1181D01*
X268Y1185D01*
X266Y1185D01*
X266Y1187D01*
X264Y1187D01*
X264Y1191D01*
X262Y1191D01*
X262Y1195D01*
X260Y1195D01*
X260Y1201D01*
X258Y1201D01*
X258Y1223D01*
X260Y1223D01*
X260Y1231D01*
X262Y1231D01*
X262Y1235D01*
X264Y1235D01*
X264Y1239D01*
X266Y1239D01*
X266Y1241D01*
X268Y1241D01*
X268Y1243D01*
X270Y1243D01*
X270Y1247D01*
X272Y1247D01*
X272Y1249D01*
X276Y1249D01*
X276Y1251D01*
X278Y1251D01*
X278Y1253D01*
X280Y1253D01*
X280Y1273D01*
X276Y1273D01*
X276Y1275D01*
X274Y1275D01*
X274Y1277D01*
X272Y1277D01*
X272Y1279D01*
X270Y1279D01*
X270Y1281D01*
X268Y1281D01*
X268Y1285D01*
X266Y1285D01*
X266Y1287D01*
X264Y1287D01*
X264Y1291D01*
X262Y1291D01*
X262Y1295D01*
X260Y1295D01*
X260Y1301D01*
X258Y1301D01*
X258Y1323D01*
X260Y1323D01*
X260Y1331D01*
X262Y1331D01*
X262Y1335D01*
X264Y1335D01*
X264Y1339D01*
X266Y1339D01*
X266Y1341D01*
X268Y1341D01*
X268Y1343D01*
X270Y1343D01*
X270Y1347D01*
X272Y1347D01*
X272Y1349D01*
X276Y1349D01*
X276Y1351D01*
X278Y1351D01*
X278Y1353D01*
X280Y1353D01*
X280Y1373D01*
X276Y1373D01*
X276Y1375D01*
X274Y1375D01*
X274Y1377D01*
X272Y1377D01*
X272Y1379D01*
X270Y1379D01*
X270Y1381D01*
X268Y1381D01*
X268Y1385D01*
X266Y1385D01*
X266Y1387D01*
X264Y1387D01*
X264Y1391D01*
X262Y1391D01*
X262Y1395D01*
X260Y1395D01*
X260Y1401D01*
X258Y1401D01*
X258Y1423D01*
X260Y1423D01*
X260Y1431D01*
X262Y1431D01*
X262Y1435D01*
X264Y1435D01*
X264Y1439D01*
X266Y1439D01*
X266Y1441D01*
X268Y1441D01*
X268Y1443D01*
X270Y1443D01*
X270Y1447D01*
X272Y1447D01*
X272Y1449D01*
X276Y1449D01*
X276Y1451D01*
X278Y1451D01*
X278Y1453D01*
X280Y1453D01*
X280Y1473D01*
X276Y1473D01*
X276Y1475D01*
X274Y1475D01*
X274Y1477D01*
X272Y1477D01*
X272Y1479D01*
X270Y1479D01*
X270Y1481D01*
X268Y1481D01*
X268Y1485D01*
X266Y1485D01*
X266Y1487D01*
X264Y1487D01*
X264Y1491D01*
X262Y1491D01*
X262Y1495D01*
X260Y1495D01*
X260Y1501D01*
X258Y1501D01*
X258Y1523D01*
X260Y1523D01*
X260Y1531D01*
X262Y1531D01*
X262Y1535D01*
X264Y1535D01*
X264Y1539D01*
X266Y1539D01*
X266Y1541D01*
X268Y1541D01*
X268Y1543D01*
X270Y1543D01*
X270Y1547D01*
X272Y1547D01*
X272Y1549D01*
X276Y1549D01*
X276Y1551D01*
X278Y1551D01*
X278Y1553D01*
X280Y1553D01*
X280Y1555D01*
X284Y1555D01*
X284Y1557D01*
X288Y1557D01*
X288Y1559D01*
X294Y1559D01*
X294Y1561D01*
X40Y1561D01*
G37*
D02*
G36*
X654Y1561D02*
X654Y1465D01*
X640Y1465D01*
X640Y1445D01*
X642Y1445D01*
X642Y1443D01*
X644Y1443D01*
X644Y1441D01*
X646Y1441D01*
X646Y1437D01*
X648Y1437D01*
X648Y1435D01*
X866Y1435D01*
X866Y1439D01*
X868Y1439D01*
X868Y1441D01*
X870Y1441D01*
X870Y1443D01*
X872Y1443D01*
X872Y1447D01*
X876Y1447D01*
X876Y1449D01*
X878Y1449D01*
X878Y1451D01*
X880Y1451D01*
X880Y1453D01*
X882Y1453D01*
X882Y1473D01*
X880Y1473D01*
X880Y1475D01*
X876Y1475D01*
X876Y1477D01*
X874Y1477D01*
X874Y1479D01*
X872Y1479D01*
X872Y1481D01*
X870Y1481D01*
X870Y1485D01*
X868Y1485D01*
X868Y1487D01*
X866Y1487D01*
X866Y1491D01*
X864Y1491D01*
X864Y1493D01*
X862Y1493D01*
X862Y1501D01*
X860Y1501D01*
X860Y1525D01*
X862Y1525D01*
X862Y1531D01*
X864Y1531D01*
X864Y1535D01*
X866Y1535D01*
X866Y1539D01*
X868Y1539D01*
X868Y1541D01*
X870Y1541D01*
X870Y1543D01*
X872Y1543D01*
X872Y1547D01*
X876Y1547D01*
X876Y1549D01*
X878Y1549D01*
X878Y1551D01*
X880Y1551D01*
X880Y1553D01*
X884Y1553D01*
X884Y1555D01*
X888Y1555D01*
X888Y1557D01*
X894Y1557D01*
X894Y1559D01*
X902Y1559D01*
X902Y1561D01*
X654Y1561D01*
G37*
D02*
G36*
X3402Y1533D02*
X3402Y1531D01*
X3918Y1531D01*
X3918Y1533D01*
X3402Y1533D01*
G37*
D02*
G36*
X3402Y1533D02*
X3402Y1531D01*
X3918Y1531D01*
X3918Y1533D01*
X3402Y1533D01*
G37*
D02*
G36*
X3404Y1531D02*
X3404Y1525D01*
X3406Y1525D01*
X3406Y1519D01*
X3408Y1519D01*
X3408Y1513D01*
X3410Y1513D01*
X3410Y1505D01*
X3412Y1505D01*
X3412Y1499D01*
X3414Y1499D01*
X3414Y1493D01*
X3416Y1493D01*
X3416Y1487D01*
X3418Y1487D01*
X3418Y1481D01*
X3420Y1481D01*
X3420Y1475D01*
X3422Y1475D01*
X3422Y1467D01*
X3424Y1467D01*
X3424Y1461D01*
X3426Y1461D01*
X3426Y1455D01*
X3428Y1455D01*
X3428Y1449D01*
X3430Y1449D01*
X3430Y1443D01*
X3432Y1443D01*
X3432Y1437D01*
X3434Y1437D01*
X3434Y1429D01*
X3436Y1429D01*
X3436Y1423D01*
X3438Y1423D01*
X3438Y1417D01*
X3440Y1417D01*
X3440Y1411D01*
X3442Y1411D01*
X3442Y1405D01*
X3444Y1405D01*
X3444Y1397D01*
X3446Y1397D01*
X3446Y1391D01*
X3448Y1391D01*
X3448Y1385D01*
X3450Y1385D01*
X3450Y1379D01*
X3452Y1379D01*
X3452Y1373D01*
X3454Y1373D01*
X3454Y1367D01*
X3456Y1367D01*
X3456Y1359D01*
X3458Y1359D01*
X3458Y1353D01*
X3460Y1353D01*
X3460Y1347D01*
X3462Y1347D01*
X3462Y1341D01*
X3464Y1341D01*
X3464Y1335D01*
X3466Y1335D01*
X3466Y1327D01*
X3468Y1327D01*
X3468Y1321D01*
X3470Y1321D01*
X3470Y1315D01*
X3472Y1315D01*
X3472Y1309D01*
X3474Y1309D01*
X3474Y1303D01*
X3476Y1303D01*
X3476Y1297D01*
X3478Y1297D01*
X3478Y1289D01*
X3480Y1289D01*
X3480Y1283D01*
X3482Y1283D01*
X3482Y1277D01*
X3484Y1277D01*
X3484Y1271D01*
X3486Y1271D01*
X3486Y1265D01*
X3488Y1265D01*
X3488Y1257D01*
X3490Y1257D01*
X3490Y1251D01*
X3492Y1251D01*
X3492Y1245D01*
X3494Y1245D01*
X3494Y1239D01*
X3496Y1239D01*
X3496Y1233D01*
X3498Y1233D01*
X3498Y1227D01*
X3500Y1227D01*
X3500Y1219D01*
X3502Y1219D01*
X3502Y1213D01*
X3504Y1213D01*
X3504Y1207D01*
X3506Y1207D01*
X3506Y1201D01*
X3508Y1201D01*
X3508Y1195D01*
X3510Y1195D01*
X3510Y1187D01*
X3512Y1187D01*
X3512Y1181D01*
X3514Y1181D01*
X3514Y1175D01*
X3516Y1175D01*
X3516Y1169D01*
X3518Y1169D01*
X3518Y1163D01*
X3520Y1163D01*
X3520Y1157D01*
X3522Y1157D01*
X3522Y1149D01*
X3524Y1149D01*
X3524Y1143D01*
X3526Y1143D01*
X3526Y1137D01*
X3528Y1137D01*
X3528Y1131D01*
X3530Y1131D01*
X3530Y1125D01*
X3532Y1125D01*
X3532Y1119D01*
X3534Y1119D01*
X3534Y1111D01*
X3536Y1111D01*
X3536Y1105D01*
X3538Y1105D01*
X3538Y1099D01*
X3540Y1099D01*
X3540Y1093D01*
X3542Y1093D01*
X3542Y1087D01*
X3544Y1087D01*
X3544Y1079D01*
X3546Y1079D01*
X3546Y1073D01*
X3548Y1073D01*
X3548Y1067D01*
X3550Y1067D01*
X3550Y1061D01*
X3552Y1061D01*
X3552Y1055D01*
X3554Y1055D01*
X3554Y1049D01*
X3556Y1049D01*
X3556Y1041D01*
X3558Y1041D01*
X3558Y1035D01*
X3560Y1035D01*
X3560Y1029D01*
X3562Y1029D01*
X3562Y1023D01*
X3564Y1023D01*
X3564Y1017D01*
X3566Y1017D01*
X3566Y1009D01*
X3568Y1009D01*
X3568Y1003D01*
X3570Y1003D01*
X3570Y997D01*
X3572Y997D01*
X3572Y991D01*
X3806Y991D01*
X3806Y989D01*
X3814Y989D01*
X3814Y987D01*
X3818Y987D01*
X3818Y985D01*
X3824Y985D01*
X3824Y983D01*
X3826Y983D01*
X3826Y981D01*
X3830Y981D01*
X3830Y979D01*
X3834Y979D01*
X3834Y977D01*
X3836Y977D01*
X3836Y975D01*
X3838Y975D01*
X3838Y973D01*
X3842Y973D01*
X3842Y971D01*
X3844Y971D01*
X3844Y969D01*
X3846Y969D01*
X3846Y967D01*
X3848Y967D01*
X3848Y963D01*
X3850Y963D01*
X3850Y961D01*
X3852Y961D01*
X3852Y959D01*
X3854Y959D01*
X3854Y955D01*
X3856Y955D01*
X3856Y953D01*
X3858Y953D01*
X3858Y949D01*
X3860Y949D01*
X3860Y945D01*
X3862Y945D01*
X3862Y939D01*
X3864Y939D01*
X3864Y933D01*
X3866Y933D01*
X3866Y923D01*
X3868Y923D01*
X3868Y903D01*
X3866Y903D01*
X3866Y893D01*
X3864Y893D01*
X3864Y885D01*
X3862Y885D01*
X3862Y881D01*
X3860Y881D01*
X3860Y877D01*
X3858Y877D01*
X3858Y873D01*
X3856Y873D01*
X3856Y869D01*
X3854Y869D01*
X3854Y867D01*
X3852Y867D01*
X3852Y865D01*
X3850Y865D01*
X3850Y861D01*
X3848Y861D01*
X3848Y859D01*
X3846Y859D01*
X3846Y857D01*
X3844Y857D01*
X3844Y855D01*
X3842Y855D01*
X3842Y853D01*
X3840Y853D01*
X3840Y851D01*
X3836Y851D01*
X3836Y849D01*
X3834Y849D01*
X3834Y847D01*
X3832Y847D01*
X3832Y845D01*
X3828Y845D01*
X3828Y843D01*
X3824Y843D01*
X3824Y841D01*
X3820Y841D01*
X3820Y839D01*
X3814Y839D01*
X3814Y837D01*
X3808Y837D01*
X3808Y835D01*
X3796Y835D01*
X3796Y833D01*
X3918Y833D01*
X3918Y1531D01*
X3404Y1531D01*
G37*
D02*
G36*
X510Y1391D02*
X510Y1389D01*
X506Y1389D01*
X506Y1387D01*
X502Y1387D01*
X502Y1385D01*
X498Y1385D01*
X498Y1383D01*
X494Y1383D01*
X494Y1381D01*
X490Y1381D01*
X490Y1379D01*
X486Y1379D01*
X486Y1377D01*
X482Y1377D01*
X482Y1375D01*
X478Y1375D01*
X478Y1373D01*
X474Y1373D01*
X474Y1371D01*
X470Y1371D01*
X470Y1369D01*
X466Y1369D01*
X466Y1367D01*
X462Y1367D01*
X462Y1365D01*
X598Y1365D01*
X598Y1367D01*
X592Y1367D01*
X592Y1369D01*
X586Y1369D01*
X586Y1371D01*
X582Y1371D01*
X582Y1373D01*
X580Y1373D01*
X580Y1375D01*
X576Y1375D01*
X576Y1377D01*
X574Y1377D01*
X574Y1379D01*
X572Y1379D01*
X572Y1381D01*
X570Y1381D01*
X570Y1385D01*
X568Y1385D01*
X568Y1387D01*
X566Y1387D01*
X566Y1391D01*
X510Y1391D01*
G37*
D02*
G36*
X648Y1391D02*
X648Y1389D01*
X646Y1389D01*
X646Y1385D01*
X644Y1385D01*
X644Y1383D01*
X642Y1383D01*
X642Y1381D01*
X640Y1381D01*
X640Y1379D01*
X638Y1379D01*
X638Y1377D01*
X636Y1377D01*
X636Y1375D01*
X634Y1375D01*
X634Y1373D01*
X630Y1373D01*
X630Y1371D01*
X626Y1371D01*
X626Y1369D01*
X622Y1369D01*
X622Y1367D01*
X614Y1367D01*
X614Y1365D01*
X898Y1365D01*
X898Y1367D01*
X892Y1367D01*
X892Y1369D01*
X886Y1369D01*
X886Y1371D01*
X882Y1371D01*
X882Y1373D01*
X880Y1373D01*
X880Y1375D01*
X876Y1375D01*
X876Y1377D01*
X874Y1377D01*
X874Y1379D01*
X872Y1379D01*
X872Y1381D01*
X870Y1381D01*
X870Y1385D01*
X868Y1385D01*
X868Y1387D01*
X866Y1387D01*
X866Y1391D01*
X648Y1391D01*
G37*
D02*
G36*
X458Y1365D02*
X458Y1363D01*
X1882Y1363D01*
X1882Y1365D01*
X458Y1365D01*
G37*
D02*
G36*
X458Y1365D02*
X458Y1363D01*
X1882Y1363D01*
X1882Y1365D01*
X458Y1365D01*
G37*
D02*
G36*
X458Y1365D02*
X458Y1363D01*
X1882Y1363D01*
X1882Y1365D01*
X458Y1365D01*
G37*
D02*
G36*
X454Y1363D02*
X454Y1361D01*
X450Y1361D01*
X450Y1359D01*
X446Y1359D01*
X446Y1357D01*
X442Y1357D01*
X442Y1355D01*
X438Y1355D01*
X438Y1353D01*
X434Y1353D01*
X434Y1351D01*
X430Y1351D01*
X430Y1349D01*
X426Y1349D01*
X426Y1347D01*
X422Y1347D01*
X422Y1345D01*
X418Y1345D01*
X418Y1343D01*
X414Y1343D01*
X414Y1341D01*
X410Y1341D01*
X410Y1339D01*
X406Y1339D01*
X406Y1337D01*
X402Y1337D01*
X402Y1335D01*
X398Y1335D01*
X398Y1333D01*
X394Y1333D01*
X394Y1331D01*
X390Y1331D01*
X390Y1329D01*
X386Y1329D01*
X386Y1327D01*
X382Y1327D01*
X382Y1325D01*
X378Y1325D01*
X378Y1323D01*
X374Y1323D01*
X374Y1321D01*
X370Y1321D01*
X370Y1319D01*
X366Y1319D01*
X366Y1317D01*
X362Y1317D01*
X362Y1315D01*
X358Y1315D01*
X358Y1313D01*
X356Y1313D01*
X356Y1307D01*
X354Y1307D01*
X354Y1297D01*
X352Y1297D01*
X352Y1293D01*
X350Y1293D01*
X350Y1289D01*
X348Y1289D01*
X348Y1285D01*
X346Y1285D01*
X346Y1283D01*
X344Y1283D01*
X344Y1281D01*
X342Y1281D01*
X342Y1277D01*
X338Y1277D01*
X338Y1275D01*
X336Y1275D01*
X336Y1273D01*
X334Y1273D01*
X334Y1253D01*
X336Y1253D01*
X336Y1251D01*
X338Y1251D01*
X338Y1249D01*
X340Y1249D01*
X340Y1247D01*
X342Y1247D01*
X342Y1245D01*
X344Y1245D01*
X344Y1243D01*
X346Y1243D01*
X346Y1241D01*
X348Y1241D01*
X348Y1237D01*
X350Y1237D01*
X350Y1233D01*
X352Y1233D01*
X352Y1227D01*
X354Y1227D01*
X354Y1219D01*
X356Y1219D01*
X356Y1207D01*
X354Y1207D01*
X354Y1197D01*
X352Y1197D01*
X352Y1193D01*
X350Y1193D01*
X350Y1189D01*
X348Y1189D01*
X348Y1185D01*
X346Y1185D01*
X346Y1183D01*
X344Y1183D01*
X344Y1181D01*
X342Y1181D01*
X342Y1177D01*
X338Y1177D01*
X338Y1175D01*
X336Y1175D01*
X336Y1173D01*
X334Y1173D01*
X334Y1171D01*
X330Y1171D01*
X330Y1169D01*
X326Y1169D01*
X326Y1167D01*
X320Y1167D01*
X320Y1165D01*
X310Y1165D01*
X310Y1163D01*
X1882Y1163D01*
X1882Y1363D01*
X454Y1363D01*
G37*
D02*
G36*
X40Y1163D02*
X40Y1161D01*
X1882Y1161D01*
X1882Y1163D01*
X40Y1163D01*
G37*
D02*
G36*
X40Y1163D02*
X40Y1161D01*
X1882Y1161D01*
X1882Y1163D01*
X40Y1163D01*
G37*
D02*
G36*
X40Y1161D02*
X40Y961D01*
X610Y961D01*
X610Y959D01*
X620Y959D01*
X620Y957D01*
X626Y957D01*
X626Y955D01*
X630Y955D01*
X630Y953D01*
X634Y953D01*
X634Y951D01*
X636Y951D01*
X636Y949D01*
X638Y949D01*
X638Y947D01*
X640Y947D01*
X640Y945D01*
X642Y945D01*
X642Y943D01*
X644Y943D01*
X644Y941D01*
X646Y941D01*
X646Y937D01*
X648Y937D01*
X648Y933D01*
X650Y933D01*
X650Y929D01*
X652Y929D01*
X652Y923D01*
X654Y923D01*
X654Y903D01*
X652Y903D01*
X652Y897D01*
X650Y897D01*
X650Y891D01*
X648Y891D01*
X648Y889D01*
X646Y889D01*
X646Y885D01*
X644Y885D01*
X644Y883D01*
X642Y883D01*
X642Y881D01*
X640Y881D01*
X640Y879D01*
X638Y879D01*
X638Y877D01*
X636Y877D01*
X636Y875D01*
X634Y875D01*
X634Y873D01*
X630Y873D01*
X630Y871D01*
X626Y871D01*
X626Y869D01*
X622Y869D01*
X622Y867D01*
X614Y867D01*
X614Y865D01*
X608Y865D01*
X608Y863D01*
X606Y863D01*
X606Y859D01*
X604Y859D01*
X604Y855D01*
X602Y855D01*
X602Y851D01*
X600Y851D01*
X600Y847D01*
X598Y847D01*
X598Y843D01*
X596Y843D01*
X596Y839D01*
X594Y839D01*
X594Y835D01*
X592Y835D01*
X592Y831D01*
X590Y831D01*
X590Y827D01*
X588Y827D01*
X588Y823D01*
X586Y823D01*
X586Y819D01*
X584Y819D01*
X584Y815D01*
X582Y815D01*
X582Y811D01*
X580Y811D01*
X580Y807D01*
X578Y807D01*
X578Y803D01*
X576Y803D01*
X576Y799D01*
X574Y799D01*
X574Y795D01*
X572Y795D01*
X572Y791D01*
X570Y791D01*
X570Y787D01*
X568Y787D01*
X568Y783D01*
X566Y783D01*
X566Y761D01*
X910Y761D01*
X910Y759D01*
X920Y759D01*
X920Y757D01*
X926Y757D01*
X926Y755D01*
X930Y755D01*
X930Y753D01*
X934Y753D01*
X934Y751D01*
X936Y751D01*
X936Y749D01*
X938Y749D01*
X938Y747D01*
X940Y747D01*
X940Y745D01*
X942Y745D01*
X942Y743D01*
X944Y743D01*
X944Y741D01*
X946Y741D01*
X946Y737D01*
X948Y737D01*
X948Y733D01*
X950Y733D01*
X950Y729D01*
X952Y729D01*
X952Y723D01*
X954Y723D01*
X954Y703D01*
X952Y703D01*
X952Y697D01*
X950Y697D01*
X950Y691D01*
X948Y691D01*
X948Y689D01*
X946Y689D01*
X946Y685D01*
X944Y685D01*
X944Y683D01*
X942Y683D01*
X942Y681D01*
X940Y681D01*
X940Y679D01*
X938Y679D01*
X938Y677D01*
X936Y677D01*
X936Y675D01*
X934Y675D01*
X934Y673D01*
X930Y673D01*
X930Y653D01*
X934Y653D01*
X934Y651D01*
X936Y651D01*
X936Y649D01*
X938Y649D01*
X938Y647D01*
X940Y647D01*
X940Y645D01*
X942Y645D01*
X942Y643D01*
X944Y643D01*
X944Y641D01*
X946Y641D01*
X946Y637D01*
X948Y637D01*
X948Y633D01*
X950Y633D01*
X950Y629D01*
X952Y629D01*
X952Y625D01*
X958Y625D01*
X958Y623D01*
X968Y623D01*
X968Y621D01*
X978Y621D01*
X978Y619D01*
X988Y619D01*
X988Y617D01*
X998Y617D01*
X998Y615D01*
X1008Y615D01*
X1008Y613D01*
X1018Y613D01*
X1018Y611D01*
X1028Y611D01*
X1028Y609D01*
X1038Y609D01*
X1038Y607D01*
X1048Y607D01*
X1048Y605D01*
X1058Y605D01*
X1058Y603D01*
X1068Y603D01*
X1068Y601D01*
X1078Y601D01*
X1078Y599D01*
X1088Y599D01*
X1088Y597D01*
X1098Y597D01*
X1098Y595D01*
X1108Y595D01*
X1108Y593D01*
X1118Y593D01*
X1118Y591D01*
X1128Y591D01*
X1128Y589D01*
X1138Y589D01*
X1138Y587D01*
X1148Y587D01*
X1148Y585D01*
X1158Y585D01*
X1158Y583D01*
X1168Y583D01*
X1168Y581D01*
X1178Y581D01*
X1178Y579D01*
X1190Y579D01*
X1190Y577D01*
X1200Y577D01*
X1200Y575D01*
X1210Y575D01*
X1210Y573D01*
X1220Y573D01*
X1220Y571D01*
X1230Y571D01*
X1230Y569D01*
X1240Y569D01*
X1240Y567D01*
X1250Y567D01*
X1250Y565D01*
X1260Y565D01*
X1260Y563D01*
X1270Y563D01*
X1270Y561D01*
X1280Y561D01*
X1280Y559D01*
X1290Y559D01*
X1290Y557D01*
X1300Y557D01*
X1300Y555D01*
X1310Y555D01*
X1310Y553D01*
X1320Y553D01*
X1320Y551D01*
X1330Y551D01*
X1330Y549D01*
X1340Y549D01*
X1340Y547D01*
X1350Y547D01*
X1350Y545D01*
X1360Y545D01*
X1360Y543D01*
X1370Y543D01*
X1370Y541D01*
X1380Y541D01*
X1380Y539D01*
X1390Y539D01*
X1390Y537D01*
X1400Y537D01*
X1400Y535D01*
X1410Y535D01*
X1410Y533D01*
X1420Y533D01*
X1420Y531D01*
X1430Y531D01*
X1430Y529D01*
X1440Y529D01*
X1440Y527D01*
X1450Y527D01*
X1450Y525D01*
X1460Y525D01*
X1460Y523D01*
X1470Y523D01*
X1470Y521D01*
X1480Y521D01*
X1480Y519D01*
X1490Y519D01*
X1490Y517D01*
X1500Y517D01*
X1500Y515D01*
X1510Y515D01*
X1510Y513D01*
X1520Y513D01*
X1520Y511D01*
X1530Y511D01*
X1530Y509D01*
X1540Y509D01*
X1540Y507D01*
X1550Y507D01*
X1550Y505D01*
X1560Y505D01*
X1560Y503D01*
X1570Y503D01*
X1570Y501D01*
X1580Y501D01*
X1580Y499D01*
X1590Y499D01*
X1590Y497D01*
X1602Y497D01*
X1602Y495D01*
X1612Y495D01*
X1612Y493D01*
X1622Y493D01*
X1622Y491D01*
X1632Y491D01*
X1632Y489D01*
X1642Y489D01*
X1642Y487D01*
X1652Y487D01*
X1652Y485D01*
X1662Y485D01*
X1662Y483D01*
X1672Y483D01*
X1672Y481D01*
X1682Y481D01*
X1682Y479D01*
X1692Y479D01*
X1692Y477D01*
X1702Y477D01*
X1702Y475D01*
X1712Y475D01*
X1712Y473D01*
X1722Y473D01*
X1722Y471D01*
X1732Y471D01*
X1732Y469D01*
X1742Y469D01*
X1742Y467D01*
X1752Y467D01*
X1752Y465D01*
X1762Y465D01*
X1762Y463D01*
X1772Y463D01*
X1772Y461D01*
X1782Y461D01*
X1782Y459D01*
X1792Y459D01*
X1792Y457D01*
X1802Y457D01*
X1802Y455D01*
X1812Y455D01*
X1812Y453D01*
X1822Y453D01*
X1822Y451D01*
X1832Y451D01*
X1832Y449D01*
X1842Y449D01*
X1842Y447D01*
X1872Y447D01*
X1872Y449D01*
X1876Y449D01*
X1876Y451D01*
X1878Y451D01*
X1878Y453D01*
X1880Y453D01*
X1880Y455D01*
X1884Y455D01*
X1884Y997D01*
X1882Y997D01*
X1882Y1161D01*
X40Y1161D01*
G37*
D02*
G36*
X3574Y991D02*
X3574Y985D01*
X3576Y985D01*
X3576Y979D01*
X3578Y979D01*
X3578Y971D01*
X3580Y971D01*
X3580Y965D01*
X3582Y965D01*
X3582Y959D01*
X3584Y959D01*
X3584Y953D01*
X3586Y953D01*
X3586Y947D01*
X3588Y947D01*
X3588Y939D01*
X3590Y939D01*
X3590Y933D01*
X3592Y933D01*
X3592Y927D01*
X3594Y927D01*
X3594Y921D01*
X3596Y921D01*
X3596Y915D01*
X3598Y915D01*
X3598Y909D01*
X3600Y909D01*
X3600Y901D01*
X3602Y901D01*
X3602Y895D01*
X3604Y895D01*
X3604Y889D01*
X3606Y889D01*
X3606Y883D01*
X3608Y883D01*
X3608Y877D01*
X3610Y877D01*
X3610Y871D01*
X3612Y871D01*
X3612Y863D01*
X3614Y863D01*
X3614Y857D01*
X3616Y857D01*
X3616Y851D01*
X3618Y851D01*
X3618Y845D01*
X3620Y845D01*
X3620Y839D01*
X3622Y839D01*
X3622Y833D01*
X3780Y833D01*
X3780Y835D01*
X3770Y835D01*
X3770Y837D01*
X3762Y837D01*
X3762Y839D01*
X3758Y839D01*
X3758Y841D01*
X3754Y841D01*
X3754Y843D01*
X3750Y843D01*
X3750Y845D01*
X3746Y845D01*
X3746Y847D01*
X3744Y847D01*
X3744Y849D01*
X3740Y849D01*
X3740Y851D01*
X3738Y851D01*
X3738Y853D01*
X3736Y853D01*
X3736Y855D01*
X3734Y855D01*
X3734Y857D01*
X3732Y857D01*
X3732Y859D01*
X3730Y859D01*
X3730Y861D01*
X3728Y861D01*
X3728Y863D01*
X3726Y863D01*
X3726Y865D01*
X3724Y865D01*
X3724Y869D01*
X3722Y869D01*
X3722Y871D01*
X3720Y871D01*
X3720Y875D01*
X3718Y875D01*
X3718Y879D01*
X3716Y879D01*
X3716Y883D01*
X3714Y883D01*
X3714Y889D01*
X3712Y889D01*
X3712Y897D01*
X3710Y897D01*
X3710Y927D01*
X3712Y927D01*
X3712Y935D01*
X3714Y935D01*
X3714Y941D01*
X3716Y941D01*
X3716Y947D01*
X3718Y947D01*
X3718Y951D01*
X3720Y951D01*
X3720Y953D01*
X3722Y953D01*
X3722Y957D01*
X3724Y957D01*
X3724Y959D01*
X3726Y959D01*
X3726Y963D01*
X3728Y963D01*
X3728Y965D01*
X3730Y965D01*
X3730Y967D01*
X3732Y967D01*
X3732Y969D01*
X3734Y969D01*
X3734Y971D01*
X3736Y971D01*
X3736Y973D01*
X3738Y973D01*
X3738Y975D01*
X3742Y975D01*
X3742Y977D01*
X3744Y977D01*
X3744Y979D01*
X3748Y979D01*
X3748Y981D01*
X3750Y981D01*
X3750Y983D01*
X3754Y983D01*
X3754Y985D01*
X3758Y985D01*
X3758Y987D01*
X3764Y987D01*
X3764Y989D01*
X3772Y989D01*
X3772Y991D01*
X3574Y991D01*
G37*
D02*
G36*
X40Y961D02*
X40Y865D01*
X198Y865D01*
X198Y867D01*
X192Y867D01*
X192Y869D01*
X186Y869D01*
X186Y871D01*
X182Y871D01*
X182Y873D01*
X180Y873D01*
X180Y875D01*
X176Y875D01*
X176Y877D01*
X174Y877D01*
X174Y879D01*
X172Y879D01*
X172Y881D01*
X170Y881D01*
X170Y885D01*
X168Y885D01*
X168Y887D01*
X166Y887D01*
X166Y891D01*
X164Y891D01*
X164Y893D01*
X162Y893D01*
X162Y901D01*
X160Y901D01*
X160Y925D01*
X162Y925D01*
X162Y931D01*
X164Y931D01*
X164Y935D01*
X166Y935D01*
X166Y939D01*
X168Y939D01*
X168Y941D01*
X170Y941D01*
X170Y943D01*
X172Y943D01*
X172Y947D01*
X176Y947D01*
X176Y949D01*
X178Y949D01*
X178Y951D01*
X180Y951D01*
X180Y953D01*
X184Y953D01*
X184Y955D01*
X188Y955D01*
X188Y957D01*
X194Y957D01*
X194Y959D01*
X202Y959D01*
X202Y961D01*
X40Y961D01*
G37*
D02*
G36*
X210Y961D02*
X210Y959D01*
X220Y959D01*
X220Y957D01*
X226Y957D01*
X226Y955D01*
X230Y955D01*
X230Y953D01*
X234Y953D01*
X234Y951D01*
X236Y951D01*
X236Y949D01*
X238Y949D01*
X238Y947D01*
X240Y947D01*
X240Y945D01*
X242Y945D01*
X242Y943D01*
X244Y943D01*
X244Y941D01*
X246Y941D01*
X246Y937D01*
X248Y937D01*
X248Y933D01*
X250Y933D01*
X250Y929D01*
X252Y929D01*
X252Y923D01*
X254Y923D01*
X254Y903D01*
X252Y903D01*
X252Y897D01*
X250Y897D01*
X250Y891D01*
X248Y891D01*
X248Y889D01*
X246Y889D01*
X246Y885D01*
X244Y885D01*
X244Y883D01*
X242Y883D01*
X242Y881D01*
X240Y881D01*
X240Y879D01*
X238Y879D01*
X238Y877D01*
X236Y877D01*
X236Y875D01*
X234Y875D01*
X234Y873D01*
X230Y873D01*
X230Y871D01*
X226Y871D01*
X226Y869D01*
X222Y869D01*
X222Y867D01*
X214Y867D01*
X214Y865D01*
X560Y865D01*
X560Y869D01*
X562Y869D01*
X562Y873D01*
X564Y873D01*
X564Y893D01*
X562Y893D01*
X562Y901D01*
X560Y901D01*
X560Y925D01*
X562Y925D01*
X562Y931D01*
X564Y931D01*
X564Y935D01*
X566Y935D01*
X566Y939D01*
X568Y939D01*
X568Y941D01*
X570Y941D01*
X570Y943D01*
X572Y943D01*
X572Y947D01*
X576Y947D01*
X576Y949D01*
X578Y949D01*
X578Y951D01*
X580Y951D01*
X580Y953D01*
X584Y953D01*
X584Y955D01*
X588Y955D01*
X588Y957D01*
X594Y957D01*
X594Y959D01*
X602Y959D01*
X602Y961D01*
X210Y961D01*
G37*
D02*
G36*
X40Y865D02*
X40Y863D01*
X558Y863D01*
X558Y865D01*
X40Y865D01*
G37*
D02*
G36*
X40Y865D02*
X40Y863D01*
X558Y863D01*
X558Y865D01*
X40Y865D01*
G37*
D02*
G36*
X40Y863D02*
X40Y761D01*
X318Y761D01*
X318Y759D01*
X326Y759D01*
X326Y757D01*
X330Y757D01*
X330Y755D01*
X332Y755D01*
X332Y753D01*
X336Y753D01*
X336Y751D01*
X338Y751D01*
X338Y749D01*
X340Y749D01*
X340Y747D01*
X342Y747D01*
X342Y745D01*
X344Y745D01*
X344Y743D01*
X346Y743D01*
X346Y741D01*
X348Y741D01*
X348Y737D01*
X350Y737D01*
X350Y733D01*
X352Y733D01*
X352Y727D01*
X354Y727D01*
X354Y719D01*
X356Y719D01*
X356Y707D01*
X354Y707D01*
X354Y697D01*
X352Y697D01*
X352Y693D01*
X350Y693D01*
X350Y689D01*
X348Y689D01*
X348Y685D01*
X346Y685D01*
X346Y683D01*
X344Y683D01*
X344Y681D01*
X342Y681D01*
X342Y677D01*
X338Y677D01*
X338Y675D01*
X336Y675D01*
X336Y673D01*
X334Y673D01*
X334Y661D01*
X356Y661D01*
X356Y663D01*
X360Y663D01*
X360Y665D01*
X364Y665D01*
X364Y667D01*
X368Y667D01*
X368Y669D01*
X372Y669D01*
X372Y671D01*
X376Y671D01*
X376Y673D01*
X380Y673D01*
X380Y675D01*
X386Y675D01*
X386Y677D01*
X390Y677D01*
X390Y679D01*
X394Y679D01*
X394Y681D01*
X398Y681D01*
X398Y683D01*
X402Y683D01*
X402Y685D01*
X406Y685D01*
X406Y687D01*
X410Y687D01*
X410Y689D01*
X414Y689D01*
X414Y691D01*
X418Y691D01*
X418Y693D01*
X422Y693D01*
X422Y695D01*
X426Y695D01*
X426Y697D01*
X430Y697D01*
X430Y699D01*
X434Y699D01*
X434Y701D01*
X438Y701D01*
X438Y703D01*
X442Y703D01*
X442Y705D01*
X446Y705D01*
X446Y707D01*
X450Y707D01*
X450Y709D01*
X454Y709D01*
X454Y711D01*
X458Y711D01*
X458Y713D01*
X462Y713D01*
X462Y715D01*
X466Y715D01*
X466Y717D01*
X470Y717D01*
X470Y719D01*
X474Y719D01*
X474Y721D01*
X478Y721D01*
X478Y723D01*
X482Y723D01*
X482Y725D01*
X486Y725D01*
X486Y727D01*
X490Y727D01*
X490Y729D01*
X492Y729D01*
X492Y731D01*
X494Y731D01*
X494Y735D01*
X496Y735D01*
X496Y739D01*
X498Y739D01*
X498Y743D01*
X500Y743D01*
X500Y747D01*
X502Y747D01*
X502Y751D01*
X504Y751D01*
X504Y755D01*
X506Y755D01*
X506Y759D01*
X508Y759D01*
X508Y763D01*
X510Y763D01*
X510Y769D01*
X512Y769D01*
X512Y773D01*
X514Y773D01*
X514Y777D01*
X516Y777D01*
X516Y781D01*
X518Y781D01*
X518Y785D01*
X520Y785D01*
X520Y789D01*
X522Y789D01*
X522Y793D01*
X524Y793D01*
X524Y797D01*
X526Y797D01*
X526Y801D01*
X528Y801D01*
X528Y805D01*
X530Y805D01*
X530Y809D01*
X532Y809D01*
X532Y813D01*
X534Y813D01*
X534Y817D01*
X536Y817D01*
X536Y821D01*
X538Y821D01*
X538Y825D01*
X540Y825D01*
X540Y829D01*
X542Y829D01*
X542Y833D01*
X544Y833D01*
X544Y837D01*
X546Y837D01*
X546Y841D01*
X548Y841D01*
X548Y845D01*
X550Y845D01*
X550Y849D01*
X552Y849D01*
X552Y853D01*
X554Y853D01*
X554Y857D01*
X556Y857D01*
X556Y861D01*
X558Y861D01*
X558Y863D01*
X40Y863D01*
G37*
D02*
G36*
X2278Y849D02*
X2278Y843D01*
X2276Y843D01*
X2276Y841D01*
X2274Y841D01*
X2274Y837D01*
X2272Y837D01*
X2272Y835D01*
X2270Y835D01*
X2270Y833D01*
X2268Y833D01*
X2268Y831D01*
X2266Y831D01*
X2266Y829D01*
X2264Y829D01*
X2264Y827D01*
X2260Y827D01*
X2260Y825D01*
X2258Y825D01*
X2258Y811D01*
X2256Y811D01*
X2256Y783D01*
X2254Y783D01*
X2254Y755D01*
X2252Y755D01*
X2252Y727D01*
X2250Y727D01*
X2250Y699D01*
X2248Y699D01*
X2248Y671D01*
X2246Y671D01*
X2246Y643D01*
X2244Y643D01*
X2244Y615D01*
X2242Y615D01*
X2242Y587D01*
X2240Y587D01*
X2240Y559D01*
X2238Y559D01*
X2238Y531D01*
X2236Y531D01*
X2236Y503D01*
X2234Y503D01*
X2234Y473D01*
X2232Y473D01*
X2232Y453D01*
X2236Y453D01*
X2236Y451D01*
X2238Y451D01*
X2238Y449D01*
X2240Y449D01*
X2240Y447D01*
X2242Y447D01*
X2242Y445D01*
X2244Y445D01*
X2244Y443D01*
X2246Y443D01*
X2246Y441D01*
X2248Y441D01*
X2248Y437D01*
X2250Y437D01*
X2250Y433D01*
X2252Y433D01*
X2252Y427D01*
X2254Y427D01*
X2254Y419D01*
X2256Y419D01*
X2256Y407D01*
X2254Y407D01*
X2254Y397D01*
X2252Y397D01*
X2252Y393D01*
X2250Y393D01*
X2250Y389D01*
X2248Y389D01*
X2248Y385D01*
X2246Y385D01*
X2246Y383D01*
X2244Y383D01*
X2244Y381D01*
X2242Y381D01*
X2242Y377D01*
X2238Y377D01*
X2238Y375D01*
X2236Y375D01*
X2236Y373D01*
X2234Y373D01*
X2234Y371D01*
X2230Y371D01*
X2230Y369D01*
X2226Y369D01*
X2226Y367D01*
X2220Y367D01*
X2220Y365D01*
X2898Y365D01*
X2898Y367D01*
X2892Y367D01*
X2892Y369D01*
X2886Y369D01*
X2886Y371D01*
X2882Y371D01*
X2882Y373D01*
X2880Y373D01*
X2880Y375D01*
X2876Y375D01*
X2876Y377D01*
X2874Y377D01*
X2874Y379D01*
X2872Y379D01*
X2872Y381D01*
X2870Y381D01*
X2870Y385D01*
X2868Y385D01*
X2868Y387D01*
X2866Y387D01*
X2866Y391D01*
X2864Y391D01*
X2864Y393D01*
X2862Y393D01*
X2862Y401D01*
X2860Y401D01*
X2860Y411D01*
X2858Y411D01*
X2858Y413D01*
X2854Y413D01*
X2854Y415D01*
X2850Y415D01*
X2850Y417D01*
X2846Y417D01*
X2846Y419D01*
X2842Y419D01*
X2842Y421D01*
X2838Y421D01*
X2838Y423D01*
X2834Y423D01*
X2834Y425D01*
X2830Y425D01*
X2830Y427D01*
X2826Y427D01*
X2826Y429D01*
X2822Y429D01*
X2822Y431D01*
X2818Y431D01*
X2818Y433D01*
X2814Y433D01*
X2814Y435D01*
X2810Y435D01*
X2810Y437D01*
X2806Y437D01*
X2806Y439D01*
X2802Y439D01*
X2802Y441D01*
X2798Y441D01*
X2798Y443D01*
X2794Y443D01*
X2794Y445D01*
X2790Y445D01*
X2790Y447D01*
X2786Y447D01*
X2786Y449D01*
X2782Y449D01*
X2782Y451D01*
X2778Y451D01*
X2778Y453D01*
X2774Y453D01*
X2774Y455D01*
X2770Y455D01*
X2770Y457D01*
X2766Y457D01*
X2766Y459D01*
X2762Y459D01*
X2762Y461D01*
X2758Y461D01*
X2758Y463D01*
X2754Y463D01*
X2754Y465D01*
X2750Y465D01*
X2750Y467D01*
X2746Y467D01*
X2746Y469D01*
X2742Y469D01*
X2742Y471D01*
X2738Y471D01*
X2738Y473D01*
X2734Y473D01*
X2734Y475D01*
X2730Y475D01*
X2730Y477D01*
X2726Y477D01*
X2726Y479D01*
X2722Y479D01*
X2722Y481D01*
X2718Y481D01*
X2718Y483D01*
X2714Y483D01*
X2714Y485D01*
X2710Y485D01*
X2710Y487D01*
X2706Y487D01*
X2706Y489D01*
X2702Y489D01*
X2702Y491D01*
X2698Y491D01*
X2698Y493D01*
X2694Y493D01*
X2694Y495D01*
X2690Y495D01*
X2690Y497D01*
X2686Y497D01*
X2686Y499D01*
X2682Y499D01*
X2682Y501D01*
X2678Y501D01*
X2678Y503D01*
X2674Y503D01*
X2674Y505D01*
X2670Y505D01*
X2670Y507D01*
X2666Y507D01*
X2666Y509D01*
X2662Y509D01*
X2662Y511D01*
X2658Y511D01*
X2658Y513D01*
X2654Y513D01*
X2654Y515D01*
X2650Y515D01*
X2650Y517D01*
X2646Y517D01*
X2646Y519D01*
X2642Y519D01*
X2642Y521D01*
X2638Y521D01*
X2638Y523D01*
X2634Y523D01*
X2634Y525D01*
X2630Y525D01*
X2630Y527D01*
X2626Y527D01*
X2626Y529D01*
X2622Y529D01*
X2622Y531D01*
X2618Y531D01*
X2618Y533D01*
X2614Y533D01*
X2614Y535D01*
X2610Y535D01*
X2610Y537D01*
X2606Y537D01*
X2606Y539D01*
X2602Y539D01*
X2602Y541D01*
X2598Y541D01*
X2598Y543D01*
X2594Y543D01*
X2594Y545D01*
X2590Y545D01*
X2590Y547D01*
X2586Y547D01*
X2586Y549D01*
X2582Y549D01*
X2582Y551D01*
X2578Y551D01*
X2578Y553D01*
X2574Y553D01*
X2574Y555D01*
X2570Y555D01*
X2570Y557D01*
X2566Y557D01*
X2566Y559D01*
X2562Y559D01*
X2562Y561D01*
X2558Y561D01*
X2558Y563D01*
X2554Y563D01*
X2554Y565D01*
X2550Y565D01*
X2550Y567D01*
X2546Y567D01*
X2546Y569D01*
X2542Y569D01*
X2542Y571D01*
X2538Y571D01*
X2538Y573D01*
X2534Y573D01*
X2534Y575D01*
X2530Y575D01*
X2530Y577D01*
X2526Y577D01*
X2526Y579D01*
X2522Y579D01*
X2522Y581D01*
X2518Y581D01*
X2518Y583D01*
X2514Y583D01*
X2514Y585D01*
X2510Y585D01*
X2510Y587D01*
X2506Y587D01*
X2506Y589D01*
X2502Y589D01*
X2502Y591D01*
X2498Y591D01*
X2498Y593D01*
X2494Y593D01*
X2494Y595D01*
X2492Y595D01*
X2492Y597D01*
X2490Y597D01*
X2490Y599D01*
X2488Y599D01*
X2488Y601D01*
X2486Y601D01*
X2486Y605D01*
X2484Y605D01*
X2484Y607D01*
X2482Y607D01*
X2482Y611D01*
X2480Y611D01*
X2480Y613D01*
X2478Y613D01*
X2478Y617D01*
X2476Y617D01*
X2476Y619D01*
X2474Y619D01*
X2474Y623D01*
X2472Y623D01*
X2472Y625D01*
X2470Y625D01*
X2470Y629D01*
X2468Y629D01*
X2468Y631D01*
X2466Y631D01*
X2466Y635D01*
X2464Y635D01*
X2464Y637D01*
X2462Y637D01*
X2462Y641D01*
X2460Y641D01*
X2460Y643D01*
X2458Y643D01*
X2458Y647D01*
X2456Y647D01*
X2456Y649D01*
X2454Y649D01*
X2454Y653D01*
X2452Y653D01*
X2452Y655D01*
X2450Y655D01*
X2450Y659D01*
X2448Y659D01*
X2448Y661D01*
X2446Y661D01*
X2446Y665D01*
X2444Y665D01*
X2444Y667D01*
X2442Y667D01*
X2442Y671D01*
X2440Y671D01*
X2440Y673D01*
X2438Y673D01*
X2438Y677D01*
X2436Y677D01*
X2436Y679D01*
X2434Y679D01*
X2434Y683D01*
X2432Y683D01*
X2432Y685D01*
X2430Y685D01*
X2430Y689D01*
X2428Y689D01*
X2428Y691D01*
X2426Y691D01*
X2426Y695D01*
X2424Y695D01*
X2424Y697D01*
X2422Y697D01*
X2422Y701D01*
X2420Y701D01*
X2420Y703D01*
X2418Y703D01*
X2418Y707D01*
X2416Y707D01*
X2416Y709D01*
X2414Y709D01*
X2414Y711D01*
X2412Y711D01*
X2412Y715D01*
X2410Y715D01*
X2410Y717D01*
X2408Y717D01*
X2408Y721D01*
X2406Y721D01*
X2406Y723D01*
X2404Y723D01*
X2404Y727D01*
X2402Y727D01*
X2402Y729D01*
X2400Y729D01*
X2400Y733D01*
X2398Y733D01*
X2398Y735D01*
X2396Y735D01*
X2396Y739D01*
X2394Y739D01*
X2394Y741D01*
X2392Y741D01*
X2392Y745D01*
X2390Y745D01*
X2390Y747D01*
X2388Y747D01*
X2388Y751D01*
X2386Y751D01*
X2386Y753D01*
X2384Y753D01*
X2384Y757D01*
X2382Y757D01*
X2382Y759D01*
X2380Y759D01*
X2380Y763D01*
X2378Y763D01*
X2378Y765D01*
X2376Y765D01*
X2376Y769D01*
X2374Y769D01*
X2374Y771D01*
X2372Y771D01*
X2372Y775D01*
X2370Y775D01*
X2370Y777D01*
X2368Y777D01*
X2368Y781D01*
X2366Y781D01*
X2366Y783D01*
X2364Y783D01*
X2364Y787D01*
X2362Y787D01*
X2362Y789D01*
X2360Y789D01*
X2360Y793D01*
X2358Y793D01*
X2358Y795D01*
X2356Y795D01*
X2356Y799D01*
X2354Y799D01*
X2354Y801D01*
X2352Y801D01*
X2352Y805D01*
X2350Y805D01*
X2350Y807D01*
X2348Y807D01*
X2348Y811D01*
X2346Y811D01*
X2346Y813D01*
X2344Y813D01*
X2344Y817D01*
X2342Y817D01*
X2342Y819D01*
X2334Y819D01*
X2334Y821D01*
X2326Y821D01*
X2326Y823D01*
X2320Y823D01*
X2320Y825D01*
X2316Y825D01*
X2316Y827D01*
X2314Y827D01*
X2314Y829D01*
X2312Y829D01*
X2312Y831D01*
X2308Y831D01*
X2308Y833D01*
X2306Y833D01*
X2306Y837D01*
X2304Y837D01*
X2304Y839D01*
X2302Y839D01*
X2302Y843D01*
X2300Y843D01*
X2300Y847D01*
X2298Y847D01*
X2298Y849D01*
X2278Y849D01*
G37*
D02*
G36*
X2478Y849D02*
X2478Y827D01*
X2480Y827D01*
X2480Y823D01*
X2482Y823D01*
X2482Y819D01*
X2534Y819D01*
X2534Y821D01*
X2526Y821D01*
X2526Y823D01*
X2520Y823D01*
X2520Y825D01*
X2516Y825D01*
X2516Y827D01*
X2514Y827D01*
X2514Y829D01*
X2512Y829D01*
X2512Y831D01*
X2508Y831D01*
X2508Y833D01*
X2506Y833D01*
X2506Y837D01*
X2504Y837D01*
X2504Y839D01*
X2502Y839D01*
X2502Y843D01*
X2500Y843D01*
X2500Y847D01*
X2498Y847D01*
X2498Y849D01*
X2478Y849D01*
G37*
D02*
G36*
X2578Y849D02*
X2578Y843D01*
X2576Y843D01*
X2576Y841D01*
X2574Y841D01*
X2574Y837D01*
X2572Y837D01*
X2572Y835D01*
X2570Y835D01*
X2570Y833D01*
X2568Y833D01*
X2568Y831D01*
X2566Y831D01*
X2566Y829D01*
X2564Y829D01*
X2564Y827D01*
X2560Y827D01*
X2560Y825D01*
X2556Y825D01*
X2556Y823D01*
X2552Y823D01*
X2552Y821D01*
X2542Y821D01*
X2542Y819D01*
X2634Y819D01*
X2634Y821D01*
X2626Y821D01*
X2626Y823D01*
X2620Y823D01*
X2620Y825D01*
X2616Y825D01*
X2616Y827D01*
X2614Y827D01*
X2614Y829D01*
X2612Y829D01*
X2612Y831D01*
X2608Y831D01*
X2608Y833D01*
X2606Y833D01*
X2606Y837D01*
X2604Y837D01*
X2604Y839D01*
X2602Y839D01*
X2602Y843D01*
X2600Y843D01*
X2600Y847D01*
X2598Y847D01*
X2598Y849D01*
X2578Y849D01*
G37*
D02*
G36*
X2678Y849D02*
X2678Y843D01*
X2676Y843D01*
X2676Y841D01*
X2674Y841D01*
X2674Y837D01*
X2672Y837D01*
X2672Y835D01*
X2670Y835D01*
X2670Y833D01*
X2668Y833D01*
X2668Y831D01*
X2666Y831D01*
X2666Y829D01*
X2664Y829D01*
X2664Y827D01*
X2660Y827D01*
X2660Y825D01*
X2656Y825D01*
X2656Y823D01*
X2652Y823D01*
X2652Y821D01*
X2642Y821D01*
X2642Y819D01*
X2734Y819D01*
X2734Y821D01*
X2726Y821D01*
X2726Y823D01*
X2720Y823D01*
X2720Y825D01*
X2716Y825D01*
X2716Y827D01*
X2714Y827D01*
X2714Y829D01*
X2712Y829D01*
X2712Y831D01*
X2708Y831D01*
X2708Y833D01*
X2706Y833D01*
X2706Y837D01*
X2704Y837D01*
X2704Y839D01*
X2702Y839D01*
X2702Y843D01*
X2700Y843D01*
X2700Y847D01*
X2698Y847D01*
X2698Y849D01*
X2678Y849D01*
G37*
D02*
G36*
X2778Y849D02*
X2778Y843D01*
X2776Y843D01*
X2776Y841D01*
X2774Y841D01*
X2774Y837D01*
X2772Y837D01*
X2772Y835D01*
X2770Y835D01*
X2770Y833D01*
X2768Y833D01*
X2768Y831D01*
X2766Y831D01*
X2766Y829D01*
X2764Y829D01*
X2764Y827D01*
X2760Y827D01*
X2760Y825D01*
X2756Y825D01*
X2756Y823D01*
X2752Y823D01*
X2752Y821D01*
X2742Y821D01*
X2742Y819D01*
X2834Y819D01*
X2834Y821D01*
X2826Y821D01*
X2826Y823D01*
X2820Y823D01*
X2820Y825D01*
X2816Y825D01*
X2816Y827D01*
X2814Y827D01*
X2814Y829D01*
X2812Y829D01*
X2812Y831D01*
X2808Y831D01*
X2808Y833D01*
X2806Y833D01*
X2806Y837D01*
X2804Y837D01*
X2804Y839D01*
X2802Y839D01*
X2802Y843D01*
X2800Y843D01*
X2800Y847D01*
X2798Y847D01*
X2798Y849D01*
X2778Y849D01*
G37*
D02*
G36*
X2878Y849D02*
X2878Y843D01*
X2876Y843D01*
X2876Y841D01*
X2874Y841D01*
X2874Y837D01*
X2872Y837D01*
X2872Y835D01*
X2870Y835D01*
X2870Y833D01*
X2868Y833D01*
X2868Y831D01*
X2866Y831D01*
X2866Y829D01*
X2864Y829D01*
X2864Y827D01*
X2860Y827D01*
X2860Y825D01*
X2856Y825D01*
X2856Y823D01*
X2852Y823D01*
X2852Y821D01*
X2842Y821D01*
X2842Y819D01*
X2934Y819D01*
X2934Y821D01*
X2926Y821D01*
X2926Y823D01*
X2920Y823D01*
X2920Y825D01*
X2916Y825D01*
X2916Y827D01*
X2914Y827D01*
X2914Y829D01*
X2912Y829D01*
X2912Y831D01*
X2908Y831D01*
X2908Y833D01*
X2906Y833D01*
X2906Y837D01*
X2904Y837D01*
X2904Y839D01*
X2902Y839D01*
X2902Y843D01*
X2900Y843D01*
X2900Y847D01*
X2898Y847D01*
X2898Y849D01*
X2878Y849D01*
G37*
D02*
G36*
X2978Y849D02*
X2978Y843D01*
X2976Y843D01*
X2976Y841D01*
X2974Y841D01*
X2974Y837D01*
X2972Y837D01*
X2972Y835D01*
X2970Y835D01*
X2970Y833D01*
X2968Y833D01*
X2968Y831D01*
X2966Y831D01*
X2966Y829D01*
X2964Y829D01*
X2964Y827D01*
X2960Y827D01*
X2960Y825D01*
X2956Y825D01*
X2956Y823D01*
X2952Y823D01*
X2952Y821D01*
X2942Y821D01*
X2942Y819D01*
X3034Y819D01*
X3034Y821D01*
X3026Y821D01*
X3026Y823D01*
X3020Y823D01*
X3020Y825D01*
X3016Y825D01*
X3016Y827D01*
X3014Y827D01*
X3014Y829D01*
X3012Y829D01*
X3012Y831D01*
X3008Y831D01*
X3008Y833D01*
X3006Y833D01*
X3006Y837D01*
X3004Y837D01*
X3004Y839D01*
X3002Y839D01*
X3002Y843D01*
X3000Y843D01*
X3000Y847D01*
X2998Y847D01*
X2998Y849D01*
X2978Y849D01*
G37*
D02*
G36*
X3078Y849D02*
X3078Y843D01*
X3076Y843D01*
X3076Y841D01*
X3074Y841D01*
X3074Y837D01*
X3072Y837D01*
X3072Y835D01*
X3070Y835D01*
X3070Y833D01*
X3068Y833D01*
X3068Y831D01*
X3066Y831D01*
X3066Y829D01*
X3064Y829D01*
X3064Y827D01*
X3060Y827D01*
X3060Y825D01*
X3056Y825D01*
X3056Y823D01*
X3052Y823D01*
X3052Y821D01*
X3042Y821D01*
X3042Y819D01*
X3114Y819D01*
X3114Y829D01*
X3112Y829D01*
X3112Y831D01*
X3108Y831D01*
X3108Y833D01*
X3106Y833D01*
X3106Y837D01*
X3104Y837D01*
X3104Y839D01*
X3102Y839D01*
X3102Y843D01*
X3100Y843D01*
X3100Y847D01*
X3098Y847D01*
X3098Y849D01*
X3078Y849D01*
G37*
D02*
G36*
X3622Y833D02*
X3622Y831D01*
X3918Y831D01*
X3918Y833D01*
X3622Y833D01*
G37*
D02*
G36*
X3622Y833D02*
X3622Y831D01*
X3918Y831D01*
X3918Y833D01*
X3622Y833D01*
G37*
D02*
G36*
X3624Y831D02*
X3624Y827D01*
X3628Y827D01*
X3628Y825D01*
X3632Y825D01*
X3632Y823D01*
X3636Y823D01*
X3636Y821D01*
X3640Y821D01*
X3640Y819D01*
X3644Y819D01*
X3644Y817D01*
X3648Y817D01*
X3648Y815D01*
X3652Y815D01*
X3652Y813D01*
X3656Y813D01*
X3656Y811D01*
X3660Y811D01*
X3660Y809D01*
X3666Y809D01*
X3666Y807D01*
X3670Y807D01*
X3670Y805D01*
X3674Y805D01*
X3674Y803D01*
X3678Y803D01*
X3678Y801D01*
X3682Y801D01*
X3682Y799D01*
X3686Y799D01*
X3686Y797D01*
X3690Y797D01*
X3690Y795D01*
X3694Y795D01*
X3694Y793D01*
X3698Y793D01*
X3698Y791D01*
X3702Y791D01*
X3702Y789D01*
X3706Y789D01*
X3706Y787D01*
X3710Y787D01*
X3710Y785D01*
X3714Y785D01*
X3714Y783D01*
X3718Y783D01*
X3718Y781D01*
X3722Y781D01*
X3722Y779D01*
X3726Y779D01*
X3726Y777D01*
X3730Y777D01*
X3730Y775D01*
X3734Y775D01*
X3734Y773D01*
X3738Y773D01*
X3738Y771D01*
X3742Y771D01*
X3742Y769D01*
X3746Y769D01*
X3746Y767D01*
X3750Y767D01*
X3750Y765D01*
X3754Y765D01*
X3754Y763D01*
X3758Y763D01*
X3758Y761D01*
X3762Y761D01*
X3762Y759D01*
X3766Y759D01*
X3766Y757D01*
X3770Y757D01*
X3770Y755D01*
X3774Y755D01*
X3774Y753D01*
X3778Y753D01*
X3778Y751D01*
X3782Y751D01*
X3782Y749D01*
X3786Y749D01*
X3786Y747D01*
X3790Y747D01*
X3790Y745D01*
X3796Y745D01*
X3796Y743D01*
X3800Y743D01*
X3800Y741D01*
X3804Y741D01*
X3804Y739D01*
X3808Y739D01*
X3808Y737D01*
X3812Y737D01*
X3812Y735D01*
X3816Y735D01*
X3816Y733D01*
X3818Y733D01*
X3818Y731D01*
X3822Y731D01*
X3822Y729D01*
X3824Y729D01*
X3824Y725D01*
X3826Y725D01*
X3826Y723D01*
X3828Y723D01*
X3828Y305D01*
X3826Y305D01*
X3826Y301D01*
X3824Y301D01*
X3824Y297D01*
X3822Y297D01*
X3822Y295D01*
X3818Y295D01*
X3818Y293D01*
X3816Y293D01*
X3816Y291D01*
X3812Y291D01*
X3812Y289D01*
X3810Y289D01*
X3810Y287D01*
X3806Y287D01*
X3806Y285D01*
X3804Y285D01*
X3804Y283D01*
X3800Y283D01*
X3800Y281D01*
X3798Y281D01*
X3798Y279D01*
X3794Y279D01*
X3794Y277D01*
X3792Y277D01*
X3792Y275D01*
X3788Y275D01*
X3788Y273D01*
X3786Y273D01*
X3786Y271D01*
X3782Y271D01*
X3782Y269D01*
X3780Y269D01*
X3780Y267D01*
X3776Y267D01*
X3776Y265D01*
X3774Y265D01*
X3774Y263D01*
X3770Y263D01*
X3770Y261D01*
X3768Y261D01*
X3768Y259D01*
X3764Y259D01*
X3764Y257D01*
X3760Y257D01*
X3760Y255D01*
X3758Y255D01*
X3758Y253D01*
X3754Y253D01*
X3754Y251D01*
X3752Y251D01*
X3752Y249D01*
X3748Y249D01*
X3748Y247D01*
X3746Y247D01*
X3746Y245D01*
X3742Y245D01*
X3742Y243D01*
X3740Y243D01*
X3740Y241D01*
X3736Y241D01*
X3736Y239D01*
X3734Y239D01*
X3734Y237D01*
X3730Y237D01*
X3730Y235D01*
X3728Y235D01*
X3728Y233D01*
X3724Y233D01*
X3724Y231D01*
X3722Y231D01*
X3722Y229D01*
X3718Y229D01*
X3718Y227D01*
X3716Y227D01*
X3716Y225D01*
X3712Y225D01*
X3712Y223D01*
X3710Y223D01*
X3710Y221D01*
X3706Y221D01*
X3706Y219D01*
X3704Y219D01*
X3704Y217D01*
X3700Y217D01*
X3700Y215D01*
X3698Y215D01*
X3698Y213D01*
X3694Y213D01*
X3694Y211D01*
X3692Y211D01*
X3692Y209D01*
X3688Y209D01*
X3688Y207D01*
X3686Y207D01*
X3686Y205D01*
X3682Y205D01*
X3682Y203D01*
X3680Y203D01*
X3680Y201D01*
X3676Y201D01*
X3676Y199D01*
X3674Y199D01*
X3674Y197D01*
X3670Y197D01*
X3670Y195D01*
X3666Y195D01*
X3666Y193D01*
X3664Y193D01*
X3664Y191D01*
X3660Y191D01*
X3660Y189D01*
X3658Y189D01*
X3658Y187D01*
X3654Y187D01*
X3654Y185D01*
X3822Y185D01*
X3822Y183D01*
X3828Y183D01*
X3828Y181D01*
X3834Y181D01*
X3834Y179D01*
X3838Y179D01*
X3838Y177D01*
X3842Y177D01*
X3842Y175D01*
X3846Y175D01*
X3846Y173D01*
X3848Y173D01*
X3848Y171D01*
X3852Y171D01*
X3852Y169D01*
X3854Y169D01*
X3854Y167D01*
X3856Y167D01*
X3856Y165D01*
X3858Y165D01*
X3858Y163D01*
X3860Y163D01*
X3860Y161D01*
X3862Y161D01*
X3862Y159D01*
X3864Y159D01*
X3864Y157D01*
X3866Y157D01*
X3866Y153D01*
X3868Y153D01*
X3868Y151D01*
X3870Y151D01*
X3870Y147D01*
X3872Y147D01*
X3872Y143D01*
X3874Y143D01*
X3874Y137D01*
X3876Y137D01*
X3876Y131D01*
X3878Y131D01*
X3878Y121D01*
X3880Y121D01*
X3880Y105D01*
X3878Y105D01*
X3878Y95D01*
X3876Y95D01*
X3876Y89D01*
X3874Y89D01*
X3874Y83D01*
X3872Y83D01*
X3872Y79D01*
X3870Y79D01*
X3870Y75D01*
X3868Y75D01*
X3868Y73D01*
X3866Y73D01*
X3866Y69D01*
X3864Y69D01*
X3864Y67D01*
X3862Y67D01*
X3862Y65D01*
X3860Y65D01*
X3860Y63D01*
X3858Y63D01*
X3858Y61D01*
X3856Y61D01*
X3856Y41D01*
X3918Y41D01*
X3918Y831D01*
X3624Y831D01*
G37*
D02*
G36*
X2482Y819D02*
X2482Y817D01*
X3114Y817D01*
X3114Y819D01*
X2482Y819D01*
G37*
D02*
G36*
X2482Y819D02*
X2482Y817D01*
X3114Y817D01*
X3114Y819D01*
X2482Y819D01*
G37*
D02*
G36*
X2482Y819D02*
X2482Y817D01*
X3114Y817D01*
X3114Y819D01*
X2482Y819D01*
G37*
D02*
G36*
X2482Y819D02*
X2482Y817D01*
X3114Y817D01*
X3114Y819D01*
X2482Y819D01*
G37*
D02*
G36*
X2482Y819D02*
X2482Y817D01*
X3114Y817D01*
X3114Y819D01*
X2482Y819D01*
G37*
D02*
G36*
X2482Y819D02*
X2482Y817D01*
X3114Y817D01*
X3114Y819D01*
X2482Y819D01*
G37*
D02*
G36*
X2482Y819D02*
X2482Y817D01*
X3114Y817D01*
X3114Y819D01*
X2482Y819D01*
G37*
D02*
G36*
X2484Y817D02*
X2484Y813D01*
X2486Y813D01*
X2486Y809D01*
X2488Y809D01*
X2488Y805D01*
X2490Y805D01*
X2490Y801D01*
X2492Y801D01*
X2492Y795D01*
X2494Y795D01*
X2494Y791D01*
X2496Y791D01*
X2496Y787D01*
X2498Y787D01*
X2498Y783D01*
X2500Y783D01*
X2500Y777D01*
X2502Y777D01*
X2502Y773D01*
X2504Y773D01*
X2504Y769D01*
X2506Y769D01*
X2506Y765D01*
X2508Y765D01*
X2508Y761D01*
X2510Y761D01*
X2510Y755D01*
X2512Y755D01*
X2512Y751D01*
X2514Y751D01*
X2514Y747D01*
X2516Y747D01*
X2516Y743D01*
X2518Y743D01*
X2518Y737D01*
X2520Y737D01*
X2520Y733D01*
X2522Y733D01*
X2522Y731D01*
X2526Y731D01*
X2526Y729D01*
X2534Y729D01*
X2534Y727D01*
X2542Y727D01*
X2542Y725D01*
X2550Y725D01*
X2550Y723D01*
X2558Y723D01*
X2558Y721D01*
X2566Y721D01*
X2566Y719D01*
X2574Y719D01*
X2574Y717D01*
X2582Y717D01*
X2582Y715D01*
X2590Y715D01*
X2590Y713D01*
X2598Y713D01*
X2598Y711D01*
X2606Y711D01*
X2606Y709D01*
X2614Y709D01*
X2614Y707D01*
X2622Y707D01*
X2622Y705D01*
X2630Y705D01*
X2630Y703D01*
X2638Y703D01*
X2638Y701D01*
X2646Y701D01*
X2646Y699D01*
X2654Y699D01*
X2654Y697D01*
X2662Y697D01*
X2662Y695D01*
X2670Y695D01*
X2670Y693D01*
X2678Y693D01*
X2678Y691D01*
X2686Y691D01*
X2686Y689D01*
X2694Y689D01*
X2694Y687D01*
X2702Y687D01*
X2702Y685D01*
X2710Y685D01*
X2710Y683D01*
X2720Y683D01*
X2720Y681D01*
X2728Y681D01*
X2728Y679D01*
X2736Y679D01*
X2736Y677D01*
X2744Y677D01*
X2744Y675D01*
X2752Y675D01*
X2752Y673D01*
X2760Y673D01*
X2760Y671D01*
X2768Y671D01*
X2768Y669D01*
X2776Y669D01*
X2776Y667D01*
X2784Y667D01*
X2784Y665D01*
X2792Y665D01*
X2792Y663D01*
X2800Y663D01*
X2800Y661D01*
X2910Y661D01*
X2910Y659D01*
X2920Y659D01*
X2920Y657D01*
X2926Y657D01*
X2926Y655D01*
X2930Y655D01*
X2930Y653D01*
X2934Y653D01*
X2934Y651D01*
X2936Y651D01*
X2936Y649D01*
X2938Y649D01*
X2938Y647D01*
X2940Y647D01*
X2940Y645D01*
X2942Y645D01*
X2942Y643D01*
X2944Y643D01*
X2944Y641D01*
X2946Y641D01*
X2946Y637D01*
X2948Y637D01*
X2948Y633D01*
X2950Y633D01*
X2950Y629D01*
X2952Y629D01*
X2952Y623D01*
X2954Y623D01*
X2954Y603D01*
X2952Y603D01*
X2952Y597D01*
X2950Y597D01*
X2950Y591D01*
X2948Y591D01*
X2948Y589D01*
X2946Y589D01*
X2946Y585D01*
X2944Y585D01*
X2944Y583D01*
X2942Y583D01*
X2942Y581D01*
X2940Y581D01*
X2940Y579D01*
X2938Y579D01*
X2938Y577D01*
X2936Y577D01*
X2936Y575D01*
X2934Y575D01*
X2934Y573D01*
X2930Y573D01*
X2930Y571D01*
X2926Y571D01*
X2926Y569D01*
X2922Y569D01*
X2922Y567D01*
X2914Y567D01*
X2914Y565D01*
X3104Y565D01*
X3104Y591D01*
X3106Y591D01*
X3106Y639D01*
X3108Y639D01*
X3108Y685D01*
X3110Y685D01*
X3110Y731D01*
X3112Y731D01*
X3112Y779D01*
X3114Y779D01*
X3114Y817D01*
X2484Y817D01*
G37*
D02*
G36*
X40Y761D02*
X40Y363D01*
X302Y363D01*
X302Y365D01*
X292Y365D01*
X292Y367D01*
X286Y367D01*
X286Y369D01*
X284Y369D01*
X284Y371D01*
X280Y371D01*
X280Y373D01*
X276Y373D01*
X276Y375D01*
X274Y375D01*
X274Y377D01*
X272Y377D01*
X272Y379D01*
X270Y379D01*
X270Y381D01*
X268Y381D01*
X268Y385D01*
X266Y385D01*
X266Y387D01*
X264Y387D01*
X264Y391D01*
X262Y391D01*
X262Y395D01*
X260Y395D01*
X260Y401D01*
X258Y401D01*
X258Y423D01*
X260Y423D01*
X260Y431D01*
X262Y431D01*
X262Y435D01*
X264Y435D01*
X264Y439D01*
X266Y439D01*
X266Y441D01*
X268Y441D01*
X268Y443D01*
X270Y443D01*
X270Y447D01*
X272Y447D01*
X272Y449D01*
X276Y449D01*
X276Y451D01*
X278Y451D01*
X278Y453D01*
X280Y453D01*
X280Y473D01*
X276Y473D01*
X276Y475D01*
X274Y475D01*
X274Y477D01*
X272Y477D01*
X272Y479D01*
X270Y479D01*
X270Y481D01*
X268Y481D01*
X268Y485D01*
X266Y485D01*
X266Y487D01*
X264Y487D01*
X264Y491D01*
X262Y491D01*
X262Y495D01*
X260Y495D01*
X260Y501D01*
X258Y501D01*
X258Y523D01*
X260Y523D01*
X260Y531D01*
X262Y531D01*
X262Y535D01*
X264Y535D01*
X264Y539D01*
X266Y539D01*
X266Y541D01*
X268Y541D01*
X268Y543D01*
X270Y543D01*
X270Y547D01*
X272Y547D01*
X272Y549D01*
X276Y549D01*
X276Y551D01*
X278Y551D01*
X278Y553D01*
X280Y553D01*
X280Y573D01*
X276Y573D01*
X276Y575D01*
X274Y575D01*
X274Y577D01*
X272Y577D01*
X272Y579D01*
X270Y579D01*
X270Y581D01*
X268Y581D01*
X268Y585D01*
X266Y585D01*
X266Y587D01*
X264Y587D01*
X264Y591D01*
X262Y591D01*
X262Y595D01*
X260Y595D01*
X260Y601D01*
X258Y601D01*
X258Y623D01*
X260Y623D01*
X260Y631D01*
X262Y631D01*
X262Y635D01*
X264Y635D01*
X264Y639D01*
X266Y639D01*
X266Y641D01*
X268Y641D01*
X268Y643D01*
X270Y643D01*
X270Y647D01*
X272Y647D01*
X272Y649D01*
X276Y649D01*
X276Y651D01*
X278Y651D01*
X278Y653D01*
X280Y653D01*
X280Y673D01*
X276Y673D01*
X276Y675D01*
X274Y675D01*
X274Y677D01*
X272Y677D01*
X272Y679D01*
X270Y679D01*
X270Y681D01*
X268Y681D01*
X268Y685D01*
X266Y685D01*
X266Y687D01*
X264Y687D01*
X264Y691D01*
X262Y691D01*
X262Y695D01*
X260Y695D01*
X260Y701D01*
X258Y701D01*
X258Y723D01*
X260Y723D01*
X260Y731D01*
X262Y731D01*
X262Y735D01*
X264Y735D01*
X264Y739D01*
X266Y739D01*
X266Y741D01*
X268Y741D01*
X268Y743D01*
X270Y743D01*
X270Y747D01*
X272Y747D01*
X272Y749D01*
X276Y749D01*
X276Y751D01*
X278Y751D01*
X278Y753D01*
X280Y753D01*
X280Y755D01*
X284Y755D01*
X284Y757D01*
X288Y757D01*
X288Y759D01*
X294Y759D01*
X294Y761D01*
X40Y761D01*
G37*
D02*
G36*
X654Y761D02*
X654Y665D01*
X640Y665D01*
X640Y645D01*
X642Y645D01*
X642Y643D01*
X644Y643D01*
X644Y641D01*
X646Y641D01*
X646Y637D01*
X648Y637D01*
X648Y635D01*
X866Y635D01*
X866Y639D01*
X868Y639D01*
X868Y641D01*
X870Y641D01*
X870Y643D01*
X872Y643D01*
X872Y647D01*
X876Y647D01*
X876Y649D01*
X878Y649D01*
X878Y651D01*
X880Y651D01*
X880Y653D01*
X882Y653D01*
X882Y673D01*
X880Y673D01*
X880Y675D01*
X876Y675D01*
X876Y677D01*
X874Y677D01*
X874Y679D01*
X872Y679D01*
X872Y681D01*
X870Y681D01*
X870Y685D01*
X868Y685D01*
X868Y687D01*
X866Y687D01*
X866Y691D01*
X864Y691D01*
X864Y693D01*
X862Y693D01*
X862Y701D01*
X860Y701D01*
X860Y725D01*
X862Y725D01*
X862Y731D01*
X864Y731D01*
X864Y735D01*
X866Y735D01*
X866Y739D01*
X868Y739D01*
X868Y741D01*
X870Y741D01*
X870Y743D01*
X872Y743D01*
X872Y747D01*
X876Y747D01*
X876Y749D01*
X878Y749D01*
X878Y751D01*
X880Y751D01*
X880Y753D01*
X884Y753D01*
X884Y755D01*
X888Y755D01*
X888Y757D01*
X894Y757D01*
X894Y759D01*
X902Y759D01*
X902Y761D01*
X654Y761D01*
G37*
D02*
G36*
X2480Y691D02*
X2480Y689D01*
X2482Y689D01*
X2482Y687D01*
X2484Y687D01*
X2484Y683D01*
X2486Y683D01*
X2486Y681D01*
X2488Y681D01*
X2488Y677D01*
X2490Y677D01*
X2490Y675D01*
X2492Y675D01*
X2492Y671D01*
X2494Y671D01*
X2494Y669D01*
X2496Y669D01*
X2496Y665D01*
X2498Y665D01*
X2498Y663D01*
X2500Y663D01*
X2500Y659D01*
X2502Y659D01*
X2502Y657D01*
X2504Y657D01*
X2504Y653D01*
X2506Y653D01*
X2506Y651D01*
X2508Y651D01*
X2508Y647D01*
X2510Y647D01*
X2510Y645D01*
X2512Y645D01*
X2512Y641D01*
X2514Y641D01*
X2514Y639D01*
X2516Y639D01*
X2516Y635D01*
X2518Y635D01*
X2518Y633D01*
X2520Y633D01*
X2520Y629D01*
X2524Y629D01*
X2524Y627D01*
X2528Y627D01*
X2528Y625D01*
X2532Y625D01*
X2532Y623D01*
X2536Y623D01*
X2536Y621D01*
X2540Y621D01*
X2540Y619D01*
X2544Y619D01*
X2544Y617D01*
X2548Y617D01*
X2548Y615D01*
X2552Y615D01*
X2552Y613D01*
X2556Y613D01*
X2556Y611D01*
X2560Y611D01*
X2560Y609D01*
X2564Y609D01*
X2564Y607D01*
X2568Y607D01*
X2568Y605D01*
X2572Y605D01*
X2572Y603D01*
X2576Y603D01*
X2576Y601D01*
X2580Y601D01*
X2580Y599D01*
X2584Y599D01*
X2584Y597D01*
X2588Y597D01*
X2588Y595D01*
X2592Y595D01*
X2592Y593D01*
X2596Y593D01*
X2596Y591D01*
X2600Y591D01*
X2600Y589D01*
X2604Y589D01*
X2604Y587D01*
X2608Y587D01*
X2608Y585D01*
X2612Y585D01*
X2612Y583D01*
X2616Y583D01*
X2616Y581D01*
X2620Y581D01*
X2620Y579D01*
X2624Y579D01*
X2624Y577D01*
X2628Y577D01*
X2628Y575D01*
X2632Y575D01*
X2632Y573D01*
X2636Y573D01*
X2636Y571D01*
X2640Y571D01*
X2640Y569D01*
X2644Y569D01*
X2644Y567D01*
X2648Y567D01*
X2648Y565D01*
X2898Y565D01*
X2898Y567D01*
X2892Y567D01*
X2892Y569D01*
X2886Y569D01*
X2886Y571D01*
X2882Y571D01*
X2882Y573D01*
X2880Y573D01*
X2880Y575D01*
X2876Y575D01*
X2876Y577D01*
X2874Y577D01*
X2874Y579D01*
X2872Y579D01*
X2872Y581D01*
X2870Y581D01*
X2870Y585D01*
X2868Y585D01*
X2868Y587D01*
X2866Y587D01*
X2866Y591D01*
X2864Y591D01*
X2864Y593D01*
X2862Y593D01*
X2862Y601D01*
X2858Y601D01*
X2858Y603D01*
X2850Y603D01*
X2850Y605D01*
X2842Y605D01*
X2842Y607D01*
X2834Y607D01*
X2834Y609D01*
X2826Y609D01*
X2826Y611D01*
X2818Y611D01*
X2818Y613D01*
X2810Y613D01*
X2810Y615D01*
X2802Y615D01*
X2802Y617D01*
X2794Y617D01*
X2794Y619D01*
X2786Y619D01*
X2786Y621D01*
X2778Y621D01*
X2778Y623D01*
X2770Y623D01*
X2770Y625D01*
X2762Y625D01*
X2762Y627D01*
X2754Y627D01*
X2754Y629D01*
X2746Y629D01*
X2746Y631D01*
X2738Y631D01*
X2738Y633D01*
X2730Y633D01*
X2730Y635D01*
X2722Y635D01*
X2722Y637D01*
X2714Y637D01*
X2714Y639D01*
X2706Y639D01*
X2706Y641D01*
X2698Y641D01*
X2698Y643D01*
X2690Y643D01*
X2690Y645D01*
X2682Y645D01*
X2682Y647D01*
X2674Y647D01*
X2674Y649D01*
X2666Y649D01*
X2666Y651D01*
X2658Y651D01*
X2658Y653D01*
X2650Y653D01*
X2650Y655D01*
X2642Y655D01*
X2642Y657D01*
X2634Y657D01*
X2634Y659D01*
X2626Y659D01*
X2626Y661D01*
X2618Y661D01*
X2618Y663D01*
X2608Y663D01*
X2608Y665D01*
X2600Y665D01*
X2600Y667D01*
X2592Y667D01*
X2592Y669D01*
X2584Y669D01*
X2584Y671D01*
X2576Y671D01*
X2576Y673D01*
X2568Y673D01*
X2568Y675D01*
X2560Y675D01*
X2560Y677D01*
X2552Y677D01*
X2552Y679D01*
X2544Y679D01*
X2544Y681D01*
X2536Y681D01*
X2536Y683D01*
X2528Y683D01*
X2528Y685D01*
X2520Y685D01*
X2520Y687D01*
X2512Y687D01*
X2512Y689D01*
X2504Y689D01*
X2504Y691D01*
X2480Y691D01*
G37*
D02*
G36*
X2808Y661D02*
X2808Y659D01*
X2816Y659D01*
X2816Y657D01*
X2824Y657D01*
X2824Y655D01*
X2832Y655D01*
X2832Y653D01*
X2840Y653D01*
X2840Y651D01*
X2848Y651D01*
X2848Y649D01*
X2856Y649D01*
X2856Y647D01*
X2876Y647D01*
X2876Y649D01*
X2878Y649D01*
X2878Y651D01*
X2880Y651D01*
X2880Y653D01*
X2884Y653D01*
X2884Y655D01*
X2888Y655D01*
X2888Y657D01*
X2894Y657D01*
X2894Y659D01*
X2902Y659D01*
X2902Y661D01*
X2808Y661D01*
G37*
D02*
G36*
X648Y591D02*
X648Y589D01*
X646Y589D01*
X646Y585D01*
X644Y585D01*
X644Y583D01*
X642Y583D01*
X642Y581D01*
X640Y581D01*
X640Y579D01*
X638Y579D01*
X638Y577D01*
X636Y577D01*
X636Y575D01*
X634Y575D01*
X634Y573D01*
X630Y573D01*
X630Y571D01*
X626Y571D01*
X626Y569D01*
X622Y569D01*
X622Y567D01*
X614Y567D01*
X614Y565D01*
X898Y565D01*
X898Y567D01*
X892Y567D01*
X892Y569D01*
X886Y569D01*
X886Y571D01*
X882Y571D01*
X882Y573D01*
X880Y573D01*
X880Y575D01*
X876Y575D01*
X876Y577D01*
X874Y577D01*
X874Y579D01*
X872Y579D01*
X872Y581D01*
X870Y581D01*
X870Y585D01*
X868Y585D01*
X868Y587D01*
X866Y587D01*
X866Y591D01*
X648Y591D01*
G37*
D02*
G36*
X938Y579D02*
X938Y577D01*
X936Y577D01*
X936Y575D01*
X934Y575D01*
X934Y573D01*
X930Y573D01*
X930Y571D01*
X926Y571D01*
X926Y569D01*
X922Y569D01*
X922Y567D01*
X914Y567D01*
X914Y565D01*
X1024Y565D01*
X1024Y567D01*
X1014Y567D01*
X1014Y569D01*
X1004Y569D01*
X1004Y571D01*
X994Y571D01*
X994Y573D01*
X984Y573D01*
X984Y575D01*
X974Y575D01*
X974Y577D01*
X964Y577D01*
X964Y579D01*
X938Y579D01*
G37*
D02*
G36*
X590Y565D02*
X590Y563D01*
X1034Y563D01*
X1034Y565D01*
X590Y565D01*
G37*
D02*
G36*
X590Y565D02*
X590Y563D01*
X1034Y563D01*
X1034Y565D01*
X590Y565D01*
G37*
D02*
G36*
X2652Y565D02*
X2652Y563D01*
X3104Y563D01*
X3104Y565D01*
X2652Y565D01*
G37*
D02*
G36*
X2652Y565D02*
X2652Y563D01*
X3104Y563D01*
X3104Y565D01*
X2652Y565D01*
G37*
D02*
G36*
X588Y563D02*
X588Y561D01*
X586Y561D01*
X586Y559D01*
X584Y559D01*
X584Y557D01*
X582Y557D01*
X582Y555D01*
X580Y555D01*
X580Y553D01*
X578Y553D01*
X578Y551D01*
X576Y551D01*
X576Y549D01*
X574Y549D01*
X574Y547D01*
X572Y547D01*
X572Y545D01*
X570Y545D01*
X570Y543D01*
X568Y543D01*
X568Y541D01*
X566Y541D01*
X566Y539D01*
X564Y539D01*
X564Y537D01*
X562Y537D01*
X562Y535D01*
X560Y535D01*
X560Y533D01*
X558Y533D01*
X558Y531D01*
X556Y531D01*
X556Y529D01*
X554Y529D01*
X554Y527D01*
X552Y527D01*
X552Y525D01*
X550Y525D01*
X550Y523D01*
X548Y523D01*
X548Y521D01*
X546Y521D01*
X546Y519D01*
X544Y519D01*
X544Y515D01*
X542Y515D01*
X542Y513D01*
X540Y513D01*
X540Y511D01*
X538Y511D01*
X538Y509D01*
X536Y509D01*
X536Y507D01*
X534Y507D01*
X534Y505D01*
X532Y505D01*
X532Y503D01*
X530Y503D01*
X530Y501D01*
X528Y501D01*
X528Y499D01*
X526Y499D01*
X526Y497D01*
X524Y497D01*
X524Y495D01*
X522Y495D01*
X522Y493D01*
X518Y493D01*
X518Y491D01*
X512Y491D01*
X512Y489D01*
X1406Y489D01*
X1406Y491D01*
X1396Y491D01*
X1396Y493D01*
X1386Y493D01*
X1386Y495D01*
X1376Y495D01*
X1376Y497D01*
X1366Y497D01*
X1366Y499D01*
X1356Y499D01*
X1356Y501D01*
X1346Y501D01*
X1346Y503D01*
X1336Y503D01*
X1336Y505D01*
X1326Y505D01*
X1326Y507D01*
X1316Y507D01*
X1316Y509D01*
X1306Y509D01*
X1306Y511D01*
X1296Y511D01*
X1296Y513D01*
X1286Y513D01*
X1286Y515D01*
X1276Y515D01*
X1276Y517D01*
X1264Y517D01*
X1264Y519D01*
X1254Y519D01*
X1254Y521D01*
X1244Y521D01*
X1244Y523D01*
X1234Y523D01*
X1234Y525D01*
X1224Y525D01*
X1224Y527D01*
X1214Y527D01*
X1214Y529D01*
X1204Y529D01*
X1204Y531D01*
X1194Y531D01*
X1194Y533D01*
X1184Y533D01*
X1184Y535D01*
X1174Y535D01*
X1174Y537D01*
X1164Y537D01*
X1164Y539D01*
X1154Y539D01*
X1154Y541D01*
X1144Y541D01*
X1144Y543D01*
X1134Y543D01*
X1134Y545D01*
X1124Y545D01*
X1124Y547D01*
X1114Y547D01*
X1114Y549D01*
X1104Y549D01*
X1104Y551D01*
X1094Y551D01*
X1094Y553D01*
X1084Y553D01*
X1084Y555D01*
X1074Y555D01*
X1074Y557D01*
X1064Y557D01*
X1064Y559D01*
X1054Y559D01*
X1054Y561D01*
X1044Y561D01*
X1044Y563D01*
X588Y563D01*
G37*
D02*
G36*
X2656Y563D02*
X2656Y561D01*
X2660Y561D01*
X2660Y559D01*
X2664Y559D01*
X2664Y557D01*
X2668Y557D01*
X2668Y555D01*
X2672Y555D01*
X2672Y553D01*
X2676Y553D01*
X2676Y551D01*
X2680Y551D01*
X2680Y549D01*
X2684Y549D01*
X2684Y547D01*
X2688Y547D01*
X2688Y545D01*
X2692Y545D01*
X2692Y543D01*
X2696Y543D01*
X2696Y541D01*
X2700Y541D01*
X2700Y539D01*
X2704Y539D01*
X2704Y537D01*
X2708Y537D01*
X2708Y535D01*
X2712Y535D01*
X2712Y533D01*
X2716Y533D01*
X2716Y531D01*
X2720Y531D01*
X2720Y529D01*
X2724Y529D01*
X2724Y527D01*
X2728Y527D01*
X2728Y525D01*
X2732Y525D01*
X2732Y523D01*
X2736Y523D01*
X2736Y521D01*
X2740Y521D01*
X2740Y519D01*
X2744Y519D01*
X2744Y517D01*
X2748Y517D01*
X2748Y515D01*
X2752Y515D01*
X2752Y513D01*
X2756Y513D01*
X2756Y511D01*
X2760Y511D01*
X2760Y509D01*
X2764Y509D01*
X2764Y507D01*
X2768Y507D01*
X2768Y505D01*
X2772Y505D01*
X2772Y503D01*
X2776Y503D01*
X2776Y501D01*
X2780Y501D01*
X2780Y499D01*
X2784Y499D01*
X2784Y497D01*
X2788Y497D01*
X2788Y495D01*
X2792Y495D01*
X2792Y493D01*
X2796Y493D01*
X2796Y491D01*
X2800Y491D01*
X2800Y489D01*
X2804Y489D01*
X2804Y487D01*
X2808Y487D01*
X2808Y485D01*
X2812Y485D01*
X2812Y483D01*
X2816Y483D01*
X2816Y481D01*
X2820Y481D01*
X2820Y479D01*
X2824Y479D01*
X2824Y477D01*
X2828Y477D01*
X2828Y475D01*
X2832Y475D01*
X2832Y473D01*
X2836Y473D01*
X2836Y471D01*
X2840Y471D01*
X2840Y469D01*
X2844Y469D01*
X2844Y467D01*
X2848Y467D01*
X2848Y465D01*
X2852Y465D01*
X2852Y463D01*
X2856Y463D01*
X2856Y461D01*
X2910Y461D01*
X2910Y459D01*
X2920Y459D01*
X2920Y457D01*
X2926Y457D01*
X2926Y455D01*
X2930Y455D01*
X2930Y453D01*
X2934Y453D01*
X2934Y451D01*
X2936Y451D01*
X2936Y449D01*
X2938Y449D01*
X2938Y447D01*
X2940Y447D01*
X2940Y445D01*
X2942Y445D01*
X2942Y443D01*
X2944Y443D01*
X2944Y441D01*
X2946Y441D01*
X2946Y437D01*
X2948Y437D01*
X2948Y433D01*
X2950Y433D01*
X2950Y429D01*
X2952Y429D01*
X2952Y423D01*
X2954Y423D01*
X2954Y403D01*
X2952Y403D01*
X2952Y397D01*
X2950Y397D01*
X2950Y391D01*
X2948Y391D01*
X2948Y389D01*
X2946Y389D01*
X2946Y385D01*
X2944Y385D01*
X2944Y383D01*
X2942Y383D01*
X2942Y381D01*
X2940Y381D01*
X2940Y379D01*
X2938Y379D01*
X2938Y377D01*
X2936Y377D01*
X2936Y375D01*
X2934Y375D01*
X2934Y373D01*
X2930Y373D01*
X2930Y371D01*
X2926Y371D01*
X2926Y369D01*
X2922Y369D01*
X2922Y367D01*
X2914Y367D01*
X2914Y365D01*
X3096Y365D01*
X3096Y405D01*
X3098Y405D01*
X3098Y451D01*
X3100Y451D01*
X3100Y497D01*
X3102Y497D01*
X3102Y545D01*
X3104Y545D01*
X3104Y563D01*
X2656Y563D01*
G37*
D02*
G36*
X350Y491D02*
X350Y489D01*
X446Y489D01*
X446Y491D01*
X350Y491D01*
G37*
D02*
G36*
X348Y489D02*
X348Y487D01*
X1416Y487D01*
X1416Y489D01*
X348Y489D01*
G37*
D02*
G36*
X348Y489D02*
X348Y487D01*
X1416Y487D01*
X1416Y489D01*
X348Y489D01*
G37*
D02*
G36*
X348Y487D02*
X348Y485D01*
X346Y485D01*
X346Y483D01*
X344Y483D01*
X344Y481D01*
X342Y481D01*
X342Y477D01*
X338Y477D01*
X338Y475D01*
X336Y475D01*
X336Y473D01*
X334Y473D01*
X334Y453D01*
X336Y453D01*
X336Y451D01*
X338Y451D01*
X338Y449D01*
X340Y449D01*
X340Y447D01*
X342Y447D01*
X342Y445D01*
X344Y445D01*
X344Y443D01*
X346Y443D01*
X346Y441D01*
X348Y441D01*
X348Y437D01*
X350Y437D01*
X350Y433D01*
X352Y433D01*
X352Y427D01*
X354Y427D01*
X354Y419D01*
X356Y419D01*
X356Y407D01*
X354Y407D01*
X354Y397D01*
X352Y397D01*
X352Y393D01*
X350Y393D01*
X350Y389D01*
X348Y389D01*
X348Y385D01*
X346Y385D01*
X346Y383D01*
X344Y383D01*
X344Y381D01*
X342Y381D01*
X342Y377D01*
X338Y377D01*
X338Y375D01*
X336Y375D01*
X336Y373D01*
X334Y373D01*
X334Y371D01*
X330Y371D01*
X330Y369D01*
X326Y369D01*
X326Y367D01*
X320Y367D01*
X320Y365D01*
X310Y365D01*
X310Y363D01*
X1902Y363D01*
X1902Y365D01*
X1892Y365D01*
X1892Y367D01*
X1886Y367D01*
X1886Y369D01*
X1884Y369D01*
X1884Y371D01*
X1880Y371D01*
X1880Y373D01*
X1876Y373D01*
X1876Y375D01*
X1874Y375D01*
X1874Y377D01*
X1872Y377D01*
X1872Y379D01*
X1870Y379D01*
X1870Y381D01*
X1868Y381D01*
X1868Y385D01*
X1866Y385D01*
X1866Y387D01*
X1864Y387D01*
X1864Y391D01*
X1862Y391D01*
X1862Y395D01*
X1860Y395D01*
X1860Y399D01*
X1858Y399D01*
X1858Y401D01*
X1848Y401D01*
X1848Y403D01*
X1838Y403D01*
X1838Y405D01*
X1828Y405D01*
X1828Y407D01*
X1818Y407D01*
X1818Y409D01*
X1808Y409D01*
X1808Y411D01*
X1798Y411D01*
X1798Y413D01*
X1788Y413D01*
X1788Y415D01*
X1778Y415D01*
X1778Y417D01*
X1768Y417D01*
X1768Y419D01*
X1758Y419D01*
X1758Y421D01*
X1748Y421D01*
X1748Y423D01*
X1738Y423D01*
X1738Y425D01*
X1728Y425D01*
X1728Y427D01*
X1718Y427D01*
X1718Y429D01*
X1708Y429D01*
X1708Y431D01*
X1698Y431D01*
X1698Y433D01*
X1688Y433D01*
X1688Y435D01*
X1678Y435D01*
X1678Y437D01*
X1666Y437D01*
X1666Y439D01*
X1656Y439D01*
X1656Y441D01*
X1646Y441D01*
X1646Y443D01*
X1636Y443D01*
X1636Y445D01*
X1626Y445D01*
X1626Y447D01*
X1616Y447D01*
X1616Y449D01*
X1606Y449D01*
X1606Y451D01*
X1596Y451D01*
X1596Y453D01*
X1586Y453D01*
X1586Y455D01*
X1576Y455D01*
X1576Y457D01*
X1566Y457D01*
X1566Y459D01*
X1556Y459D01*
X1556Y461D01*
X1546Y461D01*
X1546Y463D01*
X1536Y463D01*
X1536Y465D01*
X1526Y465D01*
X1526Y467D01*
X1516Y467D01*
X1516Y469D01*
X1506Y469D01*
X1506Y471D01*
X1496Y471D01*
X1496Y473D01*
X1486Y473D01*
X1486Y475D01*
X1476Y475D01*
X1476Y477D01*
X1466Y477D01*
X1466Y479D01*
X1456Y479D01*
X1456Y481D01*
X1446Y481D01*
X1446Y483D01*
X1436Y483D01*
X1436Y485D01*
X1426Y485D01*
X1426Y487D01*
X348Y487D01*
G37*
D02*
G36*
X2860Y461D02*
X2860Y459D01*
X2864Y459D01*
X2864Y457D01*
X2894Y457D01*
X2894Y459D01*
X2902Y459D01*
X2902Y461D01*
X2860Y461D01*
G37*
D02*
G36*
X1946Y385D02*
X1946Y383D01*
X1944Y383D01*
X1944Y381D01*
X1942Y381D01*
X1942Y377D01*
X1938Y377D01*
X1938Y375D01*
X1936Y375D01*
X1936Y373D01*
X1934Y373D01*
X1934Y371D01*
X1930Y371D01*
X1930Y369D01*
X1926Y369D01*
X1926Y367D01*
X1920Y367D01*
X1920Y365D01*
X1910Y365D01*
X1910Y363D01*
X2002Y363D01*
X2002Y365D01*
X1992Y365D01*
X1992Y367D01*
X1986Y367D01*
X1986Y369D01*
X1984Y369D01*
X1984Y371D01*
X1980Y371D01*
X1980Y373D01*
X1976Y373D01*
X1976Y375D01*
X1974Y375D01*
X1974Y377D01*
X1972Y377D01*
X1972Y379D01*
X1970Y379D01*
X1970Y381D01*
X1968Y381D01*
X1968Y385D01*
X1946Y385D01*
G37*
D02*
G36*
X2046Y385D02*
X2046Y383D01*
X2044Y383D01*
X2044Y381D01*
X2042Y381D01*
X2042Y377D01*
X2038Y377D01*
X2038Y375D01*
X2036Y375D01*
X2036Y373D01*
X2034Y373D01*
X2034Y371D01*
X2030Y371D01*
X2030Y369D01*
X2026Y369D01*
X2026Y367D01*
X2020Y367D01*
X2020Y365D01*
X2010Y365D01*
X2010Y363D01*
X2102Y363D01*
X2102Y365D01*
X2092Y365D01*
X2092Y367D01*
X2086Y367D01*
X2086Y369D01*
X2084Y369D01*
X2084Y371D01*
X2080Y371D01*
X2080Y373D01*
X2076Y373D01*
X2076Y375D01*
X2074Y375D01*
X2074Y377D01*
X2072Y377D01*
X2072Y379D01*
X2070Y379D01*
X2070Y381D01*
X2068Y381D01*
X2068Y385D01*
X2046Y385D01*
G37*
D02*
G36*
X2146Y385D02*
X2146Y383D01*
X2144Y383D01*
X2144Y381D01*
X2142Y381D01*
X2142Y377D01*
X2138Y377D01*
X2138Y375D01*
X2136Y375D01*
X2136Y373D01*
X2134Y373D01*
X2134Y371D01*
X2130Y371D01*
X2130Y369D01*
X2126Y369D01*
X2126Y367D01*
X2120Y367D01*
X2120Y365D01*
X2110Y365D01*
X2110Y363D01*
X2202Y363D01*
X2202Y365D01*
X2192Y365D01*
X2192Y367D01*
X2186Y367D01*
X2186Y369D01*
X2184Y369D01*
X2184Y371D01*
X2180Y371D01*
X2180Y373D01*
X2176Y373D01*
X2176Y375D01*
X2174Y375D01*
X2174Y377D01*
X2172Y377D01*
X2172Y379D01*
X2170Y379D01*
X2170Y381D01*
X2168Y381D01*
X2168Y385D01*
X2146Y385D01*
G37*
D02*
G36*
X2210Y365D02*
X2210Y363D01*
X3096Y363D01*
X3096Y365D01*
X2210Y365D01*
G37*
D02*
G36*
X2210Y365D02*
X2210Y363D01*
X3096Y363D01*
X3096Y365D01*
X2210Y365D01*
G37*
D02*
G36*
X40Y363D02*
X40Y361D01*
X3096Y361D01*
X3096Y363D01*
X40Y363D01*
G37*
D02*
G36*
X40Y363D02*
X40Y361D01*
X3096Y361D01*
X3096Y363D01*
X40Y363D01*
G37*
D02*
G36*
X40Y363D02*
X40Y361D01*
X3096Y361D01*
X3096Y363D01*
X40Y363D01*
G37*
D02*
G36*
X40Y363D02*
X40Y361D01*
X3096Y361D01*
X3096Y363D01*
X40Y363D01*
G37*
D02*
G36*
X40Y363D02*
X40Y361D01*
X3096Y361D01*
X3096Y363D01*
X40Y363D01*
G37*
D02*
G36*
X40Y363D02*
X40Y361D01*
X3096Y361D01*
X3096Y363D01*
X40Y363D01*
G37*
D02*
G36*
X40Y361D02*
X40Y185D01*
X122Y185D01*
X122Y183D01*
X128Y183D01*
X128Y181D01*
X134Y181D01*
X134Y179D01*
X138Y179D01*
X138Y177D01*
X142Y177D01*
X142Y175D01*
X146Y175D01*
X146Y173D01*
X148Y173D01*
X148Y171D01*
X152Y171D01*
X152Y169D01*
X154Y169D01*
X154Y167D01*
X156Y167D01*
X156Y165D01*
X158Y165D01*
X158Y163D01*
X160Y163D01*
X160Y161D01*
X162Y161D01*
X162Y159D01*
X164Y159D01*
X164Y157D01*
X166Y157D01*
X166Y153D01*
X168Y153D01*
X168Y151D01*
X170Y151D01*
X170Y147D01*
X172Y147D01*
X172Y143D01*
X174Y143D01*
X174Y137D01*
X176Y137D01*
X176Y131D01*
X178Y131D01*
X178Y121D01*
X180Y121D01*
X180Y105D01*
X178Y105D01*
X178Y95D01*
X176Y95D01*
X176Y89D01*
X174Y89D01*
X174Y83D01*
X172Y83D01*
X172Y79D01*
X170Y79D01*
X170Y75D01*
X168Y75D01*
X168Y73D01*
X166Y73D01*
X166Y69D01*
X164Y69D01*
X164Y67D01*
X162Y67D01*
X162Y65D01*
X160Y65D01*
X160Y63D01*
X3102Y63D01*
X3102Y65D01*
X3092Y65D01*
X3092Y67D01*
X3086Y67D01*
X3086Y69D01*
X3084Y69D01*
X3084Y71D01*
X3080Y71D01*
X3080Y73D01*
X3076Y73D01*
X3076Y75D01*
X3074Y75D01*
X3074Y77D01*
X3072Y77D01*
X3072Y79D01*
X3070Y79D01*
X3070Y81D01*
X3068Y81D01*
X3068Y85D01*
X3066Y85D01*
X3066Y87D01*
X3064Y87D01*
X3064Y91D01*
X3062Y91D01*
X3062Y95D01*
X3060Y95D01*
X3060Y101D01*
X3058Y101D01*
X3058Y123D01*
X3060Y123D01*
X3060Y131D01*
X3062Y131D01*
X3062Y135D01*
X3064Y135D01*
X3064Y139D01*
X3066Y139D01*
X3066Y141D01*
X3068Y141D01*
X3068Y143D01*
X3070Y143D01*
X3070Y147D01*
X3072Y147D01*
X3072Y149D01*
X3076Y149D01*
X3076Y151D01*
X3078Y151D01*
X3078Y153D01*
X3080Y153D01*
X3080Y155D01*
X3084Y155D01*
X3084Y157D01*
X3086Y157D01*
X3086Y171D01*
X3088Y171D01*
X3088Y217D01*
X3090Y217D01*
X3090Y263D01*
X3092Y263D01*
X3092Y311D01*
X3094Y311D01*
X3094Y357D01*
X3096Y357D01*
X3096Y361D01*
X40Y361D01*
G37*
D02*
G36*
X40Y185D02*
X40Y167D01*
X60Y167D01*
X60Y169D01*
X62Y169D01*
X62Y171D01*
X64Y171D01*
X64Y173D01*
X68Y173D01*
X68Y175D01*
X70Y175D01*
X70Y177D01*
X74Y177D01*
X74Y179D01*
X78Y179D01*
X78Y181D01*
X84Y181D01*
X84Y183D01*
X92Y183D01*
X92Y185D01*
X40Y185D01*
G37*
D02*
G36*
X3652Y185D02*
X3652Y183D01*
X3648Y183D01*
X3648Y181D01*
X3646Y181D01*
X3646Y179D01*
X3642Y179D01*
X3642Y177D01*
X3640Y177D01*
X3640Y175D01*
X3636Y175D01*
X3636Y173D01*
X3634Y173D01*
X3634Y171D01*
X3630Y171D01*
X3630Y169D01*
X3628Y169D01*
X3628Y167D01*
X3624Y167D01*
X3624Y165D01*
X3622Y165D01*
X3622Y163D01*
X3618Y163D01*
X3618Y161D01*
X3616Y161D01*
X3616Y159D01*
X3612Y159D01*
X3612Y157D01*
X3610Y157D01*
X3610Y155D01*
X3606Y155D01*
X3606Y153D01*
X3604Y153D01*
X3604Y151D01*
X3600Y151D01*
X3600Y149D01*
X3598Y149D01*
X3598Y147D01*
X3594Y147D01*
X3594Y145D01*
X3592Y145D01*
X3592Y143D01*
X3588Y143D01*
X3588Y141D01*
X3586Y141D01*
X3586Y139D01*
X3582Y139D01*
X3582Y137D01*
X3578Y137D01*
X3578Y135D01*
X3576Y135D01*
X3576Y133D01*
X3572Y133D01*
X3572Y131D01*
X3570Y131D01*
X3570Y129D01*
X3566Y129D01*
X3566Y127D01*
X3564Y127D01*
X3564Y125D01*
X3560Y125D01*
X3560Y123D01*
X3558Y123D01*
X3558Y121D01*
X3556Y121D01*
X3556Y107D01*
X3554Y107D01*
X3554Y97D01*
X3552Y97D01*
X3552Y93D01*
X3550Y93D01*
X3550Y89D01*
X3548Y89D01*
X3548Y85D01*
X3546Y85D01*
X3546Y83D01*
X3544Y83D01*
X3544Y81D01*
X3542Y81D01*
X3542Y77D01*
X3538Y77D01*
X3538Y75D01*
X3536Y75D01*
X3536Y73D01*
X3534Y73D01*
X3534Y71D01*
X3530Y71D01*
X3530Y69D01*
X3526Y69D01*
X3526Y67D01*
X3520Y67D01*
X3520Y65D01*
X3510Y65D01*
X3510Y63D01*
X3752Y63D01*
X3752Y65D01*
X3750Y65D01*
X3750Y69D01*
X3748Y69D01*
X3748Y71D01*
X3746Y71D01*
X3746Y73D01*
X3744Y73D01*
X3744Y77D01*
X3742Y77D01*
X3742Y81D01*
X3740Y81D01*
X3740Y85D01*
X3738Y85D01*
X3738Y91D01*
X3736Y91D01*
X3736Y99D01*
X3734Y99D01*
X3734Y127D01*
X3736Y127D01*
X3736Y135D01*
X3738Y135D01*
X3738Y139D01*
X3740Y139D01*
X3740Y145D01*
X3742Y145D01*
X3742Y149D01*
X3744Y149D01*
X3744Y151D01*
X3746Y151D01*
X3746Y155D01*
X3748Y155D01*
X3748Y157D01*
X3750Y157D01*
X3750Y159D01*
X3752Y159D01*
X3752Y163D01*
X3754Y163D01*
X3754Y165D01*
X3756Y165D01*
X3756Y167D01*
X3760Y167D01*
X3760Y169D01*
X3762Y169D01*
X3762Y171D01*
X3764Y171D01*
X3764Y173D01*
X3768Y173D01*
X3768Y175D01*
X3770Y175D01*
X3770Y177D01*
X3774Y177D01*
X3774Y179D01*
X3778Y179D01*
X3778Y181D01*
X3784Y181D01*
X3784Y183D01*
X3792Y183D01*
X3792Y185D01*
X3652Y185D01*
G37*
D02*
G36*
X3250Y91D02*
X3250Y89D01*
X3248Y89D01*
X3248Y85D01*
X3246Y85D01*
X3246Y83D01*
X3244Y83D01*
X3244Y81D01*
X3242Y81D01*
X3242Y77D01*
X3238Y77D01*
X3238Y75D01*
X3236Y75D01*
X3236Y73D01*
X3234Y73D01*
X3234Y71D01*
X3230Y71D01*
X3230Y69D01*
X3226Y69D01*
X3226Y67D01*
X3220Y67D01*
X3220Y65D01*
X3210Y65D01*
X3210Y63D01*
X3502Y63D01*
X3502Y65D01*
X3492Y65D01*
X3492Y67D01*
X3486Y67D01*
X3486Y69D01*
X3484Y69D01*
X3484Y71D01*
X3480Y71D01*
X3480Y73D01*
X3476Y73D01*
X3476Y75D01*
X3474Y75D01*
X3474Y77D01*
X3472Y77D01*
X3472Y79D01*
X3470Y79D01*
X3470Y81D01*
X3468Y81D01*
X3468Y85D01*
X3466Y85D01*
X3466Y87D01*
X3464Y87D01*
X3464Y91D01*
X3250Y91D01*
G37*
D02*
G36*
X3146Y85D02*
X3146Y83D01*
X3144Y83D01*
X3144Y81D01*
X3142Y81D01*
X3142Y77D01*
X3138Y77D01*
X3138Y75D01*
X3136Y75D01*
X3136Y73D01*
X3134Y73D01*
X3134Y71D01*
X3130Y71D01*
X3130Y69D01*
X3126Y69D01*
X3126Y67D01*
X3120Y67D01*
X3120Y65D01*
X3110Y65D01*
X3110Y63D01*
X3202Y63D01*
X3202Y65D01*
X3192Y65D01*
X3192Y67D01*
X3186Y67D01*
X3186Y69D01*
X3184Y69D01*
X3184Y71D01*
X3180Y71D01*
X3180Y73D01*
X3176Y73D01*
X3176Y75D01*
X3174Y75D01*
X3174Y77D01*
X3172Y77D01*
X3172Y79D01*
X3170Y79D01*
X3170Y81D01*
X3168Y81D01*
X3168Y85D01*
X3146Y85D01*
G37*
D02*
G36*
X158Y63D02*
X158Y61D01*
X3754Y61D01*
X3754Y63D01*
X158Y63D01*
G37*
D02*
G36*
X158Y63D02*
X158Y61D01*
X3754Y61D01*
X3754Y63D01*
X158Y63D01*
G37*
D02*
G36*
X158Y63D02*
X158Y61D01*
X3754Y61D01*
X3754Y63D01*
X158Y63D01*
G37*
D02*
G36*
X158Y63D02*
X158Y61D01*
X3754Y61D01*
X3754Y63D01*
X158Y63D01*
G37*
D02*
G36*
X156Y61D02*
X156Y41D01*
X3756Y41D01*
X3756Y61D01*
X156Y61D01*
G37*
D02*
G36*
X540Y1543D02*
X540Y1537D01*
X538Y1537D01*
X538Y1531D01*
X536Y1531D01*
X536Y1525D01*
X534Y1525D01*
X534Y1519D01*
X532Y1519D01*
X532Y1513D01*
X530Y1513D01*
X530Y1507D01*
X528Y1507D01*
X528Y1503D01*
X526Y1503D01*
X526Y1501D01*
X524Y1501D01*
X524Y1499D01*
X522Y1499D01*
X522Y1497D01*
X520Y1497D01*
X520Y1495D01*
X518Y1495D01*
X518Y1493D01*
X514Y1493D01*
X514Y1491D01*
X510Y1491D01*
X510Y1489D01*
X506Y1489D01*
X506Y1487D01*
X502Y1487D01*
X502Y1485D01*
X498Y1485D01*
X498Y1483D01*
X494Y1483D01*
X494Y1481D01*
X490Y1481D01*
X490Y1479D01*
X486Y1479D01*
X486Y1477D01*
X482Y1477D01*
X482Y1475D01*
X478Y1475D01*
X478Y1473D01*
X474Y1473D01*
X474Y1471D01*
X470Y1471D01*
X470Y1469D01*
X466Y1469D01*
X466Y1467D01*
X462Y1467D01*
X462Y1465D01*
X458Y1465D01*
X458Y1463D01*
X454Y1463D01*
X454Y1461D01*
X450Y1461D01*
X450Y1459D01*
X446Y1459D01*
X446Y1457D01*
X442Y1457D01*
X442Y1455D01*
X438Y1455D01*
X438Y1453D01*
X434Y1453D01*
X434Y1451D01*
X430Y1451D01*
X430Y1449D01*
X426Y1449D01*
X426Y1447D01*
X422Y1447D01*
X422Y1445D01*
X418Y1445D01*
X418Y1443D01*
X414Y1443D01*
X414Y1441D01*
X410Y1441D01*
X410Y1439D01*
X406Y1439D01*
X406Y1437D01*
X402Y1437D01*
X402Y1435D01*
X398Y1435D01*
X398Y1433D01*
X394Y1433D01*
X394Y1431D01*
X390Y1431D01*
X390Y1429D01*
X386Y1429D01*
X386Y1427D01*
X382Y1427D01*
X382Y1425D01*
X378Y1425D01*
X378Y1423D01*
X374Y1423D01*
X374Y1421D01*
X370Y1421D01*
X370Y1419D01*
X366Y1419D01*
X366Y1417D01*
X362Y1417D01*
X362Y1415D01*
X358Y1415D01*
X358Y1413D01*
X356Y1413D01*
X356Y1407D01*
X354Y1407D01*
X354Y1397D01*
X352Y1397D01*
X352Y1393D01*
X350Y1393D01*
X350Y1389D01*
X348Y1389D01*
X348Y1385D01*
X346Y1385D01*
X346Y1383D01*
X344Y1383D01*
X344Y1381D01*
X342Y1381D01*
X342Y1377D01*
X338Y1377D01*
X338Y1375D01*
X336Y1375D01*
X336Y1373D01*
X334Y1373D01*
X334Y1361D01*
X356Y1361D01*
X356Y1363D01*
X360Y1363D01*
X360Y1365D01*
X364Y1365D01*
X364Y1367D01*
X368Y1367D01*
X368Y1369D01*
X372Y1369D01*
X372Y1371D01*
X376Y1371D01*
X376Y1373D01*
X380Y1373D01*
X380Y1375D01*
X384Y1375D01*
X384Y1377D01*
X388Y1377D01*
X388Y1379D01*
X392Y1379D01*
X392Y1381D01*
X396Y1381D01*
X396Y1383D01*
X400Y1383D01*
X400Y1385D01*
X404Y1385D01*
X404Y1387D01*
X408Y1387D01*
X408Y1389D01*
X412Y1389D01*
X412Y1391D01*
X416Y1391D01*
X416Y1393D01*
X420Y1393D01*
X420Y1395D01*
X424Y1395D01*
X424Y1397D01*
X428Y1397D01*
X428Y1399D01*
X432Y1399D01*
X432Y1401D01*
X436Y1401D01*
X436Y1403D01*
X440Y1403D01*
X440Y1405D01*
X444Y1405D01*
X444Y1407D01*
X448Y1407D01*
X448Y1409D01*
X452Y1409D01*
X452Y1411D01*
X456Y1411D01*
X456Y1413D01*
X460Y1413D01*
X460Y1415D01*
X464Y1415D01*
X464Y1417D01*
X468Y1417D01*
X468Y1419D01*
X472Y1419D01*
X472Y1421D01*
X476Y1421D01*
X476Y1423D01*
X480Y1423D01*
X480Y1425D01*
X484Y1425D01*
X484Y1427D01*
X488Y1427D01*
X488Y1429D01*
X492Y1429D01*
X492Y1431D01*
X496Y1431D01*
X496Y1433D01*
X500Y1433D01*
X500Y1435D01*
X566Y1435D01*
X566Y1439D01*
X568Y1439D01*
X568Y1441D01*
X570Y1441D01*
X570Y1443D01*
X572Y1443D01*
X572Y1465D01*
X560Y1465D01*
X560Y1543D01*
X540Y1543D01*
G37*
D02*
G36*
X2076Y853D02*
X2076Y835D01*
X2074Y835D01*
X2074Y817D01*
X2072Y817D01*
X2072Y799D01*
X2070Y799D01*
X2070Y779D01*
X2068Y779D01*
X2068Y761D01*
X2066Y761D01*
X2066Y743D01*
X2064Y743D01*
X2064Y725D01*
X2062Y725D01*
X2062Y707D01*
X2060Y707D01*
X2060Y689D01*
X2058Y689D01*
X2058Y671D01*
X2056Y671D01*
X2056Y653D01*
X2054Y653D01*
X2054Y635D01*
X2052Y635D01*
X2052Y615D01*
X2050Y615D01*
X2050Y597D01*
X2048Y597D01*
X2048Y579D01*
X2046Y579D01*
X2046Y561D01*
X2044Y561D01*
X2044Y543D01*
X2042Y543D01*
X2042Y525D01*
X2040Y525D01*
X2040Y507D01*
X2038Y507D01*
X2038Y489D01*
X2036Y489D01*
X2036Y451D01*
X2038Y451D01*
X2038Y449D01*
X2040Y449D01*
X2040Y447D01*
X2042Y447D01*
X2042Y445D01*
X2044Y445D01*
X2044Y443D01*
X2046Y443D01*
X2046Y441D01*
X2068Y441D01*
X2068Y443D01*
X2070Y443D01*
X2070Y447D01*
X2072Y447D01*
X2072Y449D01*
X2076Y449D01*
X2076Y451D01*
X2078Y451D01*
X2078Y453D01*
X2080Y453D01*
X2080Y455D01*
X2084Y455D01*
X2084Y457D01*
X2088Y457D01*
X2088Y475D01*
X2090Y475D01*
X2090Y503D01*
X2092Y503D01*
X2092Y531D01*
X2094Y531D01*
X2094Y559D01*
X2096Y559D01*
X2096Y589D01*
X2098Y589D01*
X2098Y617D01*
X2100Y617D01*
X2100Y645D01*
X2102Y645D01*
X2102Y673D01*
X2104Y673D01*
X2104Y701D01*
X2106Y701D01*
X2106Y729D01*
X2108Y729D01*
X2108Y757D01*
X2110Y757D01*
X2110Y785D01*
X2112Y785D01*
X2112Y831D01*
X2108Y831D01*
X2108Y833D01*
X2106Y833D01*
X2106Y837D01*
X2104Y837D01*
X2104Y839D01*
X2102Y839D01*
X2102Y843D01*
X2100Y843D01*
X2100Y847D01*
X2098Y847D01*
X2098Y853D01*
X2076Y853D01*
G37*
D02*
G36*
X2178Y849D02*
X2178Y843D01*
X2176Y843D01*
X2176Y841D01*
X2174Y841D01*
X2174Y837D01*
X2172Y837D01*
X2172Y835D01*
X2170Y835D01*
X2170Y833D01*
X2168Y833D01*
X2168Y831D01*
X2166Y831D01*
X2166Y829D01*
X2164Y829D01*
X2164Y827D01*
X2160Y827D01*
X2160Y825D01*
X2158Y825D01*
X2158Y811D01*
X2156Y811D01*
X2156Y783D01*
X2154Y783D01*
X2154Y755D01*
X2152Y755D01*
X2152Y727D01*
X2150Y727D01*
X2150Y699D01*
X2148Y699D01*
X2148Y671D01*
X2146Y671D01*
X2146Y643D01*
X2144Y643D01*
X2144Y615D01*
X2142Y615D01*
X2142Y587D01*
X2140Y587D01*
X2140Y559D01*
X2138Y559D01*
X2138Y531D01*
X2136Y531D01*
X2136Y503D01*
X2134Y503D01*
X2134Y473D01*
X2132Y473D01*
X2132Y453D01*
X2136Y453D01*
X2136Y451D01*
X2138Y451D01*
X2138Y449D01*
X2140Y449D01*
X2140Y447D01*
X2142Y447D01*
X2142Y445D01*
X2144Y445D01*
X2144Y443D01*
X2146Y443D01*
X2146Y441D01*
X2168Y441D01*
X2168Y443D01*
X2170Y443D01*
X2170Y447D01*
X2172Y447D01*
X2172Y449D01*
X2176Y449D01*
X2176Y451D01*
X2178Y451D01*
X2178Y453D01*
X2180Y453D01*
X2180Y455D01*
X2184Y455D01*
X2184Y457D01*
X2188Y457D01*
X2188Y475D01*
X2190Y475D01*
X2190Y503D01*
X2192Y503D01*
X2192Y531D01*
X2194Y531D01*
X2194Y559D01*
X2196Y559D01*
X2196Y589D01*
X2198Y589D01*
X2198Y617D01*
X2200Y617D01*
X2200Y645D01*
X2202Y645D01*
X2202Y673D01*
X2204Y673D01*
X2204Y701D01*
X2206Y701D01*
X2206Y729D01*
X2208Y729D01*
X2208Y757D01*
X2210Y757D01*
X2210Y785D01*
X2212Y785D01*
X2212Y831D01*
X2208Y831D01*
X2208Y833D01*
X2206Y833D01*
X2206Y837D01*
X2204Y837D01*
X2204Y839D01*
X2202Y839D01*
X2202Y843D01*
X2200Y843D01*
X2200Y847D01*
X2198Y847D01*
X2198Y849D01*
X2178Y849D01*
G37*
D02*
G36*
X2178Y1649D02*
X2178Y1643D01*
X2176Y1643D01*
X2176Y1641D01*
X2174Y1641D01*
X2174Y1637D01*
X2172Y1637D01*
X2172Y1635D01*
X2170Y1635D01*
X2170Y1633D01*
X2168Y1633D01*
X2168Y1631D01*
X2166Y1631D01*
X2166Y1629D01*
X2164Y1629D01*
X2164Y1627D01*
X2160Y1627D01*
X2160Y1625D01*
X2156Y1625D01*
X2156Y1623D01*
X2152Y1623D01*
X2152Y1621D01*
X2142Y1621D01*
X2142Y1619D01*
X2234Y1619D01*
X2234Y1621D01*
X2226Y1621D01*
X2226Y1623D01*
X2220Y1623D01*
X2220Y1625D01*
X2216Y1625D01*
X2216Y1627D01*
X2214Y1627D01*
X2214Y1629D01*
X2212Y1629D01*
X2212Y1631D01*
X2208Y1631D01*
X2208Y1633D01*
X2206Y1633D01*
X2206Y1637D01*
X2204Y1637D01*
X2204Y1639D01*
X2202Y1639D01*
X2202Y1643D01*
X2200Y1643D01*
X2200Y1647D01*
X2198Y1647D01*
X2198Y1649D01*
X2178Y1649D01*
G37*
D02*
G36*
X2278Y1649D02*
X2278Y1643D01*
X2276Y1643D01*
X2276Y1641D01*
X2274Y1641D01*
X2274Y1637D01*
X2272Y1637D01*
X2272Y1635D01*
X2270Y1635D01*
X2270Y1633D01*
X2268Y1633D01*
X2268Y1631D01*
X2266Y1631D01*
X2266Y1629D01*
X2264Y1629D01*
X2264Y1627D01*
X2260Y1627D01*
X2260Y1625D01*
X2256Y1625D01*
X2256Y1623D01*
X2252Y1623D01*
X2252Y1621D01*
X2242Y1621D01*
X2242Y1619D01*
X2334Y1619D01*
X2334Y1621D01*
X2326Y1621D01*
X2326Y1623D01*
X2320Y1623D01*
X2320Y1625D01*
X2316Y1625D01*
X2316Y1627D01*
X2314Y1627D01*
X2314Y1629D01*
X2312Y1629D01*
X2312Y1631D01*
X2308Y1631D01*
X2308Y1633D01*
X2306Y1633D01*
X2306Y1637D01*
X2304Y1637D01*
X2304Y1639D01*
X2302Y1639D01*
X2302Y1643D01*
X2300Y1643D01*
X2300Y1647D01*
X2298Y1647D01*
X2298Y1649D01*
X2278Y1649D01*
G37*
D02*
G36*
X2378Y1649D02*
X2378Y1643D01*
X2376Y1643D01*
X2376Y1641D01*
X2374Y1641D01*
X2374Y1637D01*
X2372Y1637D01*
X2372Y1635D01*
X2370Y1635D01*
X2370Y1633D01*
X2368Y1633D01*
X2368Y1631D01*
X2366Y1631D01*
X2366Y1629D01*
X2364Y1629D01*
X2364Y1627D01*
X2360Y1627D01*
X2360Y1625D01*
X2356Y1625D01*
X2356Y1623D01*
X2352Y1623D01*
X2352Y1621D01*
X2342Y1621D01*
X2342Y1619D01*
X2434Y1619D01*
X2434Y1621D01*
X2426Y1621D01*
X2426Y1623D01*
X2420Y1623D01*
X2420Y1625D01*
X2416Y1625D01*
X2416Y1627D01*
X2414Y1627D01*
X2414Y1629D01*
X2412Y1629D01*
X2412Y1631D01*
X2408Y1631D01*
X2408Y1633D01*
X2406Y1633D01*
X2406Y1637D01*
X2404Y1637D01*
X2404Y1639D01*
X2402Y1639D01*
X2402Y1643D01*
X2400Y1643D01*
X2400Y1647D01*
X2398Y1647D01*
X2398Y1649D01*
X2378Y1649D01*
G37*
D02*
G36*
X2478Y1649D02*
X2478Y1643D01*
X2476Y1643D01*
X2476Y1641D01*
X2474Y1641D01*
X2474Y1637D01*
X2472Y1637D01*
X2472Y1635D01*
X2470Y1635D01*
X2470Y1633D01*
X2468Y1633D01*
X2468Y1631D01*
X2466Y1631D01*
X2466Y1629D01*
X2464Y1629D01*
X2464Y1627D01*
X2460Y1627D01*
X2460Y1625D01*
X2456Y1625D01*
X2456Y1623D01*
X2452Y1623D01*
X2452Y1621D01*
X2442Y1621D01*
X2442Y1619D01*
X2534Y1619D01*
X2534Y1621D01*
X2526Y1621D01*
X2526Y1623D01*
X2520Y1623D01*
X2520Y1625D01*
X2516Y1625D01*
X2516Y1627D01*
X2514Y1627D01*
X2514Y1629D01*
X2512Y1629D01*
X2512Y1631D01*
X2508Y1631D01*
X2508Y1633D01*
X2506Y1633D01*
X2506Y1637D01*
X2504Y1637D01*
X2504Y1639D01*
X2502Y1639D01*
X2502Y1643D01*
X2500Y1643D01*
X2500Y1647D01*
X2498Y1647D01*
X2498Y1649D01*
X2478Y1649D01*
G37*
D02*
G36*
X2578Y1649D02*
X2578Y1643D01*
X2576Y1643D01*
X2576Y1641D01*
X2574Y1641D01*
X2574Y1637D01*
X2572Y1637D01*
X2572Y1635D01*
X2570Y1635D01*
X2570Y1633D01*
X2568Y1633D01*
X2568Y1631D01*
X2566Y1631D01*
X2566Y1629D01*
X2564Y1629D01*
X2564Y1627D01*
X2560Y1627D01*
X2560Y1625D01*
X2556Y1625D01*
X2556Y1623D01*
X2552Y1623D01*
X2552Y1621D01*
X2542Y1621D01*
X2542Y1619D01*
X2634Y1619D01*
X2634Y1621D01*
X2626Y1621D01*
X2626Y1623D01*
X2620Y1623D01*
X2620Y1625D01*
X2616Y1625D01*
X2616Y1627D01*
X2614Y1627D01*
X2614Y1629D01*
X2612Y1629D01*
X2612Y1631D01*
X2608Y1631D01*
X2608Y1633D01*
X2606Y1633D01*
X2606Y1637D01*
X2604Y1637D01*
X2604Y1639D01*
X2602Y1639D01*
X2602Y1643D01*
X2600Y1643D01*
X2600Y1647D01*
X2598Y1647D01*
X2598Y1649D01*
X2578Y1649D01*
G37*
D02*
G36*
X2678Y1649D02*
X2678Y1643D01*
X2676Y1643D01*
X2676Y1641D01*
X2674Y1641D01*
X2674Y1637D01*
X2672Y1637D01*
X2672Y1635D01*
X2670Y1635D01*
X2670Y1633D01*
X2668Y1633D01*
X2668Y1631D01*
X2666Y1631D01*
X2666Y1629D01*
X2664Y1629D01*
X2664Y1627D01*
X2660Y1627D01*
X2660Y1625D01*
X2656Y1625D01*
X2656Y1623D01*
X2652Y1623D01*
X2652Y1621D01*
X2642Y1621D01*
X2642Y1619D01*
X2734Y1619D01*
X2734Y1621D01*
X2726Y1621D01*
X2726Y1623D01*
X2720Y1623D01*
X2720Y1625D01*
X2716Y1625D01*
X2716Y1627D01*
X2714Y1627D01*
X2714Y1629D01*
X2712Y1629D01*
X2712Y1631D01*
X2708Y1631D01*
X2708Y1633D01*
X2706Y1633D01*
X2706Y1637D01*
X2704Y1637D01*
X2704Y1639D01*
X2702Y1639D01*
X2702Y1643D01*
X2700Y1643D01*
X2700Y1647D01*
X2698Y1647D01*
X2698Y1649D01*
X2678Y1649D01*
G37*
D02*
G36*
X2778Y1649D02*
X2778Y1643D01*
X2776Y1643D01*
X2776Y1641D01*
X2774Y1641D01*
X2774Y1637D01*
X2772Y1637D01*
X2772Y1635D01*
X2770Y1635D01*
X2770Y1633D01*
X2768Y1633D01*
X2768Y1631D01*
X2766Y1631D01*
X2766Y1629D01*
X2764Y1629D01*
X2764Y1627D01*
X2760Y1627D01*
X2760Y1625D01*
X2756Y1625D01*
X2756Y1623D01*
X2752Y1623D01*
X2752Y1621D01*
X2742Y1621D01*
X2742Y1619D01*
X2834Y1619D01*
X2834Y1621D01*
X2826Y1621D01*
X2826Y1623D01*
X2820Y1623D01*
X2820Y1625D01*
X2816Y1625D01*
X2816Y1627D01*
X2814Y1627D01*
X2814Y1629D01*
X2812Y1629D01*
X2812Y1631D01*
X2808Y1631D01*
X2808Y1633D01*
X2806Y1633D01*
X2806Y1637D01*
X2804Y1637D01*
X2804Y1639D01*
X2802Y1639D01*
X2802Y1643D01*
X2800Y1643D01*
X2800Y1647D01*
X2798Y1647D01*
X2798Y1649D01*
X2778Y1649D01*
G37*
D02*
G36*
X2878Y1649D02*
X2878Y1643D01*
X2876Y1643D01*
X2876Y1641D01*
X2874Y1641D01*
X2874Y1637D01*
X2872Y1637D01*
X2872Y1635D01*
X2870Y1635D01*
X2870Y1633D01*
X2868Y1633D01*
X2868Y1631D01*
X2866Y1631D01*
X2866Y1629D01*
X2864Y1629D01*
X2864Y1627D01*
X2860Y1627D01*
X2860Y1625D01*
X2856Y1625D01*
X2856Y1623D01*
X2852Y1623D01*
X2852Y1621D01*
X2842Y1621D01*
X2842Y1619D01*
X2934Y1619D01*
X2934Y1621D01*
X2926Y1621D01*
X2926Y1623D01*
X2920Y1623D01*
X2920Y1625D01*
X2916Y1625D01*
X2916Y1627D01*
X2914Y1627D01*
X2914Y1629D01*
X2912Y1629D01*
X2912Y1631D01*
X2908Y1631D01*
X2908Y1633D01*
X2906Y1633D01*
X2906Y1637D01*
X2904Y1637D01*
X2904Y1639D01*
X2902Y1639D01*
X2902Y1643D01*
X2900Y1643D01*
X2900Y1647D01*
X2898Y1647D01*
X2898Y1649D01*
X2878Y1649D01*
G37*
D02*
G36*
X2978Y1649D02*
X2978Y1643D01*
X2976Y1643D01*
X2976Y1641D01*
X2974Y1641D01*
X2974Y1637D01*
X2972Y1637D01*
X2972Y1635D01*
X2970Y1635D01*
X2970Y1633D01*
X2968Y1633D01*
X2968Y1631D01*
X2966Y1631D01*
X2966Y1629D01*
X2964Y1629D01*
X2964Y1627D01*
X2960Y1627D01*
X2960Y1625D01*
X2956Y1625D01*
X2956Y1623D01*
X2952Y1623D01*
X2952Y1621D01*
X2942Y1621D01*
X2942Y1619D01*
X3034Y1619D01*
X3034Y1621D01*
X3026Y1621D01*
X3026Y1623D01*
X3020Y1623D01*
X3020Y1625D01*
X3016Y1625D01*
X3016Y1627D01*
X3014Y1627D01*
X3014Y1629D01*
X3012Y1629D01*
X3012Y1631D01*
X3008Y1631D01*
X3008Y1633D01*
X3006Y1633D01*
X3006Y1637D01*
X3004Y1637D01*
X3004Y1639D01*
X3002Y1639D01*
X3002Y1643D01*
X3000Y1643D01*
X3000Y1647D01*
X2998Y1647D01*
X2998Y1649D01*
X2978Y1649D01*
G37*
D02*
G36*
X3078Y1649D02*
X3078Y1643D01*
X3076Y1643D01*
X3076Y1641D01*
X3074Y1641D01*
X3074Y1637D01*
X3072Y1637D01*
X3072Y1635D01*
X3070Y1635D01*
X3070Y1633D01*
X3068Y1633D01*
X3068Y1631D01*
X3066Y1631D01*
X3066Y1629D01*
X3064Y1629D01*
X3064Y1627D01*
X3060Y1627D01*
X3060Y1625D01*
X3056Y1625D01*
X3056Y1623D01*
X3052Y1623D01*
X3052Y1621D01*
X3042Y1621D01*
X3042Y1619D01*
X3134Y1619D01*
X3134Y1621D01*
X3126Y1621D01*
X3126Y1623D01*
X3120Y1623D01*
X3120Y1625D01*
X3116Y1625D01*
X3116Y1627D01*
X3114Y1627D01*
X3114Y1629D01*
X3112Y1629D01*
X3112Y1631D01*
X3108Y1631D01*
X3108Y1633D01*
X3106Y1633D01*
X3106Y1637D01*
X3104Y1637D01*
X3104Y1639D01*
X3102Y1639D01*
X3102Y1643D01*
X3100Y1643D01*
X3100Y1647D01*
X3098Y1647D01*
X3098Y1649D01*
X3078Y1649D01*
G37*
D02*
G36*
X3178Y1649D02*
X3178Y1643D01*
X3176Y1643D01*
X3176Y1641D01*
X3174Y1641D01*
X3174Y1637D01*
X3172Y1637D01*
X3172Y1635D01*
X3170Y1635D01*
X3170Y1633D01*
X3168Y1633D01*
X3168Y1631D01*
X3166Y1631D01*
X3166Y1629D01*
X3164Y1629D01*
X3164Y1627D01*
X3160Y1627D01*
X3160Y1625D01*
X3156Y1625D01*
X3156Y1623D01*
X3152Y1623D01*
X3152Y1621D01*
X3142Y1621D01*
X3142Y1619D01*
X3234Y1619D01*
X3234Y1621D01*
X3226Y1621D01*
X3226Y1623D01*
X3220Y1623D01*
X3220Y1625D01*
X3216Y1625D01*
X3216Y1627D01*
X3214Y1627D01*
X3214Y1629D01*
X3212Y1629D01*
X3212Y1631D01*
X3208Y1631D01*
X3208Y1633D01*
X3206Y1633D01*
X3206Y1637D01*
X3204Y1637D01*
X3204Y1639D01*
X3202Y1639D01*
X3202Y1643D01*
X3200Y1643D01*
X3200Y1647D01*
X3198Y1647D01*
X3198Y1649D01*
X3178Y1649D01*
G37*
D02*
G36*
X3278Y1649D02*
X3278Y1643D01*
X3276Y1643D01*
X3276Y1641D01*
X3274Y1641D01*
X3274Y1637D01*
X3272Y1637D01*
X3272Y1635D01*
X3270Y1635D01*
X3270Y1633D01*
X3268Y1633D01*
X3268Y1631D01*
X3266Y1631D01*
X3266Y1629D01*
X3264Y1629D01*
X3264Y1627D01*
X3260Y1627D01*
X3260Y1625D01*
X3256Y1625D01*
X3256Y1623D01*
X3252Y1623D01*
X3252Y1621D01*
X3242Y1621D01*
X3242Y1619D01*
X3330Y1619D01*
X3330Y1621D01*
X3326Y1621D01*
X3326Y1623D01*
X3320Y1623D01*
X3320Y1625D01*
X3316Y1625D01*
X3316Y1627D01*
X3314Y1627D01*
X3314Y1629D01*
X3312Y1629D01*
X3312Y1631D01*
X3308Y1631D01*
X3308Y1633D01*
X3306Y1633D01*
X3306Y1637D01*
X3304Y1637D01*
X3304Y1639D01*
X3302Y1639D01*
X3302Y1643D01*
X3300Y1643D01*
X3300Y1647D01*
X3298Y1647D01*
X3298Y1649D01*
X3278Y1649D01*
G37*
D02*
G36*
X2126Y1619D02*
X2126Y1617D01*
X3330Y1617D01*
X3330Y1619D01*
X2126Y1619D01*
G37*
D02*
G36*
X2126Y1619D02*
X2126Y1617D01*
X3330Y1617D01*
X3330Y1619D01*
X2126Y1619D01*
G37*
D02*
G36*
X2126Y1619D02*
X2126Y1617D01*
X3330Y1617D01*
X3330Y1619D01*
X2126Y1619D01*
G37*
D02*
G36*
X2126Y1619D02*
X2126Y1617D01*
X3330Y1617D01*
X3330Y1619D01*
X2126Y1619D01*
G37*
D02*
G36*
X2126Y1619D02*
X2126Y1617D01*
X3330Y1617D01*
X3330Y1619D01*
X2126Y1619D01*
G37*
D02*
G36*
X2126Y1619D02*
X2126Y1617D01*
X3330Y1617D01*
X3330Y1619D01*
X2126Y1619D01*
G37*
D02*
G36*
X2126Y1619D02*
X2126Y1617D01*
X3330Y1617D01*
X3330Y1619D01*
X2126Y1619D01*
G37*
D02*
G36*
X2126Y1619D02*
X2126Y1617D01*
X3330Y1617D01*
X3330Y1619D01*
X2126Y1619D01*
G37*
D02*
G36*
X2126Y1619D02*
X2126Y1617D01*
X3330Y1617D01*
X3330Y1619D01*
X2126Y1619D01*
G37*
D02*
G36*
X2126Y1619D02*
X2126Y1617D01*
X3330Y1617D01*
X3330Y1619D01*
X2126Y1619D01*
G37*
D02*
G36*
X2126Y1619D02*
X2126Y1617D01*
X3330Y1617D01*
X3330Y1619D01*
X2126Y1619D01*
G37*
D02*
G36*
X2126Y1619D02*
X2126Y1617D01*
X3330Y1617D01*
X3330Y1619D01*
X2126Y1619D01*
G37*
D02*
G36*
X2124Y1617D02*
X2124Y1613D01*
X2122Y1613D01*
X2122Y1611D01*
X2120Y1611D01*
X2120Y1609D01*
X2118Y1609D01*
X2118Y1607D01*
X2116Y1607D01*
X2116Y1605D01*
X2114Y1605D01*
X2114Y1603D01*
X2112Y1603D01*
X2112Y1601D01*
X2110Y1601D01*
X2110Y1599D01*
X2108Y1599D01*
X2108Y1597D01*
X2106Y1597D01*
X2106Y1595D01*
X2104Y1595D01*
X2104Y1593D01*
X2102Y1593D01*
X2102Y1591D01*
X2100Y1591D01*
X2100Y1589D01*
X2098Y1589D01*
X2098Y1587D01*
X2096Y1587D01*
X2096Y1585D01*
X2094Y1585D01*
X2094Y1581D01*
X2092Y1581D01*
X2092Y1579D01*
X2090Y1579D01*
X2090Y1577D01*
X2088Y1577D01*
X2088Y1575D01*
X2086Y1575D01*
X2086Y1573D01*
X2084Y1573D01*
X2084Y1571D01*
X2082Y1571D01*
X2082Y1569D01*
X2080Y1569D01*
X2080Y1567D01*
X2078Y1567D01*
X2078Y1565D01*
X2076Y1565D01*
X2076Y1563D01*
X2074Y1563D01*
X2074Y1561D01*
X2072Y1561D01*
X2072Y1559D01*
X2070Y1559D01*
X2070Y1557D01*
X2068Y1557D01*
X2068Y1555D01*
X2066Y1555D01*
X2066Y1553D01*
X2064Y1553D01*
X2064Y1549D01*
X2062Y1549D01*
X2062Y1547D01*
X2060Y1547D01*
X2060Y1545D01*
X2058Y1545D01*
X2058Y1543D01*
X2056Y1543D01*
X2056Y1541D01*
X2054Y1541D01*
X2054Y1539D01*
X2052Y1539D01*
X2052Y1537D01*
X2050Y1537D01*
X2050Y1535D01*
X2048Y1535D01*
X2048Y1533D01*
X2046Y1533D01*
X2046Y1531D01*
X2044Y1531D01*
X2044Y1529D01*
X2042Y1529D01*
X2042Y1527D01*
X2040Y1527D01*
X2040Y1525D01*
X2038Y1525D01*
X2038Y1523D01*
X2036Y1523D01*
X2036Y1521D01*
X2034Y1521D01*
X2034Y1519D01*
X2032Y1519D01*
X2032Y1515D01*
X2030Y1515D01*
X2030Y1513D01*
X2028Y1513D01*
X2028Y1511D01*
X2026Y1511D01*
X2026Y1509D01*
X2024Y1509D01*
X2024Y1507D01*
X2022Y1507D01*
X2022Y1505D01*
X2020Y1505D01*
X2020Y1503D01*
X2018Y1503D01*
X2018Y1501D01*
X2016Y1501D01*
X2016Y1499D01*
X2014Y1499D01*
X2014Y1497D01*
X2012Y1497D01*
X2012Y1495D01*
X2010Y1495D01*
X2010Y1493D01*
X2008Y1493D01*
X2008Y1491D01*
X2006Y1491D01*
X2006Y1489D01*
X2004Y1489D01*
X2004Y1487D01*
X2002Y1487D01*
X2002Y1483D01*
X2000Y1483D01*
X2000Y1481D01*
X1998Y1481D01*
X1998Y1479D01*
X1996Y1479D01*
X1996Y1477D01*
X1994Y1477D01*
X1994Y1475D01*
X1992Y1475D01*
X1992Y1473D01*
X1990Y1473D01*
X1990Y1471D01*
X1988Y1471D01*
X1988Y1469D01*
X1986Y1469D01*
X1986Y1467D01*
X1984Y1467D01*
X1984Y1465D01*
X1982Y1465D01*
X1982Y1463D01*
X1980Y1463D01*
X1980Y1461D01*
X1978Y1461D01*
X1978Y1459D01*
X1976Y1459D01*
X1976Y1457D01*
X1974Y1457D01*
X1974Y1455D01*
X1972Y1455D01*
X1972Y1453D01*
X1970Y1453D01*
X1970Y1449D01*
X1968Y1449D01*
X1968Y1447D01*
X1966Y1447D01*
X1966Y1445D01*
X1964Y1445D01*
X1964Y1443D01*
X1962Y1443D01*
X1962Y1441D01*
X1960Y1441D01*
X1960Y1439D01*
X1958Y1439D01*
X1958Y1437D01*
X1956Y1437D01*
X1956Y1435D01*
X1954Y1435D01*
X1954Y1433D01*
X1952Y1433D01*
X1952Y1431D01*
X1950Y1431D01*
X1950Y1429D01*
X1948Y1429D01*
X1948Y1427D01*
X1946Y1427D01*
X1946Y1425D01*
X1944Y1425D01*
X1944Y1423D01*
X1942Y1423D01*
X1942Y1421D01*
X1940Y1421D01*
X1940Y1417D01*
X1938Y1417D01*
X1938Y1415D01*
X1936Y1415D01*
X1936Y1413D01*
X1934Y1413D01*
X1934Y1411D01*
X1932Y1411D01*
X1932Y1409D01*
X1930Y1409D01*
X1930Y1407D01*
X1928Y1407D01*
X1928Y1405D01*
X1926Y1405D01*
X1926Y1343D01*
X2114Y1343D01*
X2114Y1341D01*
X2118Y1341D01*
X2118Y1339D01*
X2122Y1339D01*
X2122Y1337D01*
X2124Y1337D01*
X2124Y1335D01*
X2126Y1335D01*
X2126Y1333D01*
X2128Y1333D01*
X2128Y1331D01*
X2130Y1331D01*
X2130Y1329D01*
X2132Y1329D01*
X2132Y1325D01*
X2134Y1325D01*
X2134Y1315D01*
X2136Y1315D01*
X2136Y1313D01*
X2134Y1313D01*
X2134Y1303D01*
X2132Y1303D01*
X2132Y1299D01*
X2130Y1299D01*
X2130Y1295D01*
X2128Y1295D01*
X2128Y1293D01*
X2126Y1293D01*
X2126Y1289D01*
X2124Y1289D01*
X2124Y1271D01*
X2122Y1271D01*
X2122Y1253D01*
X2120Y1253D01*
X2120Y1235D01*
X2118Y1235D01*
X2118Y1217D01*
X2116Y1217D01*
X2116Y1199D01*
X2114Y1199D01*
X2114Y1181D01*
X2112Y1181D01*
X2112Y1163D01*
X2110Y1163D01*
X2110Y1145D01*
X2108Y1145D01*
X2108Y1127D01*
X2106Y1127D01*
X2106Y1107D01*
X2104Y1107D01*
X2104Y1089D01*
X2102Y1089D01*
X2102Y1071D01*
X2100Y1071D01*
X2100Y1053D01*
X2098Y1053D01*
X2098Y1035D01*
X2096Y1035D01*
X2096Y1017D01*
X2094Y1017D01*
X2094Y999D01*
X2092Y999D01*
X2092Y981D01*
X2090Y981D01*
X2090Y963D01*
X2088Y963D01*
X2088Y943D01*
X2086Y943D01*
X2086Y925D01*
X2084Y925D01*
X2084Y907D01*
X2082Y907D01*
X2082Y905D01*
X3250Y905D01*
X3250Y903D01*
X3256Y903D01*
X3256Y901D01*
X3260Y901D01*
X3260Y899D01*
X3264Y899D01*
X3264Y897D01*
X3266Y897D01*
X3266Y895D01*
X3268Y895D01*
X3268Y893D01*
X3270Y893D01*
X3270Y891D01*
X3272Y891D01*
X3272Y889D01*
X3274Y889D01*
X3274Y885D01*
X3276Y885D01*
X3276Y881D01*
X3278Y881D01*
X3278Y877D01*
X3280Y877D01*
X3280Y869D01*
X3282Y869D01*
X3282Y855D01*
X3280Y855D01*
X3280Y849D01*
X3278Y849D01*
X3278Y843D01*
X3276Y843D01*
X3276Y841D01*
X3274Y841D01*
X3274Y837D01*
X3272Y837D01*
X3272Y835D01*
X3270Y835D01*
X3270Y833D01*
X3268Y833D01*
X3268Y831D01*
X3266Y831D01*
X3266Y829D01*
X3264Y829D01*
X3264Y827D01*
X3260Y827D01*
X3260Y825D01*
X3256Y825D01*
X3256Y823D01*
X3252Y823D01*
X3252Y821D01*
X3242Y821D01*
X3242Y819D01*
X3580Y819D01*
X3580Y825D01*
X3578Y825D01*
X3578Y831D01*
X3576Y831D01*
X3576Y837D01*
X3574Y837D01*
X3574Y845D01*
X3572Y845D01*
X3572Y851D01*
X3570Y851D01*
X3570Y857D01*
X3568Y857D01*
X3568Y863D01*
X3566Y863D01*
X3566Y869D01*
X3564Y869D01*
X3564Y875D01*
X3562Y875D01*
X3562Y883D01*
X3560Y883D01*
X3560Y889D01*
X3558Y889D01*
X3558Y895D01*
X3556Y895D01*
X3556Y901D01*
X3554Y901D01*
X3554Y907D01*
X3552Y907D01*
X3552Y915D01*
X3550Y915D01*
X3550Y921D01*
X3548Y921D01*
X3548Y927D01*
X3546Y927D01*
X3546Y933D01*
X3544Y933D01*
X3544Y939D01*
X3542Y939D01*
X3542Y945D01*
X3540Y945D01*
X3540Y953D01*
X3538Y953D01*
X3538Y959D01*
X3536Y959D01*
X3536Y965D01*
X3534Y965D01*
X3534Y971D01*
X3532Y971D01*
X3532Y977D01*
X3530Y977D01*
X3530Y985D01*
X3528Y985D01*
X3528Y991D01*
X3526Y991D01*
X3526Y997D01*
X3524Y997D01*
X3524Y1003D01*
X3522Y1003D01*
X3522Y1009D01*
X3520Y1009D01*
X3520Y1015D01*
X3518Y1015D01*
X3518Y1023D01*
X3516Y1023D01*
X3516Y1029D01*
X3514Y1029D01*
X3514Y1035D01*
X3512Y1035D01*
X3512Y1041D01*
X3510Y1041D01*
X3510Y1047D01*
X3508Y1047D01*
X3508Y1055D01*
X3506Y1055D01*
X3506Y1061D01*
X3504Y1061D01*
X3504Y1067D01*
X3502Y1067D01*
X3502Y1073D01*
X3500Y1073D01*
X3500Y1079D01*
X3498Y1079D01*
X3498Y1085D01*
X3496Y1085D01*
X3496Y1093D01*
X3494Y1093D01*
X3494Y1099D01*
X3492Y1099D01*
X3492Y1105D01*
X3490Y1105D01*
X3490Y1111D01*
X3488Y1111D01*
X3488Y1117D01*
X3486Y1117D01*
X3486Y1123D01*
X3484Y1123D01*
X3484Y1131D01*
X3482Y1131D01*
X3482Y1137D01*
X3480Y1137D01*
X3480Y1143D01*
X3478Y1143D01*
X3478Y1149D01*
X3476Y1149D01*
X3476Y1155D01*
X3474Y1155D01*
X3474Y1163D01*
X3472Y1163D01*
X3472Y1169D01*
X3470Y1169D01*
X3470Y1175D01*
X3468Y1175D01*
X3468Y1181D01*
X3466Y1181D01*
X3466Y1187D01*
X3464Y1187D01*
X3464Y1193D01*
X3462Y1193D01*
X3462Y1201D01*
X3460Y1201D01*
X3460Y1207D01*
X3458Y1207D01*
X3458Y1213D01*
X3456Y1213D01*
X3456Y1219D01*
X3454Y1219D01*
X3454Y1225D01*
X3452Y1225D01*
X3452Y1233D01*
X3450Y1233D01*
X3450Y1239D01*
X3448Y1239D01*
X3448Y1245D01*
X3446Y1245D01*
X3446Y1251D01*
X3444Y1251D01*
X3444Y1257D01*
X3442Y1257D01*
X3442Y1263D01*
X3440Y1263D01*
X3440Y1271D01*
X3438Y1271D01*
X3438Y1277D01*
X3436Y1277D01*
X3436Y1283D01*
X3434Y1283D01*
X3434Y1289D01*
X3432Y1289D01*
X3432Y1295D01*
X3430Y1295D01*
X3430Y1303D01*
X3428Y1303D01*
X3428Y1309D01*
X3426Y1309D01*
X3426Y1315D01*
X3424Y1315D01*
X3424Y1321D01*
X3422Y1321D01*
X3422Y1327D01*
X3420Y1327D01*
X3420Y1333D01*
X3418Y1333D01*
X3418Y1341D01*
X3416Y1341D01*
X3416Y1347D01*
X3414Y1347D01*
X3414Y1353D01*
X3412Y1353D01*
X3412Y1359D01*
X3410Y1359D01*
X3410Y1365D01*
X3408Y1365D01*
X3408Y1373D01*
X3406Y1373D01*
X3406Y1379D01*
X3404Y1379D01*
X3404Y1385D01*
X3402Y1385D01*
X3402Y1391D01*
X3400Y1391D01*
X3400Y1397D01*
X3398Y1397D01*
X3398Y1403D01*
X3396Y1403D01*
X3396Y1411D01*
X3394Y1411D01*
X3394Y1417D01*
X3392Y1417D01*
X3392Y1423D01*
X3390Y1423D01*
X3390Y1429D01*
X3388Y1429D01*
X3388Y1435D01*
X3386Y1435D01*
X3386Y1441D01*
X3384Y1441D01*
X3384Y1449D01*
X3382Y1449D01*
X3382Y1455D01*
X3380Y1455D01*
X3380Y1461D01*
X3378Y1461D01*
X3378Y1467D01*
X3376Y1467D01*
X3376Y1473D01*
X3374Y1473D01*
X3374Y1481D01*
X3372Y1481D01*
X3372Y1487D01*
X3370Y1487D01*
X3370Y1493D01*
X3368Y1493D01*
X3368Y1499D01*
X3366Y1499D01*
X3366Y1505D01*
X3364Y1505D01*
X3364Y1511D01*
X3362Y1511D01*
X3362Y1519D01*
X3360Y1519D01*
X3360Y1525D01*
X3358Y1525D01*
X3358Y1531D01*
X3356Y1531D01*
X3356Y1537D01*
X3354Y1537D01*
X3354Y1543D01*
X3352Y1543D01*
X3352Y1551D01*
X3350Y1551D01*
X3350Y1557D01*
X3348Y1557D01*
X3348Y1563D01*
X3346Y1563D01*
X3346Y1569D01*
X3344Y1569D01*
X3344Y1575D01*
X3342Y1575D01*
X3342Y1581D01*
X3340Y1581D01*
X3340Y1589D01*
X3338Y1589D01*
X3338Y1595D01*
X3336Y1595D01*
X3336Y1601D01*
X3334Y1601D01*
X3334Y1607D01*
X3332Y1607D01*
X3332Y1613D01*
X3330Y1613D01*
X3330Y1617D01*
X2124Y1617D01*
G37*
D02*
G36*
X1926Y1343D02*
X1926Y1003D01*
X1928Y1003D01*
X1928Y457D01*
X1930Y457D01*
X1930Y455D01*
X1932Y455D01*
X1932Y453D01*
X1936Y453D01*
X1936Y451D01*
X1938Y451D01*
X1938Y449D01*
X1940Y449D01*
X1940Y447D01*
X1942Y447D01*
X1942Y445D01*
X1944Y445D01*
X1944Y443D01*
X1946Y443D01*
X1946Y441D01*
X1968Y441D01*
X1968Y443D01*
X1970Y443D01*
X1970Y447D01*
X1972Y447D01*
X1972Y449D01*
X1976Y449D01*
X1976Y451D01*
X1978Y451D01*
X1978Y453D01*
X1980Y453D01*
X1980Y455D01*
X1984Y455D01*
X1984Y457D01*
X1988Y457D01*
X1988Y459D01*
X1990Y459D01*
X1990Y473D01*
X1992Y473D01*
X1992Y491D01*
X1994Y491D01*
X1994Y509D01*
X1996Y509D01*
X1996Y527D01*
X1998Y527D01*
X1998Y545D01*
X2000Y545D01*
X2000Y563D01*
X2002Y563D01*
X2002Y581D01*
X2004Y581D01*
X2004Y601D01*
X2006Y601D01*
X2006Y619D01*
X2008Y619D01*
X2008Y637D01*
X2010Y637D01*
X2010Y655D01*
X2012Y655D01*
X2012Y673D01*
X2014Y673D01*
X2014Y691D01*
X2016Y691D01*
X2016Y709D01*
X2018Y709D01*
X2018Y727D01*
X2020Y727D01*
X2020Y745D01*
X2022Y745D01*
X2022Y765D01*
X2024Y765D01*
X2024Y783D01*
X2026Y783D01*
X2026Y801D01*
X2028Y801D01*
X2028Y819D01*
X2030Y819D01*
X2030Y837D01*
X2032Y837D01*
X2032Y855D01*
X2034Y855D01*
X2034Y873D01*
X2036Y873D01*
X2036Y891D01*
X2038Y891D01*
X2038Y909D01*
X2040Y909D01*
X2040Y929D01*
X2042Y929D01*
X2042Y947D01*
X2044Y947D01*
X2044Y965D01*
X2046Y965D01*
X2046Y983D01*
X2048Y983D01*
X2048Y1001D01*
X2050Y1001D01*
X2050Y1019D01*
X2052Y1019D01*
X2052Y1037D01*
X2054Y1037D01*
X2054Y1055D01*
X2056Y1055D01*
X2056Y1073D01*
X2058Y1073D01*
X2058Y1093D01*
X2060Y1093D01*
X2060Y1111D01*
X2062Y1111D01*
X2062Y1129D01*
X2064Y1129D01*
X2064Y1147D01*
X2066Y1147D01*
X2066Y1165D01*
X2068Y1165D01*
X2068Y1183D01*
X2070Y1183D01*
X2070Y1201D01*
X2072Y1201D01*
X2072Y1219D01*
X2074Y1219D01*
X2074Y1237D01*
X2076Y1237D01*
X2076Y1257D01*
X2078Y1257D01*
X2078Y1275D01*
X2080Y1275D01*
X2080Y1301D01*
X2078Y1301D01*
X2078Y1305D01*
X2076Y1305D01*
X2076Y1321D01*
X2078Y1321D01*
X2078Y1327D01*
X2080Y1327D01*
X2080Y1331D01*
X2082Y1331D01*
X2082Y1333D01*
X2084Y1333D01*
X2084Y1335D01*
X2086Y1335D01*
X2086Y1337D01*
X2088Y1337D01*
X2088Y1339D01*
X2092Y1339D01*
X2092Y1341D01*
X2098Y1341D01*
X2098Y1343D01*
X1926Y1343D01*
G37*
D02*
G36*
X2082Y905D02*
X2082Y889D01*
X2080Y889D01*
X2080Y879D01*
X2100Y879D01*
X2100Y883D01*
X2102Y883D01*
X2102Y887D01*
X2104Y887D01*
X2104Y889D01*
X2106Y889D01*
X2106Y891D01*
X2108Y891D01*
X2108Y893D01*
X2110Y893D01*
X2110Y895D01*
X2112Y895D01*
X2112Y897D01*
X2114Y897D01*
X2114Y899D01*
X2118Y899D01*
X2118Y901D01*
X2122Y901D01*
X2122Y903D01*
X2128Y903D01*
X2128Y905D01*
X2082Y905D01*
G37*
D02*
G36*
X2150Y905D02*
X2150Y903D01*
X2156Y903D01*
X2156Y901D01*
X2160Y901D01*
X2160Y899D01*
X2164Y899D01*
X2164Y897D01*
X2166Y897D01*
X2166Y895D01*
X2168Y895D01*
X2168Y893D01*
X2170Y893D01*
X2170Y891D01*
X2172Y891D01*
X2172Y889D01*
X2174Y889D01*
X2174Y885D01*
X2176Y885D01*
X2176Y881D01*
X2178Y881D01*
X2178Y877D01*
X2198Y877D01*
X2198Y879D01*
X2200Y879D01*
X2200Y883D01*
X2202Y883D01*
X2202Y887D01*
X2204Y887D01*
X2204Y889D01*
X2206Y889D01*
X2206Y891D01*
X2208Y891D01*
X2208Y893D01*
X2210Y893D01*
X2210Y895D01*
X2212Y895D01*
X2212Y897D01*
X2214Y897D01*
X2214Y899D01*
X2218Y899D01*
X2218Y901D01*
X2222Y901D01*
X2222Y903D01*
X2228Y903D01*
X2228Y905D01*
X2150Y905D01*
G37*
D02*
G36*
X2250Y905D02*
X2250Y903D01*
X2256Y903D01*
X2256Y901D01*
X2260Y901D01*
X2260Y899D01*
X2264Y899D01*
X2264Y897D01*
X2266Y897D01*
X2266Y895D01*
X2268Y895D01*
X2268Y893D01*
X2270Y893D01*
X2270Y891D01*
X2272Y891D01*
X2272Y889D01*
X2274Y889D01*
X2274Y885D01*
X2276Y885D01*
X2276Y881D01*
X2278Y881D01*
X2278Y877D01*
X2298Y877D01*
X2298Y879D01*
X2300Y879D01*
X2300Y883D01*
X2302Y883D01*
X2302Y887D01*
X2304Y887D01*
X2304Y889D01*
X2306Y889D01*
X2306Y891D01*
X2308Y891D01*
X2308Y893D01*
X2310Y893D01*
X2310Y895D01*
X2312Y895D01*
X2312Y897D01*
X2314Y897D01*
X2314Y899D01*
X2318Y899D01*
X2318Y901D01*
X2322Y901D01*
X2322Y903D01*
X2328Y903D01*
X2328Y905D01*
X2250Y905D01*
G37*
D02*
G36*
X2350Y905D02*
X2350Y903D01*
X2356Y903D01*
X2356Y901D01*
X2360Y901D01*
X2360Y899D01*
X2364Y899D01*
X2364Y897D01*
X2366Y897D01*
X2366Y895D01*
X2368Y895D01*
X2368Y893D01*
X2370Y893D01*
X2370Y891D01*
X2372Y891D01*
X2372Y889D01*
X2374Y889D01*
X2374Y885D01*
X2376Y885D01*
X2376Y881D01*
X2378Y881D01*
X2378Y877D01*
X2398Y877D01*
X2398Y879D01*
X2400Y879D01*
X2400Y883D01*
X2402Y883D01*
X2402Y887D01*
X2404Y887D01*
X2404Y889D01*
X2406Y889D01*
X2406Y891D01*
X2408Y891D01*
X2408Y893D01*
X2410Y893D01*
X2410Y895D01*
X2412Y895D01*
X2412Y897D01*
X2414Y897D01*
X2414Y899D01*
X2418Y899D01*
X2418Y901D01*
X2422Y901D01*
X2422Y903D01*
X2428Y903D01*
X2428Y905D01*
X2350Y905D01*
G37*
D02*
G36*
X2450Y905D02*
X2450Y903D01*
X2456Y903D01*
X2456Y901D01*
X2460Y901D01*
X2460Y899D01*
X2464Y899D01*
X2464Y897D01*
X2466Y897D01*
X2466Y895D01*
X2468Y895D01*
X2468Y893D01*
X2470Y893D01*
X2470Y891D01*
X2472Y891D01*
X2472Y889D01*
X2474Y889D01*
X2474Y885D01*
X2476Y885D01*
X2476Y881D01*
X2478Y881D01*
X2478Y877D01*
X2498Y877D01*
X2498Y879D01*
X2500Y879D01*
X2500Y883D01*
X2502Y883D01*
X2502Y887D01*
X2504Y887D01*
X2504Y889D01*
X2506Y889D01*
X2506Y891D01*
X2508Y891D01*
X2508Y893D01*
X2510Y893D01*
X2510Y895D01*
X2512Y895D01*
X2512Y897D01*
X2514Y897D01*
X2514Y899D01*
X2518Y899D01*
X2518Y901D01*
X2522Y901D01*
X2522Y903D01*
X2528Y903D01*
X2528Y905D01*
X2450Y905D01*
G37*
D02*
G36*
X2550Y905D02*
X2550Y903D01*
X2556Y903D01*
X2556Y901D01*
X2560Y901D01*
X2560Y899D01*
X2564Y899D01*
X2564Y897D01*
X2566Y897D01*
X2566Y895D01*
X2568Y895D01*
X2568Y893D01*
X2570Y893D01*
X2570Y891D01*
X2572Y891D01*
X2572Y889D01*
X2574Y889D01*
X2574Y885D01*
X2576Y885D01*
X2576Y881D01*
X2578Y881D01*
X2578Y877D01*
X2598Y877D01*
X2598Y879D01*
X2600Y879D01*
X2600Y883D01*
X2602Y883D01*
X2602Y887D01*
X2604Y887D01*
X2604Y889D01*
X2606Y889D01*
X2606Y891D01*
X2608Y891D01*
X2608Y893D01*
X2610Y893D01*
X2610Y895D01*
X2612Y895D01*
X2612Y897D01*
X2614Y897D01*
X2614Y899D01*
X2618Y899D01*
X2618Y901D01*
X2622Y901D01*
X2622Y903D01*
X2628Y903D01*
X2628Y905D01*
X2550Y905D01*
G37*
D02*
G36*
X2650Y905D02*
X2650Y903D01*
X2656Y903D01*
X2656Y901D01*
X2660Y901D01*
X2660Y899D01*
X2664Y899D01*
X2664Y897D01*
X2666Y897D01*
X2666Y895D01*
X2668Y895D01*
X2668Y893D01*
X2670Y893D01*
X2670Y891D01*
X2672Y891D01*
X2672Y889D01*
X2674Y889D01*
X2674Y885D01*
X2676Y885D01*
X2676Y881D01*
X2678Y881D01*
X2678Y877D01*
X2698Y877D01*
X2698Y879D01*
X2700Y879D01*
X2700Y883D01*
X2702Y883D01*
X2702Y887D01*
X2704Y887D01*
X2704Y889D01*
X2706Y889D01*
X2706Y891D01*
X2708Y891D01*
X2708Y893D01*
X2710Y893D01*
X2710Y895D01*
X2712Y895D01*
X2712Y897D01*
X2714Y897D01*
X2714Y899D01*
X2718Y899D01*
X2718Y901D01*
X2722Y901D01*
X2722Y903D01*
X2728Y903D01*
X2728Y905D01*
X2650Y905D01*
G37*
D02*
G36*
X2750Y905D02*
X2750Y903D01*
X2756Y903D01*
X2756Y901D01*
X2760Y901D01*
X2760Y899D01*
X2764Y899D01*
X2764Y897D01*
X2766Y897D01*
X2766Y895D01*
X2768Y895D01*
X2768Y893D01*
X2770Y893D01*
X2770Y891D01*
X2772Y891D01*
X2772Y889D01*
X2774Y889D01*
X2774Y885D01*
X2776Y885D01*
X2776Y881D01*
X2778Y881D01*
X2778Y877D01*
X2798Y877D01*
X2798Y879D01*
X2800Y879D01*
X2800Y883D01*
X2802Y883D01*
X2802Y887D01*
X2804Y887D01*
X2804Y889D01*
X2806Y889D01*
X2806Y891D01*
X2808Y891D01*
X2808Y893D01*
X2810Y893D01*
X2810Y895D01*
X2812Y895D01*
X2812Y897D01*
X2814Y897D01*
X2814Y899D01*
X2818Y899D01*
X2818Y901D01*
X2822Y901D01*
X2822Y903D01*
X2828Y903D01*
X2828Y905D01*
X2750Y905D01*
G37*
D02*
G36*
X2850Y905D02*
X2850Y903D01*
X2856Y903D01*
X2856Y901D01*
X2860Y901D01*
X2860Y899D01*
X2864Y899D01*
X2864Y897D01*
X2866Y897D01*
X2866Y895D01*
X2868Y895D01*
X2868Y893D01*
X2870Y893D01*
X2870Y891D01*
X2872Y891D01*
X2872Y889D01*
X2874Y889D01*
X2874Y885D01*
X2876Y885D01*
X2876Y881D01*
X2878Y881D01*
X2878Y877D01*
X2898Y877D01*
X2898Y879D01*
X2900Y879D01*
X2900Y883D01*
X2902Y883D01*
X2902Y887D01*
X2904Y887D01*
X2904Y889D01*
X2906Y889D01*
X2906Y891D01*
X2908Y891D01*
X2908Y893D01*
X2910Y893D01*
X2910Y895D01*
X2912Y895D01*
X2912Y897D01*
X2914Y897D01*
X2914Y899D01*
X2918Y899D01*
X2918Y901D01*
X2922Y901D01*
X2922Y903D01*
X2928Y903D01*
X2928Y905D01*
X2850Y905D01*
G37*
D02*
G36*
X2950Y905D02*
X2950Y903D01*
X2956Y903D01*
X2956Y901D01*
X2960Y901D01*
X2960Y899D01*
X2964Y899D01*
X2964Y897D01*
X2966Y897D01*
X2966Y895D01*
X2968Y895D01*
X2968Y893D01*
X2970Y893D01*
X2970Y891D01*
X2972Y891D01*
X2972Y889D01*
X2974Y889D01*
X2974Y885D01*
X2976Y885D01*
X2976Y881D01*
X2978Y881D01*
X2978Y877D01*
X2998Y877D01*
X2998Y879D01*
X3000Y879D01*
X3000Y883D01*
X3002Y883D01*
X3002Y887D01*
X3004Y887D01*
X3004Y889D01*
X3006Y889D01*
X3006Y891D01*
X3008Y891D01*
X3008Y893D01*
X3010Y893D01*
X3010Y895D01*
X3012Y895D01*
X3012Y897D01*
X3014Y897D01*
X3014Y899D01*
X3018Y899D01*
X3018Y901D01*
X3022Y901D01*
X3022Y903D01*
X3028Y903D01*
X3028Y905D01*
X2950Y905D01*
G37*
D02*
G36*
X3050Y905D02*
X3050Y903D01*
X3056Y903D01*
X3056Y901D01*
X3060Y901D01*
X3060Y899D01*
X3064Y899D01*
X3064Y897D01*
X3066Y897D01*
X3066Y895D01*
X3068Y895D01*
X3068Y893D01*
X3070Y893D01*
X3070Y891D01*
X3072Y891D01*
X3072Y889D01*
X3074Y889D01*
X3074Y885D01*
X3076Y885D01*
X3076Y881D01*
X3078Y881D01*
X3078Y877D01*
X3098Y877D01*
X3098Y879D01*
X3100Y879D01*
X3100Y883D01*
X3102Y883D01*
X3102Y887D01*
X3104Y887D01*
X3104Y889D01*
X3106Y889D01*
X3106Y891D01*
X3108Y891D01*
X3108Y893D01*
X3110Y893D01*
X3110Y895D01*
X3112Y895D01*
X3112Y897D01*
X3114Y897D01*
X3114Y899D01*
X3118Y899D01*
X3118Y901D01*
X3122Y901D01*
X3122Y903D01*
X3128Y903D01*
X3128Y905D01*
X3050Y905D01*
G37*
D02*
G36*
X3150Y905D02*
X3150Y903D01*
X3156Y903D01*
X3156Y901D01*
X3160Y901D01*
X3160Y899D01*
X3164Y899D01*
X3164Y897D01*
X3166Y897D01*
X3166Y895D01*
X3168Y895D01*
X3168Y893D01*
X3170Y893D01*
X3170Y891D01*
X3172Y891D01*
X3172Y889D01*
X3174Y889D01*
X3174Y885D01*
X3176Y885D01*
X3176Y881D01*
X3178Y881D01*
X3178Y877D01*
X3198Y877D01*
X3198Y879D01*
X3200Y879D01*
X3200Y883D01*
X3202Y883D01*
X3202Y887D01*
X3204Y887D01*
X3204Y889D01*
X3206Y889D01*
X3206Y891D01*
X3208Y891D01*
X3208Y893D01*
X3210Y893D01*
X3210Y895D01*
X3212Y895D01*
X3212Y897D01*
X3214Y897D01*
X3214Y899D01*
X3218Y899D01*
X3218Y901D01*
X3222Y901D01*
X3222Y903D01*
X3228Y903D01*
X3228Y905D01*
X3150Y905D01*
G37*
D02*
G36*
X3178Y849D02*
X3178Y843D01*
X3176Y843D01*
X3176Y841D01*
X3174Y841D01*
X3174Y837D01*
X3172Y837D01*
X3172Y835D01*
X3170Y835D01*
X3170Y833D01*
X3168Y833D01*
X3168Y831D01*
X3166Y831D01*
X3166Y829D01*
X3164Y829D01*
X3164Y827D01*
X3160Y827D01*
X3160Y823D01*
X3158Y823D01*
X3158Y819D01*
X3234Y819D01*
X3234Y821D01*
X3226Y821D01*
X3226Y823D01*
X3220Y823D01*
X3220Y825D01*
X3216Y825D01*
X3216Y827D01*
X3214Y827D01*
X3214Y829D01*
X3212Y829D01*
X3212Y831D01*
X3208Y831D01*
X3208Y833D01*
X3206Y833D01*
X3206Y837D01*
X3204Y837D01*
X3204Y839D01*
X3202Y839D01*
X3202Y843D01*
X3200Y843D01*
X3200Y847D01*
X3198Y847D01*
X3198Y849D01*
X3178Y849D01*
G37*
D02*
G36*
X3158Y819D02*
X3158Y817D01*
X3582Y817D01*
X3582Y819D01*
X3158Y819D01*
G37*
D02*
G36*
X3158Y819D02*
X3158Y817D01*
X3582Y817D01*
X3582Y819D01*
X3158Y819D01*
G37*
D02*
G36*
X3158Y817D02*
X3158Y777D01*
X3156Y777D01*
X3156Y731D01*
X3154Y731D01*
X3154Y683D01*
X3152Y683D01*
X3152Y661D01*
X3718Y661D01*
X3718Y659D01*
X3726Y659D01*
X3726Y657D01*
X3730Y657D01*
X3730Y655D01*
X3732Y655D01*
X3732Y653D01*
X3736Y653D01*
X3736Y651D01*
X3738Y651D01*
X3738Y649D01*
X3740Y649D01*
X3740Y647D01*
X3742Y647D01*
X3742Y645D01*
X3744Y645D01*
X3744Y643D01*
X3746Y643D01*
X3746Y641D01*
X3748Y641D01*
X3748Y637D01*
X3750Y637D01*
X3750Y633D01*
X3752Y633D01*
X3752Y627D01*
X3754Y627D01*
X3754Y619D01*
X3756Y619D01*
X3756Y607D01*
X3754Y607D01*
X3754Y597D01*
X3752Y597D01*
X3752Y593D01*
X3750Y593D01*
X3750Y589D01*
X3748Y589D01*
X3748Y585D01*
X3746Y585D01*
X3746Y583D01*
X3744Y583D01*
X3744Y581D01*
X3742Y581D01*
X3742Y577D01*
X3738Y577D01*
X3738Y575D01*
X3736Y575D01*
X3736Y573D01*
X3734Y573D01*
X3734Y553D01*
X3736Y553D01*
X3736Y551D01*
X3738Y551D01*
X3738Y549D01*
X3740Y549D01*
X3740Y547D01*
X3742Y547D01*
X3742Y545D01*
X3744Y545D01*
X3744Y543D01*
X3746Y543D01*
X3746Y541D01*
X3748Y541D01*
X3748Y537D01*
X3750Y537D01*
X3750Y535D01*
X3784Y535D01*
X3784Y701D01*
X3780Y701D01*
X3780Y703D01*
X3776Y703D01*
X3776Y705D01*
X3772Y705D01*
X3772Y707D01*
X3768Y707D01*
X3768Y709D01*
X3764Y709D01*
X3764Y711D01*
X3760Y711D01*
X3760Y713D01*
X3756Y713D01*
X3756Y715D01*
X3752Y715D01*
X3752Y717D01*
X3748Y717D01*
X3748Y719D01*
X3744Y719D01*
X3744Y721D01*
X3740Y721D01*
X3740Y723D01*
X3736Y723D01*
X3736Y725D01*
X3732Y725D01*
X3732Y727D01*
X3728Y727D01*
X3728Y729D01*
X3724Y729D01*
X3724Y731D01*
X3720Y731D01*
X3720Y733D01*
X3716Y733D01*
X3716Y735D01*
X3712Y735D01*
X3712Y737D01*
X3708Y737D01*
X3708Y739D01*
X3704Y739D01*
X3704Y741D01*
X3700Y741D01*
X3700Y743D01*
X3696Y743D01*
X3696Y745D01*
X3692Y745D01*
X3692Y747D01*
X3688Y747D01*
X3688Y749D01*
X3684Y749D01*
X3684Y751D01*
X3680Y751D01*
X3680Y753D01*
X3676Y753D01*
X3676Y755D01*
X3672Y755D01*
X3672Y757D01*
X3666Y757D01*
X3666Y759D01*
X3662Y759D01*
X3662Y761D01*
X3658Y761D01*
X3658Y763D01*
X3654Y763D01*
X3654Y765D01*
X3650Y765D01*
X3650Y767D01*
X3646Y767D01*
X3646Y769D01*
X3642Y769D01*
X3642Y771D01*
X3638Y771D01*
X3638Y773D01*
X3634Y773D01*
X3634Y775D01*
X3630Y775D01*
X3630Y777D01*
X3626Y777D01*
X3626Y779D01*
X3622Y779D01*
X3622Y781D01*
X3618Y781D01*
X3618Y783D01*
X3614Y783D01*
X3614Y785D01*
X3610Y785D01*
X3610Y787D01*
X3606Y787D01*
X3606Y789D01*
X3602Y789D01*
X3602Y791D01*
X3598Y791D01*
X3598Y793D01*
X3594Y793D01*
X3594Y795D01*
X3592Y795D01*
X3592Y797D01*
X3590Y797D01*
X3590Y799D01*
X3588Y799D01*
X3588Y801D01*
X3586Y801D01*
X3586Y807D01*
X3584Y807D01*
X3584Y813D01*
X3582Y813D01*
X3582Y817D01*
X3158Y817D01*
G37*
D02*
G36*
X3152Y661D02*
X3152Y637D01*
X3150Y637D01*
X3150Y591D01*
X3148Y591D01*
X3148Y565D01*
X3298Y565D01*
X3298Y567D01*
X3292Y567D01*
X3292Y569D01*
X3286Y569D01*
X3286Y571D01*
X3282Y571D01*
X3282Y573D01*
X3280Y573D01*
X3280Y575D01*
X3276Y575D01*
X3276Y577D01*
X3274Y577D01*
X3274Y579D01*
X3272Y579D01*
X3272Y581D01*
X3270Y581D01*
X3270Y585D01*
X3268Y585D01*
X3268Y587D01*
X3266Y587D01*
X3266Y591D01*
X3264Y591D01*
X3264Y593D01*
X3262Y593D01*
X3262Y601D01*
X3260Y601D01*
X3260Y625D01*
X3262Y625D01*
X3262Y631D01*
X3264Y631D01*
X3264Y635D01*
X3266Y635D01*
X3266Y639D01*
X3268Y639D01*
X3268Y641D01*
X3270Y641D01*
X3270Y643D01*
X3272Y643D01*
X3272Y647D01*
X3276Y647D01*
X3276Y649D01*
X3278Y649D01*
X3278Y651D01*
X3280Y651D01*
X3280Y653D01*
X3284Y653D01*
X3284Y655D01*
X3288Y655D01*
X3288Y657D01*
X3294Y657D01*
X3294Y659D01*
X3302Y659D01*
X3302Y661D01*
X3152Y661D01*
G37*
D02*
G36*
X3310Y661D02*
X3310Y659D01*
X3320Y659D01*
X3320Y657D01*
X3326Y657D01*
X3326Y655D01*
X3330Y655D01*
X3330Y653D01*
X3334Y653D01*
X3334Y651D01*
X3336Y651D01*
X3336Y649D01*
X3338Y649D01*
X3338Y647D01*
X3340Y647D01*
X3340Y645D01*
X3342Y645D01*
X3342Y643D01*
X3344Y643D01*
X3344Y641D01*
X3346Y641D01*
X3346Y637D01*
X3348Y637D01*
X3348Y635D01*
X3664Y635D01*
X3664Y639D01*
X3666Y639D01*
X3666Y641D01*
X3668Y641D01*
X3668Y643D01*
X3670Y643D01*
X3670Y647D01*
X3672Y647D01*
X3672Y649D01*
X3676Y649D01*
X3676Y651D01*
X3678Y651D01*
X3678Y653D01*
X3680Y653D01*
X3680Y655D01*
X3684Y655D01*
X3684Y657D01*
X3688Y657D01*
X3688Y659D01*
X3694Y659D01*
X3694Y661D01*
X3310Y661D01*
G37*
D02*
G36*
X3348Y591D02*
X3348Y589D01*
X3346Y589D01*
X3346Y585D01*
X3344Y585D01*
X3344Y583D01*
X3342Y583D01*
X3342Y581D01*
X3340Y581D01*
X3340Y579D01*
X3338Y579D01*
X3338Y577D01*
X3336Y577D01*
X3336Y575D01*
X3334Y575D01*
X3334Y573D01*
X3330Y573D01*
X3330Y571D01*
X3326Y571D01*
X3326Y569D01*
X3322Y569D01*
X3322Y567D01*
X3314Y567D01*
X3314Y565D01*
X3680Y565D01*
X3680Y573D01*
X3676Y573D01*
X3676Y575D01*
X3674Y575D01*
X3674Y577D01*
X3672Y577D01*
X3672Y579D01*
X3670Y579D01*
X3670Y581D01*
X3668Y581D01*
X3668Y585D01*
X3666Y585D01*
X3666Y587D01*
X3664Y587D01*
X3664Y591D01*
X3348Y591D01*
G37*
D02*
G36*
X3148Y565D02*
X3148Y563D01*
X3680Y563D01*
X3680Y565D01*
X3148Y565D01*
G37*
D02*
G36*
X3148Y565D02*
X3148Y563D01*
X3680Y563D01*
X3680Y565D01*
X3148Y565D01*
G37*
D02*
G36*
X3148Y563D02*
X3148Y543D01*
X3146Y543D01*
X3146Y497D01*
X3144Y497D01*
X3144Y463D01*
X3702Y463D01*
X3702Y465D01*
X3692Y465D01*
X3692Y467D01*
X3686Y467D01*
X3686Y469D01*
X3684Y469D01*
X3684Y471D01*
X3680Y471D01*
X3680Y473D01*
X3676Y473D01*
X3676Y475D01*
X3674Y475D01*
X3674Y477D01*
X3672Y477D01*
X3672Y479D01*
X3670Y479D01*
X3670Y481D01*
X3668Y481D01*
X3668Y485D01*
X3666Y485D01*
X3666Y487D01*
X3664Y487D01*
X3664Y491D01*
X3662Y491D01*
X3662Y495D01*
X3660Y495D01*
X3660Y501D01*
X3658Y501D01*
X3658Y523D01*
X3660Y523D01*
X3660Y531D01*
X3662Y531D01*
X3662Y535D01*
X3664Y535D01*
X3664Y539D01*
X3666Y539D01*
X3666Y541D01*
X3668Y541D01*
X3668Y543D01*
X3670Y543D01*
X3670Y547D01*
X3672Y547D01*
X3672Y549D01*
X3676Y549D01*
X3676Y551D01*
X3678Y551D01*
X3678Y553D01*
X3680Y553D01*
X3680Y563D01*
X3148Y563D01*
G37*
D02*
G36*
X3750Y491D02*
X3750Y489D01*
X3748Y489D01*
X3748Y485D01*
X3746Y485D01*
X3746Y483D01*
X3744Y483D01*
X3744Y481D01*
X3742Y481D01*
X3742Y477D01*
X3738Y477D01*
X3738Y475D01*
X3736Y475D01*
X3736Y473D01*
X3734Y473D01*
X3734Y471D01*
X3730Y471D01*
X3730Y469D01*
X3726Y469D01*
X3726Y467D01*
X3720Y467D01*
X3720Y465D01*
X3710Y465D01*
X3710Y463D01*
X3784Y463D01*
X3784Y491D01*
X3750Y491D01*
G37*
D02*
G36*
X3144Y463D02*
X3144Y461D01*
X3784Y461D01*
X3784Y463D01*
X3144Y463D01*
G37*
D02*
G36*
X3144Y463D02*
X3144Y461D01*
X3784Y461D01*
X3784Y463D01*
X3144Y463D01*
G37*
D02*
G36*
X3144Y461D02*
X3144Y449D01*
X3142Y449D01*
X3142Y403D01*
X3140Y403D01*
X3140Y357D01*
X3138Y357D01*
X3138Y309D01*
X3136Y309D01*
X3136Y263D01*
X3134Y263D01*
X3134Y217D01*
X3132Y217D01*
X3132Y161D01*
X3218Y161D01*
X3218Y159D01*
X3226Y159D01*
X3226Y157D01*
X3230Y157D01*
X3230Y155D01*
X3232Y155D01*
X3232Y153D01*
X3236Y153D01*
X3236Y151D01*
X3238Y151D01*
X3238Y149D01*
X3240Y149D01*
X3240Y147D01*
X3242Y147D01*
X3242Y145D01*
X3244Y145D01*
X3244Y143D01*
X3246Y143D01*
X3246Y141D01*
X3248Y141D01*
X3248Y137D01*
X3250Y137D01*
X3250Y135D01*
X3464Y135D01*
X3464Y139D01*
X3466Y139D01*
X3466Y141D01*
X3468Y141D01*
X3468Y143D01*
X3470Y143D01*
X3470Y147D01*
X3472Y147D01*
X3472Y149D01*
X3476Y149D01*
X3476Y151D01*
X3478Y151D01*
X3478Y153D01*
X3480Y153D01*
X3480Y173D01*
X3476Y173D01*
X3476Y175D01*
X3474Y175D01*
X3474Y177D01*
X3472Y177D01*
X3472Y179D01*
X3470Y179D01*
X3470Y181D01*
X3468Y181D01*
X3468Y185D01*
X3466Y185D01*
X3466Y187D01*
X3464Y187D01*
X3464Y191D01*
X3462Y191D01*
X3462Y195D01*
X3460Y195D01*
X3460Y201D01*
X3458Y201D01*
X3458Y231D01*
X3456Y231D01*
X3456Y233D01*
X3454Y233D01*
X3454Y235D01*
X3452Y235D01*
X3452Y237D01*
X3450Y237D01*
X3450Y239D01*
X3448Y239D01*
X3448Y241D01*
X3446Y241D01*
X3446Y243D01*
X3444Y243D01*
X3444Y245D01*
X3442Y245D01*
X3442Y247D01*
X3440Y247D01*
X3440Y249D01*
X3438Y249D01*
X3438Y251D01*
X3436Y251D01*
X3436Y253D01*
X3434Y253D01*
X3434Y255D01*
X3432Y255D01*
X3432Y257D01*
X3430Y257D01*
X3430Y259D01*
X3428Y259D01*
X3428Y261D01*
X3426Y261D01*
X3426Y263D01*
X3424Y263D01*
X3424Y265D01*
X3422Y265D01*
X3422Y267D01*
X3420Y267D01*
X3420Y269D01*
X3418Y269D01*
X3418Y271D01*
X3416Y271D01*
X3416Y273D01*
X3414Y273D01*
X3414Y275D01*
X3412Y275D01*
X3412Y277D01*
X3410Y277D01*
X3410Y279D01*
X3408Y279D01*
X3408Y281D01*
X3406Y281D01*
X3406Y283D01*
X3404Y283D01*
X3404Y285D01*
X3402Y285D01*
X3402Y287D01*
X3400Y287D01*
X3400Y289D01*
X3398Y289D01*
X3398Y291D01*
X3396Y291D01*
X3396Y293D01*
X3394Y293D01*
X3394Y295D01*
X3392Y295D01*
X3392Y297D01*
X3390Y297D01*
X3390Y299D01*
X3388Y299D01*
X3388Y301D01*
X3386Y301D01*
X3386Y303D01*
X3384Y303D01*
X3384Y305D01*
X3382Y305D01*
X3382Y307D01*
X3380Y307D01*
X3380Y309D01*
X3378Y309D01*
X3378Y311D01*
X3376Y311D01*
X3376Y313D01*
X3374Y313D01*
X3374Y315D01*
X3372Y315D01*
X3372Y317D01*
X3370Y317D01*
X3370Y319D01*
X3368Y319D01*
X3368Y321D01*
X3366Y321D01*
X3366Y323D01*
X3364Y323D01*
X3364Y325D01*
X3362Y325D01*
X3362Y327D01*
X3360Y327D01*
X3360Y329D01*
X3358Y329D01*
X3358Y331D01*
X3356Y331D01*
X3356Y333D01*
X3354Y333D01*
X3354Y335D01*
X3352Y335D01*
X3352Y337D01*
X3350Y337D01*
X3350Y339D01*
X3348Y339D01*
X3348Y341D01*
X3346Y341D01*
X3346Y343D01*
X3344Y343D01*
X3344Y345D01*
X3342Y345D01*
X3342Y347D01*
X3340Y347D01*
X3340Y349D01*
X3338Y349D01*
X3338Y351D01*
X3336Y351D01*
X3336Y353D01*
X3334Y353D01*
X3334Y355D01*
X3332Y355D01*
X3332Y357D01*
X3330Y357D01*
X3330Y359D01*
X3328Y359D01*
X3328Y361D01*
X3326Y361D01*
X3326Y363D01*
X3324Y363D01*
X3324Y365D01*
X3298Y365D01*
X3298Y367D01*
X3292Y367D01*
X3292Y369D01*
X3286Y369D01*
X3286Y371D01*
X3282Y371D01*
X3282Y373D01*
X3280Y373D01*
X3280Y375D01*
X3276Y375D01*
X3276Y377D01*
X3274Y377D01*
X3274Y379D01*
X3272Y379D01*
X3272Y381D01*
X3270Y381D01*
X3270Y385D01*
X3268Y385D01*
X3268Y387D01*
X3266Y387D01*
X3266Y391D01*
X3264Y391D01*
X3264Y393D01*
X3262Y393D01*
X3262Y401D01*
X3260Y401D01*
X3260Y425D01*
X3262Y425D01*
X3262Y431D01*
X3264Y431D01*
X3264Y435D01*
X3266Y435D01*
X3266Y439D01*
X3268Y439D01*
X3268Y441D01*
X3270Y441D01*
X3270Y443D01*
X3272Y443D01*
X3272Y447D01*
X3276Y447D01*
X3276Y449D01*
X3278Y449D01*
X3278Y451D01*
X3280Y451D01*
X3280Y453D01*
X3284Y453D01*
X3284Y455D01*
X3288Y455D01*
X3288Y457D01*
X3294Y457D01*
X3294Y459D01*
X3302Y459D01*
X3302Y461D01*
X3144Y461D01*
G37*
D02*
G36*
X3310Y461D02*
X3310Y459D01*
X3320Y459D01*
X3320Y457D01*
X3326Y457D01*
X3326Y455D01*
X3330Y455D01*
X3330Y453D01*
X3334Y453D01*
X3334Y451D01*
X3336Y451D01*
X3336Y449D01*
X3338Y449D01*
X3338Y447D01*
X3340Y447D01*
X3340Y445D01*
X3342Y445D01*
X3342Y443D01*
X3344Y443D01*
X3344Y441D01*
X3346Y441D01*
X3346Y437D01*
X3348Y437D01*
X3348Y433D01*
X3350Y433D01*
X3350Y429D01*
X3352Y429D01*
X3352Y423D01*
X3354Y423D01*
X3354Y395D01*
X3356Y395D01*
X3356Y393D01*
X3358Y393D01*
X3358Y391D01*
X3360Y391D01*
X3360Y389D01*
X3362Y389D01*
X3362Y387D01*
X3364Y387D01*
X3364Y385D01*
X3366Y385D01*
X3366Y383D01*
X3368Y383D01*
X3368Y381D01*
X3370Y381D01*
X3370Y379D01*
X3372Y379D01*
X3372Y377D01*
X3374Y377D01*
X3374Y375D01*
X3376Y375D01*
X3376Y373D01*
X3378Y373D01*
X3378Y371D01*
X3380Y371D01*
X3380Y369D01*
X3382Y369D01*
X3382Y367D01*
X3384Y367D01*
X3384Y365D01*
X3386Y365D01*
X3386Y363D01*
X3388Y363D01*
X3388Y361D01*
X3390Y361D01*
X3390Y359D01*
X3392Y359D01*
X3392Y357D01*
X3394Y357D01*
X3394Y355D01*
X3396Y355D01*
X3396Y353D01*
X3398Y353D01*
X3398Y351D01*
X3400Y351D01*
X3400Y349D01*
X3402Y349D01*
X3402Y347D01*
X3404Y347D01*
X3404Y345D01*
X3406Y345D01*
X3406Y343D01*
X3408Y343D01*
X3408Y341D01*
X3410Y341D01*
X3410Y339D01*
X3412Y339D01*
X3412Y337D01*
X3414Y337D01*
X3414Y335D01*
X3416Y335D01*
X3416Y333D01*
X3418Y333D01*
X3418Y331D01*
X3420Y331D01*
X3420Y329D01*
X3422Y329D01*
X3422Y327D01*
X3424Y327D01*
X3424Y325D01*
X3426Y325D01*
X3426Y323D01*
X3428Y323D01*
X3428Y321D01*
X3430Y321D01*
X3430Y319D01*
X3432Y319D01*
X3432Y317D01*
X3434Y317D01*
X3434Y315D01*
X3436Y315D01*
X3436Y313D01*
X3438Y313D01*
X3438Y311D01*
X3440Y311D01*
X3440Y309D01*
X3442Y309D01*
X3442Y307D01*
X3444Y307D01*
X3444Y305D01*
X3446Y305D01*
X3446Y303D01*
X3448Y303D01*
X3448Y301D01*
X3450Y301D01*
X3450Y299D01*
X3452Y299D01*
X3452Y297D01*
X3454Y297D01*
X3454Y295D01*
X3456Y295D01*
X3456Y293D01*
X3458Y293D01*
X3458Y291D01*
X3460Y291D01*
X3460Y289D01*
X3462Y289D01*
X3462Y287D01*
X3464Y287D01*
X3464Y285D01*
X3466Y285D01*
X3466Y283D01*
X3468Y283D01*
X3468Y281D01*
X3470Y281D01*
X3470Y279D01*
X3472Y279D01*
X3472Y277D01*
X3474Y277D01*
X3474Y275D01*
X3476Y275D01*
X3476Y273D01*
X3478Y273D01*
X3478Y271D01*
X3480Y271D01*
X3480Y269D01*
X3482Y269D01*
X3482Y267D01*
X3484Y267D01*
X3484Y265D01*
X3486Y265D01*
X3486Y263D01*
X3488Y263D01*
X3488Y261D01*
X3518Y261D01*
X3518Y259D01*
X3526Y259D01*
X3526Y257D01*
X3530Y257D01*
X3530Y255D01*
X3532Y255D01*
X3532Y253D01*
X3536Y253D01*
X3536Y251D01*
X3538Y251D01*
X3538Y249D01*
X3540Y249D01*
X3540Y247D01*
X3542Y247D01*
X3542Y245D01*
X3544Y245D01*
X3544Y243D01*
X3546Y243D01*
X3546Y241D01*
X3548Y241D01*
X3548Y237D01*
X3550Y237D01*
X3550Y233D01*
X3552Y233D01*
X3552Y227D01*
X3554Y227D01*
X3554Y219D01*
X3556Y219D01*
X3556Y207D01*
X3554Y207D01*
X3554Y197D01*
X3552Y197D01*
X3552Y193D01*
X3550Y193D01*
X3550Y189D01*
X3548Y189D01*
X3548Y181D01*
X3568Y181D01*
X3568Y183D01*
X3572Y183D01*
X3572Y185D01*
X3574Y185D01*
X3574Y187D01*
X3578Y187D01*
X3578Y189D01*
X3580Y189D01*
X3580Y191D01*
X3584Y191D01*
X3584Y193D01*
X3586Y193D01*
X3586Y195D01*
X3590Y195D01*
X3590Y197D01*
X3594Y197D01*
X3594Y199D01*
X3596Y199D01*
X3596Y201D01*
X3600Y201D01*
X3600Y203D01*
X3602Y203D01*
X3602Y205D01*
X3606Y205D01*
X3606Y207D01*
X3608Y207D01*
X3608Y209D01*
X3612Y209D01*
X3612Y211D01*
X3614Y211D01*
X3614Y213D01*
X3618Y213D01*
X3618Y215D01*
X3620Y215D01*
X3620Y217D01*
X3624Y217D01*
X3624Y219D01*
X3626Y219D01*
X3626Y221D01*
X3630Y221D01*
X3630Y223D01*
X3632Y223D01*
X3632Y225D01*
X3636Y225D01*
X3636Y227D01*
X3638Y227D01*
X3638Y229D01*
X3642Y229D01*
X3642Y231D01*
X3644Y231D01*
X3644Y233D01*
X3648Y233D01*
X3648Y235D01*
X3650Y235D01*
X3650Y237D01*
X3654Y237D01*
X3654Y239D01*
X3656Y239D01*
X3656Y241D01*
X3660Y241D01*
X3660Y243D01*
X3662Y243D01*
X3662Y245D01*
X3666Y245D01*
X3666Y247D01*
X3668Y247D01*
X3668Y249D01*
X3672Y249D01*
X3672Y251D01*
X3674Y251D01*
X3674Y253D01*
X3678Y253D01*
X3678Y255D01*
X3682Y255D01*
X3682Y257D01*
X3684Y257D01*
X3684Y259D01*
X3688Y259D01*
X3688Y261D01*
X3690Y261D01*
X3690Y263D01*
X3694Y263D01*
X3694Y265D01*
X3696Y265D01*
X3696Y267D01*
X3700Y267D01*
X3700Y269D01*
X3702Y269D01*
X3702Y271D01*
X3706Y271D01*
X3706Y273D01*
X3708Y273D01*
X3708Y275D01*
X3712Y275D01*
X3712Y277D01*
X3714Y277D01*
X3714Y279D01*
X3718Y279D01*
X3718Y281D01*
X3720Y281D01*
X3720Y283D01*
X3724Y283D01*
X3724Y285D01*
X3726Y285D01*
X3726Y287D01*
X3730Y287D01*
X3730Y289D01*
X3732Y289D01*
X3732Y291D01*
X3736Y291D01*
X3736Y293D01*
X3738Y293D01*
X3738Y295D01*
X3742Y295D01*
X3742Y297D01*
X3744Y297D01*
X3744Y299D01*
X3748Y299D01*
X3748Y301D01*
X3750Y301D01*
X3750Y303D01*
X3754Y303D01*
X3754Y305D01*
X3756Y305D01*
X3756Y307D01*
X3760Y307D01*
X3760Y309D01*
X3762Y309D01*
X3762Y311D01*
X3766Y311D01*
X3766Y313D01*
X3768Y313D01*
X3768Y315D01*
X3772Y315D01*
X3772Y317D01*
X3776Y317D01*
X3776Y319D01*
X3778Y319D01*
X3778Y321D01*
X3782Y321D01*
X3782Y323D01*
X3784Y323D01*
X3784Y461D01*
X3310Y461D01*
G37*
D02*
G36*
X3132Y161D02*
X3132Y153D01*
X3136Y153D01*
X3136Y151D01*
X3138Y151D01*
X3138Y149D01*
X3140Y149D01*
X3140Y147D01*
X3142Y147D01*
X3142Y145D01*
X3144Y145D01*
X3144Y143D01*
X3146Y143D01*
X3146Y141D01*
X3168Y141D01*
X3168Y143D01*
X3170Y143D01*
X3170Y147D01*
X3172Y147D01*
X3172Y149D01*
X3176Y149D01*
X3176Y151D01*
X3178Y151D01*
X3178Y153D01*
X3180Y153D01*
X3180Y155D01*
X3184Y155D01*
X3184Y157D01*
X3188Y157D01*
X3188Y159D01*
X3194Y159D01*
X3194Y161D01*
X3132Y161D01*
G37*
D02*
G36*
X2382Y843D02*
X2382Y835D01*
X2384Y835D01*
X2384Y833D01*
X2386Y833D01*
X2386Y831D01*
X2388Y831D01*
X2388Y827D01*
X2390Y827D01*
X2390Y825D01*
X2392Y825D01*
X2392Y821D01*
X2394Y821D01*
X2394Y819D01*
X2396Y819D01*
X2396Y815D01*
X2398Y815D01*
X2398Y813D01*
X2400Y813D01*
X2400Y809D01*
X2402Y809D01*
X2402Y807D01*
X2404Y807D01*
X2404Y803D01*
X2406Y803D01*
X2406Y801D01*
X2408Y801D01*
X2408Y797D01*
X2410Y797D01*
X2410Y795D01*
X2412Y795D01*
X2412Y791D01*
X2414Y791D01*
X2414Y789D01*
X2416Y789D01*
X2416Y785D01*
X2418Y785D01*
X2418Y783D01*
X2420Y783D01*
X2420Y779D01*
X2422Y779D01*
X2422Y777D01*
X2424Y777D01*
X2424Y773D01*
X2426Y773D01*
X2426Y771D01*
X2428Y771D01*
X2428Y767D01*
X2430Y767D01*
X2430Y765D01*
X2432Y765D01*
X2432Y761D01*
X2434Y761D01*
X2434Y759D01*
X2436Y759D01*
X2436Y755D01*
X2438Y755D01*
X2438Y753D01*
X2440Y753D01*
X2440Y749D01*
X2442Y749D01*
X2442Y747D01*
X2444Y747D01*
X2444Y743D01*
X2446Y743D01*
X2446Y741D01*
X2448Y741D01*
X2448Y737D01*
X2450Y737D01*
X2450Y735D01*
X2452Y735D01*
X2452Y731D01*
X2454Y731D01*
X2454Y729D01*
X2456Y729D01*
X2456Y725D01*
X2476Y725D01*
X2476Y729D01*
X2474Y729D01*
X2474Y733D01*
X2472Y733D01*
X2472Y737D01*
X2470Y737D01*
X2470Y741D01*
X2468Y741D01*
X2468Y747D01*
X2466Y747D01*
X2466Y751D01*
X2464Y751D01*
X2464Y755D01*
X2462Y755D01*
X2462Y759D01*
X2460Y759D01*
X2460Y763D01*
X2458Y763D01*
X2458Y769D01*
X2456Y769D01*
X2456Y773D01*
X2454Y773D01*
X2454Y777D01*
X2452Y777D01*
X2452Y781D01*
X2450Y781D01*
X2450Y787D01*
X2448Y787D01*
X2448Y791D01*
X2446Y791D01*
X2446Y795D01*
X2444Y795D01*
X2444Y799D01*
X2442Y799D01*
X2442Y803D01*
X2440Y803D01*
X2440Y809D01*
X2438Y809D01*
X2438Y813D01*
X2436Y813D01*
X2436Y817D01*
X2434Y817D01*
X2434Y821D01*
X2426Y821D01*
X2426Y823D01*
X2420Y823D01*
X2420Y825D01*
X2416Y825D01*
X2416Y827D01*
X2414Y827D01*
X2414Y829D01*
X2412Y829D01*
X2412Y831D01*
X2408Y831D01*
X2408Y833D01*
X2406Y833D01*
X2406Y837D01*
X2404Y837D01*
X2404Y839D01*
X2402Y839D01*
X2402Y843D01*
X2382Y843D01*
G37*
D02*
G36*
X540Y729D02*
X540Y725D01*
X538Y725D01*
X538Y721D01*
X536Y721D01*
X536Y717D01*
X534Y717D01*
X534Y713D01*
X532Y713D01*
X532Y709D01*
X530Y709D01*
X530Y705D01*
X528Y705D01*
X528Y701D01*
X526Y701D01*
X526Y699D01*
X524Y699D01*
X524Y697D01*
X522Y697D01*
X522Y695D01*
X520Y695D01*
X520Y693D01*
X516Y693D01*
X516Y691D01*
X512Y691D01*
X512Y689D01*
X508Y689D01*
X508Y687D01*
X504Y687D01*
X504Y685D01*
X500Y685D01*
X500Y683D01*
X496Y683D01*
X496Y681D01*
X492Y681D01*
X492Y679D01*
X488Y679D01*
X488Y677D01*
X484Y677D01*
X484Y675D01*
X480Y675D01*
X480Y673D01*
X476Y673D01*
X476Y671D01*
X472Y671D01*
X472Y669D01*
X468Y669D01*
X468Y667D01*
X464Y667D01*
X464Y665D01*
X460Y665D01*
X460Y663D01*
X456Y663D01*
X456Y661D01*
X452Y661D01*
X452Y659D01*
X448Y659D01*
X448Y657D01*
X444Y657D01*
X444Y655D01*
X440Y655D01*
X440Y653D01*
X436Y653D01*
X436Y651D01*
X432Y651D01*
X432Y649D01*
X428Y649D01*
X428Y647D01*
X424Y647D01*
X424Y645D01*
X420Y645D01*
X420Y643D01*
X416Y643D01*
X416Y641D01*
X412Y641D01*
X412Y639D01*
X408Y639D01*
X408Y637D01*
X404Y637D01*
X404Y635D01*
X400Y635D01*
X400Y633D01*
X396Y633D01*
X396Y631D01*
X392Y631D01*
X392Y629D01*
X388Y629D01*
X388Y627D01*
X384Y627D01*
X384Y625D01*
X380Y625D01*
X380Y623D01*
X376Y623D01*
X376Y621D01*
X372Y621D01*
X372Y619D01*
X366Y619D01*
X366Y617D01*
X362Y617D01*
X362Y615D01*
X358Y615D01*
X358Y613D01*
X356Y613D01*
X356Y607D01*
X354Y607D01*
X354Y597D01*
X352Y597D01*
X352Y593D01*
X350Y593D01*
X350Y589D01*
X348Y589D01*
X348Y585D01*
X346Y585D01*
X346Y583D01*
X344Y583D01*
X344Y581D01*
X342Y581D01*
X342Y577D01*
X338Y577D01*
X338Y575D01*
X336Y575D01*
X336Y573D01*
X334Y573D01*
X334Y553D01*
X336Y553D01*
X336Y551D01*
X338Y551D01*
X338Y549D01*
X340Y549D01*
X340Y547D01*
X342Y547D01*
X342Y545D01*
X344Y545D01*
X344Y543D01*
X346Y543D01*
X346Y541D01*
X348Y541D01*
X348Y537D01*
X350Y537D01*
X350Y535D01*
X450Y535D01*
X450Y533D01*
X500Y533D01*
X500Y535D01*
X502Y535D01*
X502Y537D01*
X504Y537D01*
X504Y541D01*
X506Y541D01*
X506Y543D01*
X508Y543D01*
X508Y545D01*
X510Y545D01*
X510Y547D01*
X512Y547D01*
X512Y549D01*
X514Y549D01*
X514Y551D01*
X516Y551D01*
X516Y553D01*
X518Y553D01*
X518Y555D01*
X520Y555D01*
X520Y557D01*
X522Y557D01*
X522Y559D01*
X524Y559D01*
X524Y561D01*
X526Y561D01*
X526Y563D01*
X528Y563D01*
X528Y565D01*
X530Y565D01*
X530Y567D01*
X532Y567D01*
X532Y569D01*
X534Y569D01*
X534Y571D01*
X536Y571D01*
X536Y573D01*
X538Y573D01*
X538Y575D01*
X540Y575D01*
X540Y577D01*
X542Y577D01*
X542Y579D01*
X544Y579D01*
X544Y581D01*
X546Y581D01*
X546Y583D01*
X548Y583D01*
X548Y585D01*
X550Y585D01*
X550Y587D01*
X552Y587D01*
X552Y589D01*
X554Y589D01*
X554Y591D01*
X556Y591D01*
X556Y593D01*
X558Y593D01*
X558Y595D01*
X560Y595D01*
X560Y625D01*
X562Y625D01*
X562Y631D01*
X564Y631D01*
X564Y635D01*
X566Y635D01*
X566Y639D01*
X568Y639D01*
X568Y641D01*
X570Y641D01*
X570Y643D01*
X572Y643D01*
X572Y665D01*
X560Y665D01*
X560Y729D01*
X540Y729D01*
G37*
D02*
G04 End of Copper0*
M02*